SplineFontDB: 3.0
FontName: AVHersheyComplexMedium
FullName: AVHershey Complex Medium
FamilyName: AVHershey Complex
Weight: Regular
Copyright: Made in 2016 by Stewart C. Russell - scruss.com\n\nLicence: Dual-licensed CC0/WTFPL (srsly)\n\nDerived from character stroke coordinates by Allen V. Hershey published in "Calligraphy for Computers" (US Naval Weapons Laboratory, 1967-08-01, NWL Report No. 2101, NTIS accession number AD-662 398) and elsewhere. These coordinates were published without copyright.\n\nThe efforts of the Usenet Font Consortium (James Hurt, et al) who reformatted Hershey's data and published it to mod.sources on 1986-04-01 [Volume 4, Issue 42] are greatly appreciated.
UComments: "2016-2-12: Created with FontForge (http://fontforge.org)"
Version: 000.003
ItalicAngle: 0
UnderlinePosition: -100
UnderlineWidth: 50
Ascent: 800
Descent: 200
InvalidEm: 0
LayerCount: 2
Layer: 0 0 "Back" 1
Layer: 1 0 "Fore" 0
XUID: [1021 215 1271401794 9415688]
StyleMap: 0x0000
FSType: 0
OS2Version: 0
OS2_WeightWidthSlopeOnly: 0
OS2_UseTypoMetrics: 1
CreationTime: 1455328590
ModificationTime: 1455655201
OS2TypoAscent: 0
OS2TypoAOffset: 1
OS2TypoDescent: 0
OS2TypoDOffset: 1
OS2TypoLinegap: 90
OS2WinAscent: 0
OS2WinAOffset: 1
OS2WinDescent: 0
OS2WinDOffset: 1
HheadAscent: 0
HheadAOffset: 1
HheadDescent: 0
HheadDOffset: 1
MarkAttachClasses: 1
DEI: 91125
Encoding: UnicodeFull
Compacted: 1
UnicodeInterp: none
NameList: AGL For New Fonts
DisplaySize: -48
AntiAlias: 1
FitToEm: 1
WinInfo: 0 29 11
BeginPrivate: 0
EndPrivate
BeginChars: 1114112 357

StartChar: exclam
Encoding: 33 33 0
Width: 261
VWidth: 0
Flags: W
HStem: 0 21G<119 141> 580 20G<117 148>
VStem: 102 56<207 290.731>
LayerCount: 2
Back
Fore
SplineSet
84 74 m 1
 119 106 l 1
 130 108 l 1
 141 106 l 1
 150 100 l 1
 182 65 l 1
 184 54 l 1
 182 43 l 1
 150 8 l 1
 141 2 l 1
 130 0 l 1
 119 2 l 1
 110 8 l 1
 78 43 l 1
 76 54 l 1
 78 65 l 1
 84 74 l 1
79 533 m 1
 109 590 l 1
 117 597 l 1
 132 600 l 1
 148 593 l 1
 155 585 l 1
 181 533 l 1
 184 518 l 1
 158 207 l 1
 149 189 l 1
 130 181 l 1
 111 189 l 1
 102 207 l 1
 76 518 l 1
 79 533 l 1
EndSplineSet
Validated: 1
EndChar

StartChar: numbersign
Encoding: 35 35 1
Width: 543
VWidth: 0
Flags: W
HStem: -181 21G<96 117 251 272> 104 56<66 138 210 293 365 450> 259 56<92 177 249 332 404 476> 580 20G<269 291 425 446>
LayerCount: 2
Back
Fore
SplineSet
75 -147 m 1
 138 104 l 1
 66 106 l 1
 57 112 l 1
 51 121 l 1
 49 132 l 1
 51 142 l 1
 57 151 l 1
 66 157 l 1
 77 160 l 1
 152 160 l 1
 177 259 l 1
 92 261 l 1
 83 267 l 1
 77 276 l 1
 75 287 l 1
 77 298 l 1
 83 307 l 1
 92 313 l 1
 103 315 l 1
 191 315 l 1
 257 579 l 1
 261 589 l 1
 269 596 l 1
 280 600 l 1
 291 599 l 1
 301 594 l 1
 308 586 l 1
 312 576 l 1
 311 565 l 1
 249 315 l 1
 346 315 l 1
 412 579 l 1
 417 589 l 1
 425 596 l 1
 435 600 l 1
 446 599 l 1
 456 594 l 1
 463 586 l 1
 467 576 l 1
 466 565 l 1
 404 315 l 1
 476 313 l 1
 485 307 l 1
 491 298 l 1
 493 287 l 1
 491 276 l 1
 485 267 l 1
 476 261 l 1
 465 259 l 1
 390 259 l 1
 365 160 l 1
 450 157 l 1
 459 151 l 1
 465 142 l 1
 467 132 l 1
 465 121 l 1
 459 112 l 1
 450 106 l 1
 439 104 l 1
 351 104 l 1
 285 -160 l 1
 280 -170 l 1
 272 -177 l 1
 262 -181 l 1
 251 -180 l 1
 241 -176 l 1
 234 -168 l 1
 230 -157 l 1
 231 -147 l 1
 293 104 l 1
 196 104 l 1
 130 -160 l 1
 125 -170 l 1
 117 -177 l 1
 107 -181 l 1
 96 -180 l 1
 86 -176 l 1
 79 -168 l 1
 75 -157 l 1
 75 -147 l 1
235 259 m 1
 210 160 l 1
 307 160 l 1
 332 259 l 1
 235 259 l 1
EndSplineSet
Validated: 1
EndChar

StartChar: dollar
Encoding: 36 36 2
Width: 517
VWidth: 0
Flags: W
HStem: 0 56<234 282> 544 56<234 282>
VStem: 49 56<454 483> 178 56<-86 0 67 291 397 533 600 686> 282 56<-86 0 67 255 360 533 600 686> 411 56<117 198>
LayerCount: 2
Back
Fore
SplineSet
49 442 m 1
 49 494 l 1
 51 505 l 1
 57 514 l 1
 109 566 l 1
 120 573 l 1
 178 592 l 1
 180 686 l 1
 186 695 l 1
 195 701 l 1
 206 704 l 1
 217 701 l 1
 226 695 l 1
 232 686 l 1
 234 600 l 1
 282 600 l 1
 284 686 l 1
 290 695 l 1
 299 701 l 1
 310 704 l 1
 321 701 l 1
 330 695 l 1
 336 686 l 1
 338 676 l 1
 338 592 l 1
 396 573 l 1
 407 566 l 1
 465 505 l 1
 467 468 l 1
 465 458 l 1
 459 449 l 1
 424 417 l 1
 413 414 l 1
 403 417 l 1
 368 449 l 1
 362 458 l 1
 360 468 l 1
 362 479 l 1
 368 488 l 1
 387 507 l 1
 372 522 l 1
 338 533 l 1
 338 342 l 1
 400 312 l 1
 438 274 l 1
 465 220 l 1
 467 209 l 1
 467 106 l 1
 465 95 l 1
 459 86 l 1
 407 34 l 1
 396 27 l 1
 338 8 l 1
 338 -76 l 1
 336 -86 l 1
 330 -95 l 1
 321 -101 l 1
 310 -104 l 1
 299 -101 l 1
 290 -95 l 1
 284 -86 l 1
 282 0 l 1
 234 0 l 1
 232 -86 l 1
 226 -95 l 1
 217 -101 l 1
 206 -104 l 1
 195 -101 l 1
 186 -95 l 1
 180 -86 l 1
 178 -76 l 1
 178 8 l 1
 120 27 l 1
 109 34 l 1
 51 95 l 1
 49 132 l 1
 51 142 l 1
 57 151 l 1
 92 183 l 1
 103 186 l 1
 113 183 l 1
 148 151 l 1
 154 142 l 1
 156 132 l 1
 154 121 l 1
 148 112 l 1
 129 93 l 1
 144 78 l 1
 178 67 l 1
 178 310 l 1
 116 340 l 1
 83 371 l 1
 52 430 l 1
 49 442 l 1
105 454 m 1
 145 414 l 1
 178 397 l 1
 178 533 l 1
 144 522 l 1
 105 483 l 1
 105 454 l 1
234 544 m 1
 234 376 l 1
 282 360 l 1
 282 544 l 1
 234 544 l 1
234 56 m 1
 282 56 l 1
 282 276 l 1
 234 291 l 1
 234 56 l 1
338 255 m 1
 338 67 l 1
 372 78 l 1
 411 117 l 1
 411 198 l 1
 371 238 l 1
 338 255 l 1
EndSplineSet
Validated: 1
EndChar

StartChar: percent
Encoding: 37 37 3
Width: 621
VWidth: 0
Flags: W
HStem: 0 56<425 459> 181 54<446 480> 363 56<140 174> 492 56<340 409> 544 56<161 195>
VStem: 51 54<454 488> 230 56<475 507> 334 56<91 125> 515 56<112 146>
LayerCount: 2
Back
Fore
SplineSet
375 208 m 1xe780
 429 235 l 1
 491 237 l 1
 502 235 l 1
 511 229 l 1
 563 177 l 1
 569 168 l 1
 571 158 l 1
 571 106 l 1
 568 93 l 1
 537 34 l 1
 478 3 l 1
 465 0 l 1
 414 0 l 1
 403 2 l 1
 394 8 l 1
 342 60 l 1
 336 69 l 1
 334 80 l 1
 334 132 l 1
 337 144 l 1
 363 196 l 1
 375 208 l 1xe780
446 181 m 1
 409 163 l 1
 390 125 l 1
 390 91 l 1
 425 56 l 1
 459 56 l 1
 496 75 l 1
 515 112 l 1
 515 146 l 1
 480 181 l 1
 446 181 l 1
56 46 m 1
 446 501 l 1
 414 492 l 1
 336 492 l 1xf780
 286 507 l 1
 286 468 l 1
 283 456 l 1
 252 397 l 1
 193 366 l 1
 180 363 l 1
 129 363 l 1
 118 365 l 1
 109 371 l 1
 51 432 l 1
 49 494 l 1
 52 507 l 1
 83 566 l 1
 142 597 l 1
 155 600 l 1
 206 600 l 1xef80
 217 598 l 1
 269 572 l 1
 340 548 l 1
 409 548 l 1xf780
 481 572 l 1
 531 597 l 1
 541 600 l 1xef80
 552 599 l 1
 561 593 l 1
 568 585 l 1
 571 574 l 1
 570 563 l 1
 564 554 l 1
 98 10 l 1
 90 3 l 1
 79 0 l 1
 68 1 l 1
 59 7 l 1
 52 15 l 1
 49 26 l 1
 50 37 l 1
 56 46 l 1
195 544 m 1xef80
 161 544 l 1
 124 525 l 1
 105 488 l 1
 105 454 l 1
 140 419 l 1
 174 419 l 1
 211 437 l 1
 230 475 l 1
 230 509 l 1
 195 544 l 1xef80
EndSplineSet
Validated: 1
EndChar

StartChar: ampersand
Encoding: 38 38 4
Width: 647
VWidth: 0
Flags: W
HStem: 0 56<187 252 524 532> 399 20G<507 554> 580 20G<246 271>
VStem: 49 82<112 177> 154 54<449 488> 308 56<449 488>
LayerCount: 2
Back
Fore
SplineSet
287 328 m 1
 386 192 l 1
 439 323 l 1
 466 377 l 1
 497 410 l 1
 507 417 l 1
 517 419 l 1
 554 417 l 1
 589 385 l 1
 595 375 l 1
 597 365 l 1
 597 339 l 1
 595 328 l 1
 589 319 l 1
 563 293 l 1
 554 287 l 1
 543 285 l 1
 532 287 l 1
 523 293 l 1
 499 317 l 1
 440 173 l 1
 421 144 l 1
 435 124 l 1
 482 77 l 1
 524 56 l 1
 532 56 l 1
 541 66 l 1
 543 91 l 1
 549 100 l 1
 558 106 l 1
 569 108 l 1
 580 106 l 1
 589 100 l 1
 595 91 l 1
 597 80 l 1
 595 43 l 1
 563 8 l 1
 554 2 l 1
 543 0 l 1
 515 0 l 1
 431 27 l 1
 420 34 l 1
 375 79 l 1
 323 29 l 1
 271 3 l 1
 258 0 l 1
 178 0 l 1
 84 33 l 1
 52 93 l 1
 49 106 l 1
 49 183 l 1
 52 196 l 1
 78 248 l 1
 87 259 l 1
 195 331 l 1
 180 356 l 1
 154 434 l 1
 152 494 l 1
 155 507 l 1
 187 566 l 1
 246 597 l 1
 258 600 l 1
 271 597 l 1
 330 566 l 1
 361 507 l 1
 364 494 l 1
 364 442 l 1
 361 430 l 1
 330 371 l 1
 287 328 l 1
150 75 m 1
 187 56 l 1
 252 56 l 1
 293 77 l 1
 340 124 l 1
 227 284 l 1
 198 265 l 1
 152 219 l 1
 131 177 l 1
 131 112 l 1
 150 75 l 1
208 449 m 1
 230 405 l 1
 253 374 l 1
 287 407 l 1
 308 449 l 1
 308 488 l 1
 289 525 l 1
 258 541 l 1
 227 525 l 1
 208 488 l 1
 208 449 l 1
EndSplineSet
Validated: 1
EndChar

StartChar: parenleft
Encoding: 40 40 5
Width: 363
VWidth: 0
Flags: W
HStem: -181 21G<274 295>
VStem: 75 82<177 345>
LayerCount: 2
Back
Fore
SplineSet
256 607 m 1
 207 509 l 1
 182 435 l 1
 157 310 l 1
 157 212 l 1
 182 87 l 1
 207 13 l 1
 256 -85 l 1
 310 -143 l 1
 313 -153 l 1
 310 -164 l 1
 304 -173 l 1
 295 -179 l 1
 285 -181 l 1
 274 -179 l 1
 265 -173 l 1
 213 -121 l 1
 156 -36 l 1
 102 74 l 1
 75 209 l 1
 76 318 l 1
 104 455 l 1
 156 559 l 1
 210 639 l 1
 265 695 l 1
 274 701 l 1
 285 704 l 1
 295 701 l 1
 304 695 l 1
 310 686 l 1
 313 676 l 1
 310 665 l 1
 256 607 l 1
EndSplineSet
Validated: 1
EndChar

StartChar: parenright
Encoding: 41 41 6
Width: 363
VWidth: 0
Flags: W
HStem: -181 21G<67 88>
VStem: 205 82<177 345>
LayerCount: 2
Back
Fore
SplineSet
106 607 m 1
 52 665 l 1
 49 676 l 1
 52 686 l 1
 58 695 l 1
 67 701 l 1
 77 704 l 1
 88 701 l 1
 97 695 l 1
 152 639 l 1
 206 559 l 1
 258 455 l 1
 286 318 l 1
 287 209 l 1
 260 74 l 1
 206 -36 l 1
 149 -121 l 1
 97 -173 l 1
 88 -179 l 1
 77 -181 l 1
 67 -179 l 1
 58 -173 l 1
 52 -164 l 1
 49 -153 l 1
 52 -143 l 1
 106 -85 l 1
 155 13 l 1
 180 87 l 1
 205 212 l 1
 205 310 l 1
 180 435 l 1
 155 509 l 1
 106 607 l 1
EndSplineSet
Validated: 1
EndChar

StartChar: asterisk
Encoding: 42 42 7
Width: 413
VWidth: 0
Flags: W
HStem: 580 20G<195 217>
VStem: 178 56<250 367 466 583>
LayerCount: 2
Back
Fore
SplineSet
62 363 m 1
 152 417 l 1
 54 478 l 1
 49 487 l 1
 49 498 l 1
 52 509 l 1
 60 517 l 1
 70 521 l 1
 81 522 l 1
 178 466 l 1
 178 572 l 1
 180 583 l 1
 186 592 l 1
 195 598 l 1
 206 600 l 1
 217 598 l 1
 226 592 l 1
 232 583 l 1
 234 466 l 1
 331 522 l 1
 342 521 l 1
 352 517 l 1
 360 509 l 1
 363 498 l 1
 363 487 l 1
 358 478 l 1
 260 417 l 1
 358 356 l 1
 363 346 l 1
 363 335 l 1
 360 324 l 1
 352 316 l 1
 342 312 l 1
 331 311 l 1
 234 367 l 1
 234 261 l 1
 232 250 l 1
 226 241 l 1
 217 235 l 1
 206 233 l 1
 195 235 l 1
 186 241 l 1
 180 250 l 1
 178 367 l 1
 81 311 l 1
 70 312 l 1
 60 316 l 1
 52 324 l 1
 49 335 l 1
 49 346 l 1
 54 356 l 1
 62 363 l 1
EndSplineSet
Validated: 1
EndChar

StartChar: plus
Encoding: 43 43 8
Width: 673
VWidth: 0
Flags: W
HStem: 0 21G<325 347> 233 56<92 308 364 580>
VStem: 308 56<17 233 289 505>
LayerCount: 2
Back
Fore
SplineSet
308 289 m 1
 308 494 l 1
 310 505 l 1
 316 514 l 1
 325 520 l 1
 336 522 l 1
 347 520 l 1
 356 514 l 1
 362 505 l 1
 364 494 l 1
 364 289 l 1
 569 289 l 1
 580 287 l 1
 589 281 l 1
 595 272 l 1
 597 261 l 1
 595 250 l 1
 589 241 l 1
 580 235 l 1
 569 233 l 1
 364 233 l 1
 364 28 l 1
 362 17 l 1
 356 8 l 1
 347 2 l 1
 336 0 l 1
 325 2 l 1
 316 8 l 1
 310 17 l 1
 308 28 l 1
 308 233 l 1
 103 233 l 1
 92 235 l 1
 83 241 l 1
 77 250 l 1
 75 261 l 1
 77 272 l 1
 83 281 l 1
 92 287 l 1
 103 289 l 1
 308 289 l 1
EndSplineSet
Validated: 1
EndChar

StartChar: comma
Encoding: 44 44 9
Width: 261
VWidth: 0
Flags: W
HStem: -101 207
VStem: 78 104
LayerCount: 2
Back
Fore
SplineSet
124 1 m 1
 110 8 l 1
 84 34 l 1
 78 43 l 1
 76 54 l 1
 78 65 l 1
 84 74 l 1
 110 100 l 1
 119 106 l 1
 130 108 l 1
 141 106 l 1
 150 100 l 1
 182 65 l 1
 184 2 l 1
 181 -10 l 1
 150 -70 l 1
 115 -101 l 1
 104 -104 l 1
 93 -101 l 1
 84 -95 l 1
 78 -86 l 1
 76 -76 l 1
 78 -65 l 1
 107 -33 l 1
 124 1 l 1
EndSplineSet
Validated: 1
EndChar

StartChar: period
Encoding: 46 46 10
Width: 261
VWidth: 0
Flags: W
HStem: 2 104
VStem: 78 104
LayerCount: 2
Back
Fore
SplineSet
84 74 m 1
 119 106 l 1
 130 108 l 1
 141 106 l 1
 150 100 l 1
 182 65 l 1
 184 54 l 1
 182 43 l 1
 150 8 l 1
 141 2 l 1
 130 0 l 1
 119 2 l 1
 110 8 l 1
 78 43 l 1
 76 54 l 1
 78 65 l 1
 84 74 l 1
EndSplineSet
Validated: 1
EndChar

StartChar: slash
Encoding: 47 47 11
Width: 571
VWidth: 0
Flags: W
HStem: -181 21G<38 59>
LayerCount: 2
Back
Fore
SplineSet
27 -140 m 1
 494 689 l 1
 501 698 l 1
 511 703 l 1
 521 703 l 1
 532 700 l 1
 540 693 l 1
 545 683 l 1
 546 672 l 1
 543 662 l 1
 76 -167 l 1
 69 -175 l 1
 59 -180 l 1
 49 -181 l 1
 38 -178 l 1
 30 -171 l 1
 25 -161 l 1
 24 -150 l 1
 27 -140 l 1
EndSplineSet
Validated: 1
EndChar

StartChar: zero
Encoding: 48 48 12
Width: 518
VWidth: 0
Flags: W
HStem: 0 56<240 278> 544 56<240 278>
VStem: 50 82<228.125 371.875> 386 82<228.125 371.875>
LayerCount: 2
Back
Fore
SplineSet
147 573 m 1
 231 600 l 1
 285 600 l 1
 371 573 l 1
 386 562 l 1
 442 474 l 1
 468 344 l 1
 468 261 l 1
 442 126 l 1
 438 116 l 1
 380 32 l 1
 294 1 l 1
 231 0 l 1
 138 32 l 1
 80 116 l 1
 76 126 l 1
 50 256 l 1
 50 344 l 1
 80 484 l 1
 132 562 l 1
 147 573 l 1
278 56 m 1
 320 77 l 1
 340 96 l 1
 362 141 l 1
 386 264 l 1
 386 336 l 1
 362 459 l 1
 340 504 l 1
 320 523 l 1
 278 544 l 1
 240 544 l 1
 198 523 l 1
 178 504 l 1
 156 459 l 1
 132 336 l 1
 132 264 l 1
 156 141 l 1
 178 96 l 1
 198 77 l 1
 240 56 l 1
 278 56 l 1
EndSplineSet
Validated: 1
EndChar

StartChar: one
Encoding: 49 49 13
Width: 519
VWidth: 0
Flags: W
HStem: 0 56<145 231 313 399> 580 20G<274 296>
VStem: 231 82<56 478>
LayerCount: 2
Back
Fore
SplineSet
220 469 m 1
 157 440 l 1
 147 442 l 1
 137 447 l 1
 130 456 l 1
 127 466 l 1
 129 477 l 1
 134 487 l 1
 191 517 l 1
 265 592 l 1
 274 598 l 1
 285 600 l 1
 296 598 l 1
 305 592 l 1
 311 583 l 1
 313 572 l 1
 313 56 l 1
 399 54 l 1
 408 48 l 1
 414 39 l 1
 417 28 l 1
 414 17 l 1
 408 8 l 1
 399 2 l 1
 389 0 l 1
 155 0 l 1
 145 2 l 1
 136 8 l 1
 130 17 l 1
 127 28 l 1
 130 39 l 1
 136 48 l 1
 145 54 l 1
 231 56 l 1
 231 478 l 1
 220 469 l 1
EndSplineSet
Validated: 1
EndChar

StartChar: two
Encoding: 50 50 14
Width: 517
VWidth: 0
Flags: W
HStem: 0 82<289 355> 78 56<116 147> 544 56<189.682 303>
VStem: 51 52<17 68> 385 82<423 462> 411 56<117 168>
LayerCount: 2
Back
Fore
SplineSet
49 80 m 1xb4
 50 115 l 1
 76 192 l 1
 83 203 l 1
 142 260 l 1
 296 337 l 1
 366 384 l 1
 385 423 l 1
 385 462 l 1xb8
 365 504 l 1
 345 523 l 1
 303 544 l 1
 211 544 l 1
 144 522 l 1
 126 504 l 1
 119 490 l 1
 154 453 l 1
 156 442 l 1
 154 432 l 1
 122 397 l 1
 113 391 l 1
 103 389 l 1
 92 391 l 1
 57 423 l 1
 51 432 l 1
 49 442 l 1
 52 481 l 1
 83 540 l 1
 109 566 l 1
 120 573 l 1
 206 600 l 1
 312 600 l 1
 396 573 l 1
 407 566 l 1
 438 533 l 1
 464 481 l 1
 467 468 l 1
 467 417 l 1
 464 404 l 1
 438 352 l 1
 429 341 l 1
 346 287 l 1
 218 236 l 1
 171 212 l 1
 127 168 l 1
 116 134 l 1x74
 165 132 l 1
 289 82 l 1
 355 82 l 1
 397 103 l 1
 411 117 l 1
 411 158 l 1
 413 168 l 1
 420 177 l 1
 429 183 l 1
 439 186 l 1
 450 183 l 1
 459 177 l 1
 465 168 l 1
 467 106 l 1
 464 93 l 1
 433 34 l 1
 398 2 l 1
 284 0 l 1xb4
 269 4 l 1
 147 78 l 1
 114 78 l 1x74
 105 68 l 1
 103 17 l 1
 96 8 l 1
 87 2 l 1
 77 0 l 1
 66 2 l 1
 57 8 l 1
 51 17 l 1
 49 80 l 1xb4
EndSplineSet
Validated: 1
EndChar

StartChar: three
Encoding: 51 51 15
Width: 517
VWidth: 0
Flags: W
HStem: 0 56<189.682 303> 311 56<221 303> 544 56<189.682 303>
VStem: 360 81<423 488> 385 82<138 222>
LayerCount: 2
Back
Fore
SplineSet
119 490 m 1xf0
 154 453 l 1
 156 442 l 1
 154 432 l 1
 122 397 l 1
 113 391 l 1
 103 389 l 1
 92 391 l 1
 57 423 l 1
 51 432 l 1
 49 468 l 1
 52 481 l 1
 78 533 l 1
 109 566 l 1
 120 573 l 1
 206 600 l 1
 312 600 l 1
 396 573 l 1
 406 567 l 1
 413 559 l 1
 438 507 l 1
 441 494 l 1
 441 417 l 1xf0
 438 404 l 1
 413 352 l 1
 406 344 l 1
 381 333 l 1
 433 281 l 1
 464 222 l 1
 467 209 l 1
 467 132 l 1
 464 119 l 1
 438 67 l 1
 407 34 l 1
 396 27 l 1
 312 0 l 1
 206 0 l 1
 120 27 l 1
 109 34 l 1
 78 67 l 1
 52 119 l 1
 49 158 l 1
 51 168 l 1
 57 177 l 1
 92 209 l 1
 103 211 l 1
 113 209 l 1
 122 203 l 1
 154 168 l 1
 156 158 l 1
 154 147 l 1
 119 110 l 1
 126 96 l 1
 144 78 l 1
 211 56 l 1
 303 56 l 1
 345 77 l 1
 365 96 l 1
 385 138 l 1
 385 205 l 1xe8
 363 272 l 1
 345 290 l 1
 303 311 l 1
 221 313 l 1
 212 319 l 1
 206 328 l 1
 204 339 l 1
 206 350 l 1
 212 359 l 1
 221 365 l 1
 303 367 l 1
 341 386 l 1
 360 423 l 1
 360 488 l 1
 341 525 l 1
 303 544 l 1
 211 544 l 1
 144 522 l 1
 126 504 l 1
 119 490 l 1xf0
EndSplineSet
Validated: 1
EndChar

StartChar: four
Encoding: 52 52 16
Width: 517
VWidth: 0
Flags: W
HStem: 0 56<221 282 364 424> 155 56<106 282 364 476> 580 20G<321 342>
VStem: 282 82<56 155 211 451>
LayerCount: 2
Back
Fore
SplineSet
28 200 m 1
 313 589 l 1
 321 596 l 1
 331 600 l 1
 342 599 l 1
 352 595 l 1
 360 587 l 1
 364 572 l 1
 364 211 l 1
 476 209 l 1
 485 203 l 1
 491 194 l 1
 493 183 l 1
 491 173 l 1
 485 164 l 1
 476 158 l 1
 364 155 l 1
 364 56 l 1
 413 56 l 1
 424 54 l 1
 433 48 l 1
 439 39 l 1
 441 28 l 1
 439 17 l 1
 433 8 l 1
 424 2 l 1
 413 0 l 1
 232 0 l 1
 221 2 l 1
 212 8 l 1
 206 17 l 1
 204 28 l 1
 206 39 l 1
 212 48 l 1
 221 54 l 1
 232 56 l 1
 282 56 l 1
 282 155 l 1
 51 155 l 1
 32 163 l 1
 26 171 l 1
 24 191 l 1
 28 200 l 1
282 451 m 1
 106 211 l 1
 282 211 l 1
 282 451 l 1
EndSplineSet
Validated: 1
EndChar

StartChar: five
Encoding: 53 53 17
Width: 518
VWidth: 0
Flags: W
HStem: 1 55<197 277> 363 56<211 277> 518 82<146 296.704>
VStem: 385 81<175 244>
LayerCount: 2
Back
Fore
SplineSet
49 310 m 1
 101 577 l 1
 105 588 l 1
 113 595 l 1
 128 600 l 1
 388 600 l 1
 398 598 l 1
 411 588 l 1
 416 572 l 1
 413 561 l 1
 407 552 l 1
 393 545 l 1
 263 519 l 1
 146 518 l 1
 121 392 l 1
 197 417 l 1
 286 419 l 1
 370 391 l 1
 381 385 l 1
 433 333 l 1
 440 322 l 1
 466 244 l 1
 466 175 l 1
 440 97 l 1
 433 86 l 1
 381 34 l 1
 370 27 l 1
 286 0 l 1
 197 1 l 1
 120 27 l 1
 109 34 l 1
 78 67 l 1
 52 119 l 1
 49 132 l 1
 49 158 l 1
 51 168 l 1
 57 177 l 1
 92 209 l 1
 103 211 l 1
 113 209 l 1
 122 203 l 1
 154 168 l 1
 156 158 l 1
 154 147 l 1
 119 110 l 1
 126 96 l 1
 144 78 l 1
 211 56 l 1
 277 56 l 1
 319 77 l 1
 363 121 l 1
 385 188 l 1
 385 231 l 1
 363 298 l 1
 319 342 l 1
 277 363 l 1
 211 363 l 1
 144 340 l 1
 87 287 l 1
 71 285 l 1
 61 290 l 1
 53 297 l 1
 49 310 l 1
EndSplineSet
Validated: 1
EndChar

StartChar: six
Encoding: 54 54 18
Width: 518
VWidth: 0
Flags: W
HStem: 1 55<239 277> 544 56<265 329>
VStem: 49 82<166.682 226.318> 385 81<175 218>
LayerCount: 2
Back
Fore
SplineSet
131 329 m 1
 160 359 l 1
 171 365 l 1
 258 393 l 1
 293 391 l 1
 370 365 l 1
 381 359 l 1
 433 307 l 1
 440 296 l 1
 466 218 l 1
 466 175 l 1
 440 97 l 1
 433 86 l 1
 381 34 l 1
 370 27 l 1
 286 0 l 1
 223 1 l 1
 146 27 l 1
 135 34 l 1
 83 86 l 1
 76 97 l 1
 49 183 l 1
 50 346 l 1
 75 449 l 1
 109 514 l 1
 160 566 l 1
 171 573 l 1
 256 600 l 1
 336 600 l 1
 348 597 l 1
 407 566 l 1
 438 507 l 1
 441 468 l 1
 439 458 l 1
 433 449 l 1
 407 423 l 1
 398 417 l 1
 388 414 l 1
 377 417 l 1
 368 423 l 1
 336 458 l 1
 334 468 l 1
 336 479 l 1
 371 516 l 1
 367 525 l 1
 329 544 l 1
 265 544 l 1
 223 523 l 1
 177 478 l 1
 155 433 l 1
 131 329 l 1
277 56 m 1
 319 77 l 1
 363 121 l 1
 385 188 l 1
 385 205 l 1
 363 272 l 1
 319 316 l 1
 277 337 l 1
 263 337 l 1
 195 314 l 1
 153 272 l 1
 131 205 l 1
 131 188 l 1
 153 121 l 1
 197 77 l 1
 239 56 l 1
 277 56 l 1
EndSplineSet
Validated: 1
EndChar

StartChar: seven
Encoding: 55 55 19
Width: 517
VWidth: 0
Flags: W
HStem: 0 21G<221 245 245 269> 468 54<343 376> 518 82<161 201>
VStem: 49 56<406 462> 204 82<17 153>
LayerCount: 2
Back
Fore
SplineSet
49 417 m 1xb8
 49 572 l 1
 51 583 l 1
 57 592 l 1
 66 598 l 1
 77 600 l 1
 87 598 l 1
 96 592 l 1
 103 583 l 1
 105 562 l 1
 144 598 l 1
 206 600 l 1xb8
 221 596 l 1
 343 522 l 1
 376 522 l 1xd8
 390 537 l 1
 414 585 l 1
 429 598 l 1
 439 600 l 1xb8
 450 598 l 1
 459 592 l 1
 465 583 l 1
 467 494 l 1
 439 406 l 1
 334 272 l 1
 310 224 l 1
 286 153 l 1
 286 28 l 1
 284 17 l 1
 278 8 l 1
 269 2 l 1
 258 0 l 1
 245 4 l 1
 232 0 l 1
 221 2 l 1
 212 8 l 1
 206 17 l 1
 204 28 l 1
 206 166 l 1
 231 244 l 1
 259 300 l 1
 389 432 l 1
 402 471 l 1
 388 466 l 1
 325 468 l 1xd8
 201 518 l 1
 161 518 l 1
 123 499 l 1
 105 462 l 1
 105 417 l 1
 103 406 l 1
 96 397 l 1
 87 391 l 1
 77 389 l 1
 66 391 l 1
 57 397 l 1
 51 406 l 1
 49 417 l 1xb8
EndSplineSet
Validated: 1
EndChar

StartChar: eight
Encoding: 56 56 20
Width: 517
VWidth: 0
Flags: W
HStem: 0 56<213 303> 311 56<213 303> 544 56<213 303>
VStem: 49 82<138 229> 75 81<423 488> 360 81<423 488> 385 82<138 229>
LayerCount: 2
Back
Fore
SplineSet
119 339 m 1xf2
 103 352 l 1
 78 404 l 1
 75 417 l 1
 75 494 l 1
 78 507 l 1
 110 567 l 1
 204 600 l 1
 310 600 l 1
 396 573 l 1
 406 567 l 1
 438 507 l 1
 441 494 l 1
 441 417 l 1xec
 438 404 l 1
 413 352 l 1
 397 339 l 1
 407 333 l 1
 438 300 l 1
 464 248 l 1
 467 235 l 1
 467 132 l 1
 464 119 l 1
 433 60 l 1
 407 34 l 1
 396 27 l 1
 312 0 l 1
 204 0 l 1
 120 27 l 1
 109 34 l 1
 78 67 l 1
 52 119 l 1
 49 132 l 1
 49 235 l 1
 52 248 l 1
 78 300 l 1
 109 333 l 1
 119 339 l 1xf2
213 367 m 1
 303 367 l 1
 341 386 l 1
 360 423 l 1
 360 488 l 1
 341 525 l 1
 303 544 l 1
 213 544 l 1
 175 525 l 1
 156 488 l 1
 156 423 l 1
 175 386 l 1
 213 367 l 1
303 311 m 1
 213 311 l 1
 171 290 l 1
 151 270 l 1
 131 229 l 1
 131 138 l 1
 151 96 l 1
 171 77 l 1
 213 56 l 1
 303 56 l 1
 345 77 l 1
 365 96 l 1
 385 138 l 1
 385 229 l 1xf2
 365 270 l 1
 345 290 l 1
 303 311 l 1
EndSplineSet
Validated: 1
EndChar

StartChar: nine
Encoding: 57 57 21
Width: 518
VWidth: 0
Flags: W
HStem: 0 56<188 252> 544 55<240 278>
VStem: 51 81<382 425> 386 82<373.682 433.318>
LayerCount: 2
Back
Fore
SplineSet
146 84 m 1
 150 75 l 1
 188 56 l 1
 252 56 l 1
 294 77 l 1
 340 122 l 1
 362 167 l 1
 386 271 l 1
 357 241 l 1
 346 235 l 1
 259 207 l 1
 224 209 l 1
 147 235 l 1
 136 241 l 1
 84 293 l 1
 77 304 l 1
 51 382 l 1
 51 425 l 1
 77 503 l 1
 84 514 l 1
 136 566 l 1
 147 573 l 1
 224 599 l 1
 287 600 l 1
 371 573 l 1
 382 566 l 1
 434 514 l 1
 441 503 l 1
 468 417 l 1
 468 261 l 1
 439 145 l 1
 408 86 l 1
 357 34 l 1
 346 27 l 1
 268 1 l 1
 181 0 l 1
 169 3 l 1
 110 34 l 1
 79 93 l 1
 76 132 l 1
 78 142 l 1
 84 151 l 1
 119 183 l 1
 129 186 l 1
 140 183 l 1
 175 151 l 1
 181 142 l 1
 183 132 l 1
 181 121 l 1
 146 84 l 1
240 263 m 1
 254 263 l 1
 322 286 l 1
 364 328 l 1
 386 395 l 1
 386 412 l 1
 364 479 l 1
 320 523 l 1
 278 544 l 1
 240 544 l 1
 198 523 l 1
 154 479 l 1
 132 412 l 1
 132 395 l 1
 154 328 l 1
 198 284 l 1
 240 263 l 1
EndSplineSet
Validated: 1
EndChar

StartChar: colon
Encoding: 58 58 22
Width: 261
VWidth: 0
Flags: W
HStem: 0 21G<119 141> 399 20G<119 141>
VStem: 78 104
LayerCount: 2
Back
Fore
SplineSet
84 385 m 1
 119 417 l 1
 130 419 l 1
 141 417 l 1
 150 410 l 1
 182 375 l 1
 184 365 l 1
 182 354 l 1
 150 319 l 1
 141 313 l 1
 130 311 l 1
 119 313 l 1
 84 345 l 1
 78 354 l 1
 76 365 l 1
 78 375 l 1
 84 385 l 1
84 74 m 1
 119 106 l 1
 130 108 l 1
 141 106 l 1
 150 100 l 1
 182 65 l 1
 184 54 l 1
 182 43 l 1
 150 8 l 1
 141 2 l 1
 130 0 l 1
 119 2 l 1
 110 8 l 1
 78 43 l 1
 76 54 l 1
 78 65 l 1
 84 74 l 1
EndSplineSet
Validated: 1
EndChar

StartChar: semicolon
Encoding: 59 59 23
Width: 261
VWidth: 0
Flags: W
HStem: 399 20G<119 141>
VStem: 78 104
LayerCount: 2
Back
Fore
SplineSet
84 385 m 1
 119 417 l 1
 130 419 l 1
 141 417 l 1
 150 410 l 1
 182 375 l 1
 184 365 l 1
 182 354 l 1
 150 319 l 1
 141 313 l 1
 130 311 l 1
 119 313 l 1
 84 345 l 1
 78 354 l 1
 76 365 l 1
 78 375 l 1
 84 385 l 1
124 1 m 1
 110 8 l 1
 84 34 l 1
 78 43 l 1
 76 54 l 1
 78 65 l 1
 84 74 l 1
 110 100 l 1
 119 106 l 1
 130 108 l 1
 141 106 l 1
 150 100 l 1
 182 65 l 1
 184 2 l 1
 181 -10 l 1
 150 -70 l 1
 115 -101 l 1
 104 -104 l 1
 93 -101 l 1
 84 -95 l 1
 78 -86 l 1
 76 -76 l 1
 78 -65 l 1
 107 -33 l 1
 124 1 l 1
EndSplineSet
Validated: 1
EndChar

StartChar: less
Encoding: 60 60 24
Width: 622
VWidth: 0
Flags: W
HStem: 0 21G<505 526>
LayerCount: 2
Back
Fore
SplineSet
90 286 m 1
 505 519 l 1
 515 522 l 1
 526 521 l 1
 536 516 l 1
 543 508 l 1
 546 498 l 1
 545 487 l 1
 540 477 l 1
 532 470 l 1
 161 261 l 1
 532 52 l 1
 540 45 l 1
 545 36 l 1
 546 25 l 1
 543 14 l 1
 536 6 l 1
 526 1 l 1
 515 0 l 1
 505 4 l 1
 90 237 l 1
 81 245 l 1
 76 255 l 1
 76 267 l 1
 81 278 l 1
 90 286 l 1
EndSplineSet
Validated: 1
EndChar

StartChar: equal
Encoding: 61 61 25
Width: 673
VWidth: 0
Flags: W
HStem: 155 56<92 580> 311 56<92 580>
LayerCount: 2
Back
Fore
SplineSet
569 311 m 1
 103 311 l 1
 92 313 l 1
 83 319 l 1
 77 328 l 1
 75 339 l 1
 77 350 l 1
 83 359 l 1
 92 365 l 1
 103 367 l 1
 569 367 l 1
 580 365 l 1
 589 359 l 1
 595 350 l 1
 597 339 l 1
 595 328 l 1
 589 319 l 1
 580 313 l 1
 569 311 l 1
569 155 m 1
 103 155 l 1
 92 158 l 1
 83 164 l 1
 77 173 l 1
 75 183 l 1
 77 194 l 1
 83 203 l 1
 92 209 l 1
 103 211 l 1
 569 211 l 1
 580 209 l 1
 589 203 l 1
 595 194 l 1
 597 183 l 1
 595 173 l 1
 589 164 l 1
 580 158 l 1
 569 155 l 1
EndSplineSet
Validated: 1
EndChar

StartChar: greater
Encoding: 62 62 26
Width: 622
VWidth: 0
Flags: W
HStem: 0 21G<95 116>
LayerCount: 2
Back
Fore
SplineSet
460 261 m 1
 89 470 l 1
 81 477 l 1
 76 487 l 1
 75 498 l 1
 78 508 l 1
 85 516 l 1
 95 521 l 1
 106 522 l 1
 116 519 l 1
 531 286 l 1
 540 278 l 1
 545 267 l 1
 545 255 l 1
 540 245 l 1
 531 237 l 1
 116 4 l 1
 106 0 l 1
 95 1 l 1
 85 6 l 1
 78 14 l 1
 75 25 l 1
 76 36 l 1
 81 45 l 1
 89 52 l 1
 460 261 l 1
EndSplineSet
Validated: 1
EndChar

StartChar: question
Encoding: 63 63 27
Width: 465
VWidth: 0
Flags: W
HStem: 0 21G<221 243> 544 56<187 251>
VStem: 204 54<199 270> 334 81<423 462>
LayerCount: 2
Back
Fore
SplineSet
119 490 m 1
 154 453 l 1
 156 442 l 1
 154 432 l 1
 148 423 l 1
 113 391 l 1
 102 389 l 1
 92 391 l 1
 57 423 l 1
 51 432 l 1
 49 442 l 1
 52 481 l 1
 83 540 l 1
 116 571 l 1
 168 597 l 1
 180 600 l 1
 258 600 l 1
 344 573 l 1
 355 566 l 1
 387 533 l 1
 412 481 l 1
 415 468 l 1
 415 417 l 1
 412 404 l 1
 387 352 l 1
 348 314 l 1
 260 270 l 1
 258 199 l 1
 252 190 l 1
 243 183 l 1
 232 181 l 1
 221 183 l 1
 212 190 l 1
 206 199 l 1
 204 209 l 1
 206 297 l 1
 219 312 l 1
 267 336 l 1
 313 381 l 1
 334 423 l 1
 334 462 l 1
 313 504 l 1
 293 523 l 1
 251 544 l 1
 187 544 l 1
 145 523 l 1
 125 504 l 1
 119 490 l 1
186 74 m 1
 221 106 l 1
 232 108 l 1
 243 106 l 1
 252 100 l 1
 284 65 l 1
 286 54 l 1
 284 43 l 1
 252 8 l 1
 243 2 l 1
 232 0 l 1
 221 2 l 1
 212 8 l 1
 180 43 l 1
 178 54 l 1
 180 65 l 1
 186 74 l 1
EndSplineSet
Validated: 1
EndChar

StartChar: at
Encoding: 64 64 28
Width: 700
VWidth: 0
Flags: W
HStem: 1 55<315 383> 132 54<296 355 503 529> 414 56<322 381> 544 56<315 383>
VStem: 49 56<266 334> 178 82<242 308> 593 55<278 334>
LayerCount: 2
Back
Fore
SplineSet
554 132 m 1
 563 126 l 1
 569 116 l 1
 571 106 l 1
 569 95 l 1
 537 60 l 1
 478 29 l 1
 397 1 l 1
 301 1 l 1
 220 29 l 1
 161 60 l 1
 104 119 l 1
 76 175 l 1
 49 261 l 1
 50 348 l 1
 78 429 l 1
 109 488 l 1
 168 545 l 1
 224 573 l 1
 310 600 l 1
 397 599 l 1
 478 571 l 1
 537 540 l 1
 594 481 l 1
 622 425 l 1
 649 339 l 1
 648 278 l 1
 622 200 l 1
 615 190 l 1
 554 132 l 1
298 468 m 1
 310 470 l 1
 388 470 l 1
 400 468 l 1
 439 448 l 1
 448 465 l 1
 458 469 l 1
 469 470 l 1
 479 467 l 1
 495 470 l 1
 505 467 l 1
 514 460 l 1
 518 450 l 1
 519 439 l 1
 494 233 l 1
 494 195 l 1
 503 186 l 1
 532 186 l 1
 571 224 l 1
 593 292 l 1
 593 334 l 1
 569 406 l 1
 546 452 l 1
 501 497 l 1
 455 520 l 1
 383 544 l 1
 315 544 l 1
 243 520 l 1
 197 497 l 1
 152 452 l 1
 129 406 l 1
 105 334 l 1
 105 266 l 1
 129 194 l 1
 152 148 l 1
 197 103 l 1
 243 80 l 1
 315 56 l 1
 383 56 l 1
 455 80 l 1
 501 103 l 1
 529 130 l 1
 481 132 l 1
 427 159 l 1
 374 132 l 1
 362 130 l 1
 273 132 l 1
 213 164 l 1
 181 223 l 1
 178 235 l 1
 180 322 l 1
 206 400 l 1
 213 410 l 1
 238 436 l 1
 298 468 l 1
322 414 m 1
 283 376 l 1
 260 308 l 1
 260 242 l 1
 281 200 l 1
 296 186 l 1
 355 186 l 1
 393 204 l 1
 412 243 l 1
 429 375 l 1
 419 396 l 1
 381 414 l 1
 322 414 l 1
EndSplineSet
Validated: 1
EndChar

StartChar: A
Encoding: 65 65 29
Width: 617
VWidth: 0
Flags: W
HStem: 2 54<65 107 167 242 376 426 511 553> 155 56<218 374> 580 20G<296 318>
LayerCount: 2
Back
Fore
SplineSet
107 56 m 1
 282 581 l 1
 288 590 l 1
 296 597 l 1
 307 600 l 1
 318 599 l 1
 330 590 l 1
 336 581 l 1
 511 56 l 1
 542 56 l 1
 553 54 l 1
 562 48 l 1
 568 39 l 1
 570 28 l 1
 568 17 l 1
 562 8 l 1
 553 2 l 1
 542 0 l 1
 387 0 l 1
 376 2 l 1
 367 8 l 1
 361 17 l 1
 359 28 l 1
 361 39 l 1
 367 48 l 1
 376 54 l 1
 387 56 l 1
 426 56 l 1
 392 155 l 1
 200 155 l 1
 167 56 l 1
 231 56 l 1
 242 54 l 1
 251 48 l 1
 257 39 l 1
 259 28 l 1
 257 17 l 1
 251 8 l 1
 242 2 l 1
 76 0 l 1
 65 2 l 1
 56 8 l 1
 50 17 l 1
 48 28 l 1
 50 39 l 1
 56 48 l 1
 65 54 l 1
 76 56 l 1
 107 56 l 1
296 445 m 1
 218 211 l 1
 374 211 l 1
 296 445 l 1
EndSplineSet
Validated: 1
EndChar

StartChar: B
Encoding: 66 66 30
Width: 569
VWidth: 0
Flags: W
HStem: 0 56<40 101 182 355> 285 56<182 355> 544 56<40 101 182 355>
VStem: 101 81<56 285 341 544> 437 82<138 203 423 462>
LayerCount: 2
Back
Fore
SplineSet
101 544 m 1
 40 546 l 1
 31 552 l 1
 25 561 l 1
 23 572 l 1
 25 583 l 1
 31 592 l 1
 40 598 l 1
 51 600 l 1
 364 600 l 1
 448 573 l 1
 459 566 l 1
 490 533 l 1
 516 481 l 1
 519 468 l 1
 519 417 l 1
 516 404 l 1
 490 352 l 1
 459 319 l 1
 449 313 l 1
 459 307 l 1
 485 281 l 1
 516 222 l 1
 519 209 l 1
 519 132 l 1
 516 119 l 1
 490 67 l 1
 459 34 l 1
 448 27 l 1
 364 0 l 1
 51 0 l 1
 40 2 l 1
 31 8 l 1
 25 17 l 1
 23 28 l 1
 25 39 l 1
 31 48 l 1
 40 54 l 1
 51 56 l 1
 101 56 l 1
 101 544 l 1
182 544 m 1
 182 341 l 1
 355 341 l 1
 397 362 l 1
 416 381 l 1
 437 423 l 1
 437 462 l 1
 416 504 l 1
 397 523 l 1
 355 544 l 1
 182 544 l 1
182 56 m 1
 355 56 l 1
 397 77 l 1
 416 96 l 1
 437 138 l 1
 437 203 l 1
 416 245 l 1
 397 264 l 1
 355 285 l 1
 182 285 l 1
 182 56 l 1
EndSplineSet
Validated: 1
EndChar

StartChar: C
Encoding: 67 67 31
Width: 543
VWidth: 0
Flags: W
HStem: 1 55<265 326.318> 544 55<265 319>
VStem: 49 82<240 360>
LayerCount: 2
Back
Fore
SplineSet
254 599 m 1
 319 599 l 1
 396 573 l 1
 407 566 l 1
 427 546 l 1
 439 581 l 1
 444 591 l 1
 453 597 l 1
 464 600 l 1
 475 598 l 1
 485 592 l 1
 491 583 l 1
 493 572 l 1
 493 417 l 1
 491 406 l 1
 485 396 l 1
 475 390 l 1
 464 389 l 1
 453 391 l 1
 444 398 l 1
 415 479 l 1
 372 522 l 1
 305 544 l 1
 265 544 l 1
 223 523 l 1
 177 478 l 1
 155 432 l 1
 131 360 l 1
 131 240 l 1
 155 168 l 1
 177 122 l 1
 223 77 l 1
 265 56 l 1
 305 56 l 1
 372 78 l 1
 416 122 l 1
 447 179 l 1
 456 184 l 1
 467 185 l 1
 478 183 l 1
 486 176 l 1
 492 166 l 1
 493 156 l 1
 490 145 l 1
 464 93 l 1
 407 34 l 1
 396 27 l 1
 310 0 l 1
 249 1 l 1
 172 27 l 1
 161 34 l 1
 104 93 l 1
 76 149 l 1
 49 235 l 1
 50 374 l 1
 76 451 l 1
 104 507 l 1
 161 566 l 1
 172 573 l 1
 254 599 l 1
EndSplineSet
Validated: 1
EndChar

StartChar: D
Encoding: 68 68 32
Width: 569
VWidth: 0
Flags: W
HStem: 0 56<40 101 182 303> 544 56<40 101 182 303>
VStem: 101 81<56 544> 437 82<240 360>
LayerCount: 2
Back
Fore
SplineSet
101 544 m 1
 40 546 l 1
 31 552 l 1
 25 561 l 1
 23 572 l 1
 25 583 l 1
 31 592 l 1
 40 598 l 1
 51 600 l 1
 312 600 l 1
 396 573 l 1
 407 566 l 1
 464 507 l 1
 492 451 l 1
 518 374 l 1
 519 235 l 1
 492 149 l 1
 464 93 l 1
 407 34 l 1
 396 27 l 1
 310 0 l 1
 51 0 l 1
 40 2 l 1
 31 8 l 1
 25 17 l 1
 23 28 l 1
 25 39 l 1
 31 48 l 1
 40 54 l 1
 101 56 l 1
 101 544 l 1
182 544 m 1
 182 56 l 1
 303 56 l 1
 345 77 l 1
 391 122 l 1
 413 168 l 1
 437 240 l 1
 437 360 l 1
 413 432 l 1
 391 478 l 1
 345 523 l 1
 303 544 l 1
 182 544 l 1
EndSplineSet
Validated: 1
EndChar

StartChar: E
Encoding: 69 69 33
Width: 543
VWidth: 0
Flags: W
HStem: 0 56<40 101 182 416> 285 56<182 282> 544 56<40 101 182 416>
VStem: 101 81<56 285 341 544> 282 56<199 285 341 427> 416 77<56 98 502 544> 438 55<146 183 417 454>
LayerCount: 2
Back
Fore
SplineSet
101 544 m 1xfa
 40 546 l 1
 31 552 l 1
 25 561 l 1
 23 572 l 1
 25 583 l 1
 31 592 l 1
 40 598 l 1
 51 600 l 1
 465 600 l 1
 476 598 l 1
 485 592 l 1
 491 583 l 1
 493 572 l 1
 493 417 l 1
 486 398 l 1
 468 389 l 1
 448 394 l 1
 438 412 l 1xfa
 416 544 l 1
 182 544 l 1
 182 341 l 1
 282 341 l 1
 284 427 l 1
 290 436 l 1
 299 442 l 1
 310 445 l 1
 321 442 l 1
 330 436 l 1
 336 427 l 1
 338 417 l 1
 338 209 l 1
 336 199 l 1
 330 190 l 1
 321 183 l 1
 310 181 l 1
 299 183 l 1
 290 190 l 1
 284 199 l 1
 282 209 l 1
 282 285 l 1
 182 285 l 1
 182 56 l 1
 416 56 l 1xfc
 438 188 l 1
 448 206 l 1
 468 211 l 1
 486 202 l 1
 493 183 l 1
 493 28 l 1
 491 17 l 1
 485 8 l 1
 476 2 l 1
 465 0 l 1
 51 0 l 1
 40 2 l 1
 31 8 l 1
 25 17 l 1
 23 28 l 1
 25 39 l 1
 31 48 l 1
 40 54 l 1
 51 56 l 1
 101 56 l 1
 101 544 l 1xfa
EndSplineSet
Validated: 1
EndChar

StartChar: F
Encoding: 70 70 34
Width: 517
VWidth: 0
Flags: W
HStem: 0 56<40 101 182 243> 285 56<182 282> 544 56<40 101 182 416>
VStem: 101 81<56 285 341 544> 282 56<199 285 341 427> 438 55<417 454>
LayerCount: 2
Back
Fore
SplineSet
101 544 m 1
 40 546 l 1
 31 552 l 1
 25 561 l 1
 23 572 l 1
 25 583 l 1
 31 592 l 1
 40 598 l 1
 51 600 l 1
 465 600 l 1
 476 598 l 1
 485 592 l 1
 491 583 l 1
 493 417 l 1
 486 398 l 1
 468 389 l 1
 448 394 l 1
 438 412 l 1
 416 544 l 1
 182 544 l 1
 182 341 l 1
 282 341 l 1
 282 417 l 1
 284 427 l 1
 290 436 l 1
 299 442 l 1
 310 445 l 1
 321 442 l 1
 330 436 l 1
 336 427 l 1
 338 417 l 1
 338 209 l 1
 336 199 l 1
 330 190 l 1
 321 183 l 1
 310 181 l 1
 299 183 l 1
 290 190 l 1
 284 199 l 1
 282 285 l 1
 182 285 l 1
 182 56 l 1
 232 56 l 1
 243 54 l 1
 252 48 l 1
 258 39 l 1
 260 28 l 1
 258 17 l 1
 252 8 l 1
 243 2 l 1
 232 0 l 1
 51 0 l 1
 40 2 l 1
 31 8 l 1
 25 17 l 1
 23 28 l 1
 25 39 l 1
 31 48 l 1
 40 54 l 1
 101 56 l 1
 101 544 l 1
EndSplineSet
Validated: 1
EndChar

StartChar: G
Encoding: 71 71 35
Width: 595
VWidth: 0
Flags: W
HStem: 0 56<265 326.318> 207 56<351 411 493 554> 544 55<265 319>
VStem: 49 82<240 360> 411 82<117 207>
LayerCount: 2
Back
Fore
SplineSet
254 599 m 1
 319 599 l 1
 396 573 l 1
 407 566 l 1
 427 546 l 1
 444 591 l 1
 453 597 l 1
 464 600 l 1
 475 598 l 1
 485 592 l 1
 491 583 l 1
 493 572 l 1
 493 417 l 1
 491 406 l 1
 485 396 l 1
 475 390 l 1
 464 389 l 1
 453 391 l 1
 444 398 l 1
 415 479 l 1
 372 522 l 1
 305 544 l 1
 265 544 l 1
 223 523 l 1
 177 478 l 1
 155 432 l 1
 131 360 l 1
 131 240 l 1
 155 168 l 1
 177 122 l 1
 223 77 l 1
 265 56 l 1
 305 56 l 1
 372 78 l 1
 411 117 l 1
 411 207 l 1
 362 207 l 1
 351 209 l 1
 342 215 l 1
 336 225 l 1
 334 235 l 1
 336 246 l 1
 342 255 l 1
 351 261 l 1
 362 263 l 1
 543 263 l 1
 554 261 l 1
 563 255 l 1
 569 246 l 1
 571 235 l 1
 569 225 l 1
 563 215 l 1
 554 209 l 1
 543 207 l 1
 493 207 l 1
 493 28 l 1
 491 17 l 1
 485 8 l 1
 476 2 l 1
 465 0 l 1
 452 4 l 1
 439 0 l 1
 429 2 l 1
 420 8 l 1
 414 17 l 1
 411 38 l 1
 396 27 l 1
 310 0 l 1
 256 0 l 1
 172 27 l 1
 161 34 l 1
 109 86 l 1
 76 149 l 1
 49 235 l 1
 49 365 l 1
 76 451 l 1
 109 514 l 1
 161 566 l 1
 172 573 l 1
 254 599 l 1
EndSplineSet
Validated: 1
EndChar

StartChar: H
Encoding: 72 72 36
Width: 621
VWidth: 0
Flags: W
HStem: 0 56<40 101 183 243 377 437 519 580> 285 56<183 437> 544 56<40 101 183 243 377 437 519 580>
VStem: 101 82<56 285 341 544> 437 82<56 285 341 544>
LayerCount: 2
Back
Fore
SplineSet
101 544 m 1
 40 546 l 1
 31 552 l 1
 25 561 l 1
 23 572 l 1
 25 583 l 1
 31 592 l 1
 40 598 l 1
 51 600 l 1
 232 600 l 1
 243 598 l 1
 252 592 l 1
 258 583 l 1
 260 572 l 1
 258 561 l 1
 252 552 l 1
 243 546 l 1
 183 544 l 1
 183 341 l 1
 437 341 l 1
 437 544 l 1
 377 546 l 1
 368 552 l 1
 362 561 l 1
 360 572 l 1
 362 583 l 1
 368 592 l 1
 377 598 l 1
 388 600 l 1
 569 600 l 1
 580 598 l 1
 589 592 l 1
 595 583 l 1
 597 572 l 1
 595 561 l 1
 589 552 l 1
 580 546 l 1
 569 544 l 1
 519 544 l 1
 519 56 l 1
 569 56 l 1
 580 54 l 1
 589 48 l 1
 595 39 l 1
 597 28 l 1
 595 17 l 1
 589 8 l 1
 580 2 l 1
 569 0 l 1
 388 0 l 1
 377 2 l 1
 368 8 l 1
 362 17 l 1
 360 28 l 1
 362 39 l 1
 368 48 l 1
 377 54 l 1
 437 56 l 1
 437 285 l 1
 183 285 l 1
 183 56 l 1
 243 54 l 1
 252 48 l 1
 258 39 l 1
 260 28 l 1
 258 17 l 1
 252 8 l 1
 243 2 l 1
 232 0 l 1
 51 0 l 1
 40 2 l 1
 31 8 l 1
 25 17 l 1
 23 28 l 1
 25 39 l 1
 31 48 l 1
 40 54 l 1
 51 56 l 1
 101 56 l 1
 101 544 l 1
EndSplineSet
Validated: 1
EndChar

StartChar: I
Encoding: 73 73 37
Width: 286
VWidth: 0
Flags: W
HStem: 0 56<42 102 184 244> 544 56<42 102 184 244>
VStem: 102 82<56 544>
LayerCount: 2
Back
Fore
SplineSet
102 544 m 1
 42 546 l 1
 32 552 l 1
 26 561 l 1
 24 572 l 1
 26 583 l 1
 32 592 l 1
 42 598 l 1
 52 600 l 1
 234 600 l 1
 244 598 l 1
 253 592 l 1
 259 583 l 1
 262 572 l 1
 259 561 l 1
 253 552 l 1
 244 546 l 1
 184 544 l 1
 184 56 l 1
 234 56 l 1
 244 54 l 1
 253 48 l 1
 259 39 l 1
 262 28 l 1
 259 17 l 1
 253 8 l 1
 244 2 l 1
 234 0 l 1
 52 0 l 1
 42 2 l 1
 32 8 l 1
 26 17 l 1
 24 28 l 1
 26 39 l 1
 32 48 l 1
 42 54 l 1
 102 56 l 1
 102 544 l 1
EndSplineSet
Validated: 1
EndChar

StartChar: J
Encoding: 74 74 38
Width: 388
VWidth: 0
Flags: W
HStem: 0 56<136 169> 544 56<144 205 287 347>
VStem: 205 82<136 544>
LayerCount: 2
Back
Fore
SplineSet
83 105 m 1
 98 75 l 1
 136 56 l 1
 169 56 l 1
 182 69 l 1
 205 136 l 1
 205 544 l 1
 144 546 l 1
 135 552 l 1
 129 561 l 1
 127 572 l 1
 129 583 l 1
 135 592 l 1
 144 598 l 1
 155 600 l 1
 336 600 l 1
 347 598 l 1
 356 592 l 1
 362 583 l 1
 364 572 l 1
 362 561 l 1
 356 552 l 1
 347 546 l 1
 336 544 l 1
 287 544 l 1
 287 132 l 1
 259 45 l 1
 254 36 l 1
 245 29 l 1
 192 2 l 1
 181 0 l 1
 129 0 l 1
 117 3 l 1
 58 34 l 1
 26 93 l 1
 23 106 l 1
 23 158 l 1
 26 168 l 1
 32 177 l 1
 58 203 l 1
 67 209 l 1
 77 211 l 1
 88 209 l 1
 97 203 l 1
 123 177 l 1
 129 168 l 1
 131 158 l 1
 129 147 l 1
 123 138 l 1
 97 112 l 1
 83 105 l 1
EndSplineSet
Validated: 1
EndChar

StartChar: K
Encoding: 75 75 39
Width: 569
VWidth: 0
Flags: W
HStem: 0 56<40 101 183 243 377 413 506 554> 544 56<40 101 183 243 377 424 503 554>
VStem: 101 82<56 224 303 544>
LayerCount: 2
Back
Fore
SplineSet
101 544 m 1
 40 546 l 1
 31 552 l 1
 25 561 l 1
 23 572 l 1
 25 583 l 1
 31 592 l 1
 40 598 l 1
 51 600 l 1
 232 600 l 1
 243 598 l 1
 252 592 l 1
 258 583 l 1
 260 572 l 1
 258 561 l 1
 252 552 l 1
 243 546 l 1
 183 544 l 1
 183 303 l 1
 424 544 l 1
 388 544 l 1
 377 546 l 1
 368 552 l 1
 362 561 l 1
 360 572 l 1
 362 583 l 1
 368 592 l 1
 377 598 l 1
 388 600 l 1
 543 600 l 1
 554 598 l 1
 563 592 l 1
 569 583 l 1
 571 572 l 1
 569 561 l 1
 563 552 l 1
 554 546 l 1
 543 544 l 1
 503 544 l 1
 310 351 l 1
 506 56 l 1
 543 56 l 1
 554 54 l 1
 563 48 l 1
 569 39 l 1
 571 28 l 1
 569 17 l 1
 563 8 l 1
 554 2 l 1
 543 0 l 1
 388 0 l 1
 377 2 l 1
 368 8 l 1
 362 17 l 1
 360 28 l 1
 362 39 l 1
 368 48 l 1
 377 54 l 1
 388 56 l 1
 413 56 l 1
 254 295 l 1
 183 224 l 1
 183 56 l 1
 232 56 l 1
 243 54 l 1
 252 48 l 1
 258 39 l 1
 260 28 l 1
 258 17 l 1
 252 8 l 1
 243 2 l 1
 232 0 l 1
 51 0 l 1
 40 2 l 1
 31 8 l 1
 25 17 l 1
 23 28 l 1
 25 39 l 1
 31 48 l 1
 40 54 l 1
 51 56 l 1
 101 56 l 1
 101 544 l 1
EndSplineSet
Validated: 1
EndChar

StartChar: L
Encoding: 76 76 40
Width: 465
VWidth: 0
Flags: W
HStem: 0 56<40 100 182 390> 544 56<40 100 182 243>
VStem: 100 82<56 544> 412 55<146 183>
LayerCount: 2
Back
Fore
SplineSet
100 544 m 1
 40 546 l 1
 31 552 l 1
 25 561 l 1
 23 572 l 1
 25 583 l 1
 31 592 l 1
 40 598 l 1
 51 600 l 1
 232 600 l 1
 243 598 l 1
 252 592 l 1
 258 583 l 1
 260 572 l 1
 258 561 l 1
 252 552 l 1
 243 546 l 1
 182 544 l 1
 182 56 l 1
 390 56 l 1
 412 188 l 1
 422 206 l 1
 442 211 l 1
 460 202 l 1
 467 183 l 1
 467 28 l 1
 465 17 l 1
 459 8 l 1
 450 2 l 1
 439 0 l 1
 51 0 l 1
 40 2 l 1
 31 8 l 1
 25 17 l 1
 23 28 l 1
 25 39 l 1
 31 48 l 1
 40 54 l 1
 100 56 l 1
 100 544 l 1
EndSplineSet
Validated: 1
EndChar

StartChar: M
Encoding: 77 77 41
Width: 648
VWidth: 0
Flags: W
HStem: 0 56<40 101 157 217 403 463 545 606> 544 56<40 101 545 606>
VStem: 101 56<56 399> 463 82<56 399>
LayerCount: 2
Back
Fore
SplineSet
101 544 m 1
 40 546 l 1
 31 552 l 1
 25 561 l 1
 23 572 l 1
 25 583 l 1
 31 592 l 1
 40 598 l 1
 51 600 l 1
 155 600 l 1
 167 597 l 1
 180 583 l 1
 323 155 l 1
 465 581 l 1
 470 590 l 1
 479 597 l 1
 491 600 l 1
 595 600 l 1
 606 598 l 1
 615 592 l 1
 621 583 l 1
 623 572 l 1
 621 561 l 1
 615 552 l 1
 606 546 l 1
 595 544 l 1
 545 544 l 1
 545 56 l 1
 595 56 l 1
 606 54 l 1
 615 48 l 1
 621 39 l 1
 623 28 l 1
 621 17 l 1
 615 8 l 1
 606 2 l 1
 595 0 l 1
 414 0 l 1
 403 2 l 1
 394 8 l 1
 388 17 l 1
 386 28 l 1
 388 39 l 1
 394 48 l 1
 403 54 l 1
 463 56 l 1
 463 399 l 1
 335 15 l 1
 328 7 l 1
 312 0 l 1
 301 1 l 1
 292 7 l 1
 283 19 l 1
 157 399 l 1
 157 56 l 1
 217 54 l 1
 226 48 l 1
 232 39 l 1
 234 28 l 1
 232 17 l 1
 226 8 l 1
 217 2 l 1
 206 0 l 1
 51 0 l 1
 40 2 l 1
 31 8 l 1
 25 17 l 1
 23 28 l 1
 25 39 l 1
 31 48 l 1
 40 54 l 1
 51 56 l 1
 101 56 l 1
 101 544 l 1
EndSplineSet
Validated: 1
EndChar

StartChar: N
Encoding: 78 78 42
Width: 595
VWidth: 0
Flags: W
HStem: 0 56<40 101 157 217> 544 56<40 101 377 437 493 554>
VStem: 101 56<56 464> 437 56<177 544>
LayerCount: 2
Back
Fore
SplineSet
101 544 m 1
 40 546 l 1
 31 552 l 1
 25 561 l 1
 23 572 l 1
 25 583 l 1
 31 592 l 1
 40 598 l 1
 51 600 l 1
 154 600 l 1
 165 598 l 1
 174 592 l 1
 437 177 l 1
 437 544 l 1
 377 546 l 1
 368 552 l 1
 362 561 l 1
 360 572 l 1
 362 583 l 1
 368 592 l 1
 377 598 l 1
 388 600 l 1
 543 600 l 1
 554 598 l 1
 563 592 l 1
 569 583 l 1
 571 572 l 1
 569 561 l 1
 563 552 l 1
 554 546 l 1
 543 544 l 1
 493 544 l 1
 493 28 l 1
 488 12 l 1
 480 4 l 1
 470 0 l 1
 459 1 l 1
 449 5 l 1
 442 13 l 1
 157 464 l 1
 157 56 l 1
 217 54 l 1
 226 48 l 1
 232 39 l 1
 234 28 l 1
 232 17 l 1
 226 8 l 1
 217 2 l 1
 206 0 l 1
 51 0 l 1
 40 2 l 1
 31 8 l 1
 25 17 l 1
 23 28 l 1
 25 39 l 1
 31 48 l 1
 40 54 l 1
 51 56 l 1
 101 56 l 1
 101 544 l 1
EndSplineSet
Validated: 1
EndChar

StartChar: O
Encoding: 79 79 43
Width: 569
VWidth: 0
Flags: W
HStem: 0 56<265 303> 544 56<265 303>
VStem: 50 81<236.417 363.583> 437 82<236.417 363.583>
LayerCount: 2
Back
Fore
SplineSet
172 573 m 1
 256 600 l 1
 310 600 l 1
 396 573 l 1
 407 566 l 1
 459 514 l 1
 492 449 l 1
 518 346 l 1
 519 261 l 1
 490 145 l 1
 459 86 l 1
 407 34 l 1
 396 27 l 1
 319 1 l 1
 256 0 l 1
 172 27 l 1
 161 34 l 1
 109 86 l 1
 76 151 l 1
 50 254 l 1
 50 346 l 1
 76 449 l 1
 104 507 l 1
 161 566 l 1
 172 573 l 1
303 56 m 1
 345 77 l 1
 391 122 l 1
 413 167 l 1
 437 265 l 1
 437 335 l 1
 413 433 l 1
 391 478 l 1
 345 523 l 1
 303 544 l 1
 265 544 l 1
 223 523 l 1
 177 478 l 1
 155 433 l 1
 131 335 l 1
 131 265 l 1
 155 167 l 1
 177 122 l 1
 223 77 l 1
 265 56 l 1
 303 56 l 1
EndSplineSet
Validated: 1
EndChar

StartChar: P
Encoding: 80 80 44
Width: 569
VWidth: 0
Flags: W
HStem: 0 56<40 101 182 243> 259 56<182 355> 544 56<40 101 182 355>
VStem: 101 81<56 259 315 544> 437 82<397 462>
LayerCount: 2
Back
Fore
SplineSet
101 544 m 1
 40 546 l 1
 31 552 l 1
 25 561 l 1
 23 572 l 1
 25 583 l 1
 31 592 l 1
 40 598 l 1
 51 600 l 1
 364 600 l 1
 448 573 l 1
 459 566 l 1
 490 533 l 1
 516 481 l 1
 519 468 l 1
 519 391 l 1
 516 378 l 1
 490 326 l 1
 459 293 l 1
 448 286 l 1
 364 259 l 1
 182 259 l 1
 182 56 l 1
 232 56 l 1
 243 54 l 1
 252 48 l 1
 258 39 l 1
 260 28 l 1
 258 17 l 1
 252 8 l 1
 243 2 l 1
 232 0 l 1
 51 0 l 1
 40 2 l 1
 31 8 l 1
 25 17 l 1
 23 28 l 1
 25 39 l 1
 31 48 l 1
 40 54 l 1
 101 56 l 1
 101 544 l 1
182 544 m 1
 182 315 l 1
 355 315 l 1
 397 336 l 1
 416 355 l 1
 437 397 l 1
 437 462 l 1
 416 504 l 1
 397 523 l 1
 355 544 l 1
 182 544 l 1
EndSplineSet
Validated: 1
EndChar

StartChar: Q
Encoding: 81 81 45
Width: 569
VWidth: 0
Flags: W
HStem: 0 56<265 303> 544 56<265 303>
VStem: 50 81<236.417 363.583> 437 81<236.417 363.583>
LayerCount: 2
Back
Fore
SplineSet
311 600 m 1
 396 573 l 1
 407 566 l 1
 459 514 l 1
 492 449 l 1
 518 346 l 1
 518 254 l 1
 492 151 l 1
 459 86 l 1
 408 35 l 1
 414 12 l 1
 437 -33 l 1
 451 -48 l 1
 463 -38 l 1
 465 -13 l 1
 471 -4 l 1
 481 2 l 1
 491 4 l 1
 502 2 l 1
 511 -4 l 1
 517 -13 l 1
 519 -24 l 1
 517 -60 l 1
 490 -114 l 1
 475 -128 l 1
 414 -130 l 1
 403 -127 l 1
 368 -95 l 1
 360 -80 l 1
 347 11 l 1
 312 0 l 1
 256 0 l 1
 172 27 l 1
 161 34 l 1
 104 93 l 1
 76 151 l 1
 50 254 l 1
 50 346 l 1
 76 449 l 1
 109 514 l 1
 161 566 l 1
 172 573 l 1
 256 600 l 1
 311 600 l 1
167 142 m 1
 186 177 l 1
 246 208 l 1
 258 211 l 1
 297 208 l 1
 356 177 l 1
 387 118 l 1
 413 167 l 1
 437 265 l 1
 437 335 l 1
 413 433 l 1
 391 478 l 1
 345 523 l 1
 303 544 l 1
 265 544 l 1
 223 523 l 1
 177 478 l 1
 155 433 l 1
 131 335 l 1
 131 265 l 1
 155 167 l 1
 167 142 l 1
338 73 m 1
 335 97 l 1
 315 137 l 1
 277 155 l 1
 265 155 l 1
 227 137 l 1
 208 99 l 1
 208 91 l 1
 223 77 l 1
 265 56 l 1
 303 56 l 1
 338 73 l 1
EndSplineSet
Validated: 1
EndChar

StartChar: R
Encoding: 82 82 46
Width: 569
VWidth: 0
Flags: W
HStem: 0 56<40 101 182 243> 285 56<182 277> 544 56<40 101 182 355>
VStem: 101 81<56 285 341 544> 437 82<423 462>
LayerCount: 2
Back
Fore
SplineSet
101 544 m 1
 40 546 l 1
 31 552 l 1
 25 561 l 1
 23 572 l 1
 25 583 l 1
 31 592 l 1
 40 598 l 1
 51 600 l 1
 364 600 l 1
 448 573 l 1
 459 566 l 1
 485 540 l 1
 516 481 l 1
 519 468 l 1
 519 417 l 1
 516 404 l 1
 490 352 l 1
 459 319 l 1
 448 312 l 1
 375 288 l 1
 387 272 l 1
 463 96 l 1
 480 82 l 1
 489 91 l 1
 491 116 l 1
 497 126 l 1
 506 132 l 1
 517 134 l 1
 528 132 l 1
 537 126 l 1
 543 116 l 1
 545 106 l 1
 543 69 l 1
 510 7 l 1
 491 0 l 1
 429 2 l 1
 394 34 l 1
 387 46 l 1
 336 225 l 1
 315 266 l 1
 277 285 l 1
 182 285 l 1
 182 56 l 1
 232 56 l 1
 243 54 l 1
 252 48 l 1
 258 39 l 1
 260 28 l 1
 258 17 l 1
 252 8 l 1
 243 2 l 1
 232 0 l 1
 51 0 l 1
 40 2 l 1
 31 8 l 1
 25 17 l 1
 23 28 l 1
 25 39 l 1
 31 48 l 1
 40 54 l 1
 51 56 l 1
 101 56 l 1
 101 544 l 1
182 544 m 1
 182 341 l 1
 355 341 l 1
 397 362 l 1
 416 381 l 1
 437 423 l 1
 437 462 l 1
 416 504 l 1
 397 523 l 1
 355 544 l 1
 182 544 l 1
EndSplineSet
Validated: 1
EndChar

StartChar: S
Encoding: 83 83 47
Width: 517
VWidth: 0
Flags: W
HStem: 1 55<223 319> 544 55<197 300.318>
VStem: 49 56<454 483> 411 56<117 198>
LayerCount: 2
Back
Fore
SplineSet
49 442 m 1
 51 505 l 1
 109 566 l 1
 120 573 l 1
 197 599 l 1
 284 600 l 1
 370 573 l 1
 381 566 l 1
 401 546 l 1
 418 591 l 1
 427 597 l 1
 438 600 l 1
 449 598 l 1
 459 592 l 1
 465 583 l 1
 467 572 l 1
 467 417 l 1
 465 406 l 1
 459 396 l 1
 449 390 l 1
 438 389 l 1
 427 391 l 1
 418 398 l 1
 389 479 l 1
 346 522 l 1
 279 544 l 1
 211 544 l 1
 144 522 l 1
 105 483 l 1
 105 454 l 1
 145 414 l 1
 191 391 l 1
 348 338 l 1
 400 312 l 1
 433 281 l 1
 464 222 l 1
 467 209 l 1
 467 106 l 1
 465 95 l 1
 459 86 l 1
 407 34 l 1
 396 27 l 1
 319 1 l 1
 223 1 l 1
 146 27 l 1
 135 34 l 1
 115 54 l 1
 98 9 l 1
 89 3 l 1
 78 0 l 1
 67 2 l 1
 57 8 l 1
 51 17 l 1
 49 28 l 1
 49 183 l 1
 51 194 l 1
 57 204 l 1
 67 210 l 1
 78 211 l 1
 89 209 l 1
 98 202 l 1
 127 121 l 1
 170 78 l 1
 237 56 l 1
 305 56 l 1
 372 78 l 1
 411 117 l 1
 411 198 l 1
 371 238 l 1
 325 261 l 1
 171 312 l 1
 116 340 l 1
 78 378 l 1
 51 432 l 1
 49 442 l 1
EndSplineSet
Validated: 1
EndChar

StartChar: T
Encoding: 84 84 48
Width: 491
VWidth: 0
Flags: W
HStem: 0 56<144 204 286 346> 544 56<100 204 286 390>
VStem: 204 82<56 544> 412 55<417 454>
LayerCount: 2
Back
Fore
SplineSet
100 544 m 1
 75 402 l 1
 59 390 l 1
 38 391 l 1
 25 406 l 1
 23 417 l 1
 23 572 l 1
 25 583 l 1
 31 592 l 1
 40 598 l 1
 51 600 l 1
 439 600 l 1
 450 598 l 1
 459 592 l 1
 465 583 l 1
 467 417 l 1
 460 398 l 1
 442 389 l 1
 422 394 l 1
 412 412 l 1
 390 544 l 1
 286 544 l 1
 286 56 l 1
 336 56 l 1
 346 54 l 1
 355 48 l 1
 361 39 l 1
 364 28 l 1
 361 17 l 1
 355 8 l 1
 346 2 l 1
 336 0 l 1
 154 0 l 1
 144 2 l 1
 134 8 l 1
 128 17 l 1
 126 28 l 1
 128 39 l 1
 134 48 l 1
 144 54 l 1
 204 56 l 1
 204 544 l 1
 100 544 l 1
EndSplineSet
Validated: 1
EndChar

StartChar: U
Encoding: 85 85 49
Width: 621
VWidth: 0
Flags: W
HStem: 0 56<291 345> 544 56<40 101 183 243 403 463 519 580>
VStem: 101 82<166.682 544> 463 55<175 544>
LayerCount: 2
Back
Fore
SplineSet
101 544 m 1
 40 546 l 1
 31 552 l 1
 25 561 l 1
 23 572 l 1
 25 583 l 1
 31 592 l 1
 40 598 l 1
 51 600 l 1
 232 600 l 1
 243 598 l 1
 252 592 l 1
 258 583 l 1
 260 572 l 1
 258 561 l 1
 252 552 l 1
 243 546 l 1
 183 544 l 1
 183 188 l 1
 205 121 l 1
 249 77 l 1
 291 56 l 1
 331 56 l 1
 398 78 l 1
 441 121 l 1
 463 188 l 1
 463 544 l 1
 403 546 l 1
 394 552 l 1
 388 561 l 1
 386 572 l 1
 388 583 l 1
 394 592 l 1
 403 598 l 1
 414 600 l 1
 569 600 l 1
 580 598 l 1
 589 592 l 1
 595 583 l 1
 597 572 l 1
 595 561 l 1
 589 552 l 1
 580 546 l 1
 519 544 l 1
 518 175 l 1
 492 97 l 1
 485 86 l 1
 433 34 l 1
 422 27 l 1
 345 1 l 1
 282 0 l 1
 198 27 l 1
 187 34 l 1
 135 86 l 1
 128 97 l 1
 101 183 l 1
 101 544 l 1
EndSplineSet
Validated: 1
EndChar

StartChar: V
Encoding: 86 86 50
Width: 517
VWidth: 0
Flags: W
HStem: 0 21G<245 267> 544 56<14 56 141 191 325 400 460 502>
LayerCount: 2
Back
Fore
SplineSet
56 544 m 1
 25 544 l 1
 14 546 l 1
 5 552 l 1
 -1 561 l 1
 -3 572 l 1
 -1 583 l 1
 5 592 l 1
 14 598 l 1
 25 600 l 1
 180 600 l 1
 191 598 l 1
 200 592 l 1
 206 583 l 1
 208 572 l 1
 206 561 l 1
 200 552 l 1
 191 546 l 1
 141 544 l 1
 271 155 l 1
 400 544 l 1
 325 546 l 1
 316 552 l 1
 310 561 l 1
 308 572 l 1
 310 583 l 1
 316 592 l 1
 325 598 l 1
 336 600 l 1
 491 600 l 1
 502 598 l 1
 511 592 l 1
 517 583 l 1
 519 572 l 1
 517 561 l 1
 511 552 l 1
 502 546 l 1
 491 544 l 1
 460 544 l 1
 285 19 l 1
 279 10 l 1
 267 1 l 1
 256 0 l 1
 245 3 l 1
 237 10 l 1
 231 19 l 1
 56 544 l 1
EndSplineSet
Validated: 1
EndChar

StartChar: W
Encoding: 87 87 51
Width: 623
VWidth: 0
Flags: W
HStem: 0 21G<202 223 399 420> 544 56<15 81 163 218 430 484 541 607>
LayerCount: 2
Back
Fore
SplineSet
81 544 m 1
 15 546 l 1
 6 552 l 1
 0 561 l 1
 -2 572 l 1
 0 583 l 1
 6 592 l 1
 15 598 l 1
 26 600 l 1
 207 600 l 1
 218 598 l 1
 227 592 l 1
 233 583 l 1
 235 572 l 1
 233 561 l 1
 227 552 l 1
 218 546 l 1
 163 544 l 1
 220 243 l 1
 284 578 l 1
 288 588 l 1
 295 595 l 1
 305 599 l 1
 324 596 l 1
 343 599 l 1
 353 595 l 1
 360 587 l 1
 364 577 l 1
 427 243 l 1
 484 544 l 1
 430 546 l 1
 421 552 l 1
 415 561 l 1
 413 572 l 1
 415 583 l 1
 421 592 l 1
 430 598 l 1
 441 600 l 1
 596 600 l 1
 607 598 l 1
 616 592 l 1
 622 583 l 1
 624 572 l 1
 622 561 l 1
 616 552 l 1
 607 546 l 1
 541 544 l 1
 442 22 l 1
 438 12 l 1
 430 5 l 1
 420 1 l 1
 409 0 l 1
 399 5 l 1
 391 12 l 1
 387 22 l 1
 311 422 l 1
 235 22 l 1
 231 12 l 1
 223 5 l 1
 213 0 l 1
 202 1 l 1
 192 5 l 1
 184 13 l 1
 180 23 l 1
 81 544 l 1
EndSplineSet
Validated: 1
EndChar

StartChar: X
Encoding: 88 88 52
Width: 517
VWidth: 0
Flags: W
HStem: 0 56<14 62 129 191 325 363 455 502> 544 56<14 61 153 191 325 387 454 502>
LayerCount: 2
Back
Fore
SplineSet
62 56 m 1
 218 290 l 1
 61 544 l 1
 25 544 l 1
 14 546 l 1
 5 552 l 1
 -1 561 l 1
 -3 572 l 1
 -1 583 l 1
 5 592 l 1
 14 598 l 1
 25 600 l 1
 180 600 l 1
 191 598 l 1
 200 592 l 1
 206 583 l 1
 208 572 l 1
 206 561 l 1
 200 552 l 1
 191 546 l 1
 180 544 l 1
 153 544 l 1
 266 362 l 1
 387 544 l 1
 336 544 l 1
 325 546 l 1
 316 552 l 1
 310 561 l 1
 308 572 l 1
 310 583 l 1
 316 592 l 1
 325 598 l 1
 336 600 l 1
 491 600 l 1
 502 598 l 1
 511 592 l 1
 517 583 l 1
 519 572 l 1
 517 561 l 1
 511 552 l 1
 502 546 l 1
 491 544 l 1
 454 544 l 1
 298 310 l 1
 455 56 l 1
 491 56 l 1
 502 54 l 1
 511 48 l 1
 517 39 l 1
 519 28 l 1
 517 17 l 1
 511 8 l 1
 502 2 l 1
 491 0 l 1
 336 0 l 1
 325 2 l 1
 316 8 l 1
 310 17 l 1
 308 28 l 1
 310 39 l 1
 316 48 l 1
 325 54 l 1
 336 56 l 1
 363 56 l 1
 250 238 l 1
 129 56 l 1
 180 56 l 1
 191 54 l 1
 200 48 l 1
 206 39 l 1
 208 28 l 1
 206 17 l 1
 200 8 l 1
 191 2 l 1
 180 0 l 1
 25 0 l 1
 14 2 l 1
 5 8 l 1
 -1 17 l 1
 -3 28 l 1
 -1 39 l 1
 5 48 l 1
 14 54 l 1
 25 56 l 1
 62 56 l 1
EndSplineSet
Validated: 1
EndChar

StartChar: Y
Encoding: 89 89 53
Width: 543
VWidth: 0
Flags: W
HStem: 0 56<170 230 312 372> 544 56<14 61 154 191 351 414 481 528>
VStem: 230 82<56 279>
LayerCount: 2
Back
Fore
SplineSet
61 544 m 1
 25 544 l 1
 14 546 l 1
 5 552 l 1
 -1 561 l 1
 -3 572 l 1
 -1 583 l 1
 5 592 l 1
 14 598 l 1
 25 600 l 1
 180 600 l 1
 191 598 l 1
 200 592 l 1
 206 583 l 1
 208 572 l 1
 206 561 l 1
 200 552 l 1
 191 546 l 1
 180 544 l 1
 154 544 l 1
 284 339 l 1
 414 544 l 1
 351 546 l 1
 342 552 l 1
 336 561 l 1
 334 572 l 1
 336 583 l 1
 342 592 l 1
 351 598 l 1
 362 600 l 1
 517 600 l 1
 528 598 l 1
 537 592 l 1
 543 583 l 1
 545 572 l 1
 543 561 l 1
 537 552 l 1
 528 546 l 1
 481 544 l 1
 312 279 l 1
 312 56 l 1
 362 56 l 1
 372 54 l 1
 381 48 l 1
 387 39 l 1
 390 28 l 1
 387 17 l 1
 381 8 l 1
 372 2 l 1
 362 0 l 1
 180 0 l 1
 170 2 l 1
 160 8 l 1
 154 17 l 1
 152 28 l 1
 154 39 l 1
 160 48 l 1
 170 54 l 1
 230 56 l 1
 230 279 l 1
 61 544 l 1
EndSplineSet
Validated: 1
EndChar

StartChar: Z
Encoding: 90 90 54
Width: 517
VWidth: 0
Flags: W
HStem: 0 56<153 390> 544 56<126 363>
VStem: 412 55<146 183>
LayerCount: 2
Back
Fore
SplineSet
126 544 m 1
 101 402 l 1
 85 390 l 1
 64 391 l 1
 51 406 l 1
 49 417 l 1
 49 572 l 1
 51 583 l 1
 57 592 l 1
 66 598 l 1
 77 600 l 1
 439 600 l 1
 450 598 l 1
 462 588 l 1
 467 572 l 1
 463 557 l 1
 153 56 l 1
 390 56 l 1
 412 188 l 1
 422 206 l 1
 442 211 l 1
 460 202 l 1
 467 183 l 1
 467 28 l 1
 465 17 l 1
 459 8 l 1
 450 2 l 1
 439 0 l 1
 77 0 l 1
 66 2 l 1
 54 12 l 1
 49 28 l 1
 53 43 l 1
 363 544 l 1
 126 544 l 1
EndSplineSet
Validated: 1
EndChar

StartChar: bracketleft
Encoding: 91 91 55
Width: 363
VWidth: 0
Flags: W
HStem: -181 56<157 295> 650 54<157 295>
VStem: 75 82<-125 648>
LayerCount: 2
Back
Fore
SplineSet
75 676 m 1
 77 686 l 1
 83 695 l 1
 93 701 l 1
 103 704 l 1
 285 704 l 1
 295 701 l 1
 304 695 l 1
 310 686 l 1
 313 676 l 1
 310 665 l 1
 304 656 l 1
 295 650 l 1
 157 648 l 1
 157 -125 l 1
 295 -127 l 1
 304 -134 l 1
 310 -143 l 1
 313 -153 l 1
 310 -164 l 1
 304 -173 l 1
 295 -179 l 1
 285 -181 l 1
 103 -181 l 1
 93 -179 l 1
 83 -173 l 1
 77 -164 l 1
 75 -153 l 1
 75 676 l 1
EndSplineSet
Validated: 1
EndChar

StartChar: bracketright
Encoding: 93 93 56
Width: 363
VWidth: 0
Flags: W
HStem: -181 54<67 205> 648 56<67 205>
VStem: 205 82<-125 648>
LayerCount: 2
Back
Fore
SplineSet
205 648 m 1
 67 650 l 1
 58 656 l 1
 52 665 l 1
 49 676 l 1
 52 686 l 1
 58 695 l 1
 67 701 l 1
 77 704 l 1
 259 704 l 1
 269 701 l 1
 279 695 l 1
 285 686 l 1
 287 676 l 1
 287 -153 l 1
 285 -164 l 1
 279 -173 l 1
 269 -179 l 1
 259 -181 l 1
 77 -181 l 1
 67 -179 l 1
 58 -173 l 1
 52 -164 l 1
 49 -153 l 1
 52 -143 l 1
 58 -134 l 1
 67 -127 l 1
 205 -125 l 1
 205 648 l 1
EndSplineSet
Validated: 1
EndChar

StartChar: grave
Encoding: 96 96 57
Width: 311
VWidth: 0
Flags: W
HStem: 392 206
VStem: 52 207
LayerCount: 2
Back
Fore
SplineSet
57 566 m 1
 92 598 l 1
 106 600 l 1
 123 592 l 1
 254 434 l 1
 259 425 l 1
 261 414 l 1
 254 399 l 1
 246 392 l 1
 235 389 l 1
 220 392 l 1
 59 525 l 1
 52 534 l 1
 49 545 l 1
 51 556 l 1
 57 566 l 1
EndSplineSet
Validated: 1
EndChar

StartChar: a
Encoding: 97 97 58
Width: 517
VWidth: 0
Flags: W
HStem: 0 56<187 251> 363 56<187 277>
VStem: 49 81<112 151> 334 81<117 232 299 300>
LayerCount: 2
Back
Fore
SplineSet
155 347 m 1
 154 302 l 1
 148 293 l 1
 139 287 l 1
 102 285 l 1
 92 287 l 1
 83 293 l 1
 77 302 l 1
 74 339 l 1
 77 350 l 1
 83 359 l 1
 116 390 l 1
 168 416 l 1
 180 419 l 1
 284 419 l 1
 296 416 l 1
 348 390 l 1
 381 359 l 1
 412 300 l 1
 415 287 l 1
 415 112 l 1
 436 70 l 1
 451 56 l 1
 476 54 l 1
 485 48 l 1
 491 39 l 1
 493 28 l 1
 491 17 l 1
 485 8 l 1
 476 2 l 1
 465 0 l 1
 429 2 l 1
 368 34 l 1
 354 58 l 1
 322 29 l 1
 270 3 l 1
 258 0 l 1
 178 0 l 1
 84 33 l 1
 52 93 l 1
 49 106 l 1
 49 158 l 1
 52 170 l 1
 84 230 l 1
 176 263 l 1
 322 287 l 1
 334 299 l 1
 334 327 l 1
 319 342 l 1
 277 363 l 1
 187 363 l 1
 155 347 l 1
189 208 m 1
 149 188 l 1
 130 151 l 1
 130 112 l 1
 149 75 l 1
 187 56 l 1
 251 56 l 1
 293 77 l 1
 334 117 l 1
 334 232 l 1
 189 208 l 1
EndSplineSet
Validated: 1
EndChar

StartChar: b
Encoding: 98 98 59
Width: 544
VWidth: 0
Flags: W
HStem: 0 56<265 303> 363 56<265 303> 544 56<40 101>
VStem: 101 81<117 301 381 544> 411 81<175 244>
LayerCount: 2
Back
Fore
SplineSet
101 544 m 1
 40 546 l 1
 31 552 l 1
 25 561 l 1
 23 572 l 1
 25 583 l 1
 31 592 l 1
 40 598 l 1
 51 600 l 1
 154 600 l 1
 165 598 l 1
 174 592 l 1
 180 583 l 1
 182 572 l 1
 182 381 l 1
 194 390 l 1
 246 416 l 1
 258 419 l 1
 319 417 l 1
 396 391 l 1
 407 385 l 1
 459 333 l 1
 466 322 l 1
 492 244 l 1
 492 175 l 1
 466 97 l 1
 459 86 l 1
 407 34 l 1
 396 27 l 1
 310 0 l 1
 258 0 l 1
 246 3 l 1
 194 29 l 1
 182 38 l 1
 180 17 l 1
 174 8 l 1
 165 2 l 1
 154 0 l 1
 142 4 l 1
 129 0 l 1
 118 2 l 1
 109 8 l 1
 103 17 l 1
 101 28 l 1
 101 544 l 1
303 56 m 1
 345 77 l 1
 389 121 l 1
 411 188 l 1
 411 231 l 1
 389 298 l 1
 345 342 l 1
 303 363 l 1
 265 363 l 1
 223 342 l 1
 182 301 l 1
 182 117 l 1
 223 77 l 1
 265 56 l 1
 303 56 l 1
EndSplineSet
Validated: 1
EndChar

StartChar: c
Encoding: 99 99 60
Width: 491
VWidth: 0
Flags: W
HStem: 1 55<239 300.318> 363 55<239 303>
VStem: 49 82<166.682 244>
LayerCount: 2
Back
Fore
SplineSet
228 418 m 1
 310 419 l 1
 322 416 l 1
 381 385 l 1
 433 333 l 1
 439 324 l 1
 441 313 l 1
 441 287 l 1
 439 276 l 1
 433 267 l 1
 407 241 l 1
 398 235 l 1
 388 233 l 1
 377 235 l 1
 368 241 l 1
 336 276 l 1
 334 287 l 1
 336 298 l 1
 361 326 l 1
 345 342 l 1
 303 363 l 1
 239 363 l 1
 197 342 l 1
 153 298 l 1
 131 231 l 1
 131 188 l 1
 153 121 l 1
 197 77 l 1
 239 56 l 1
 279 56 l 5
 346 78 l 1
 403 132 l 1
 413 134 l 1
 424 132 l 1
 433 126 l 1
 439 116 l 1
 441 106 l 1
 439 95 l 1
 433 86 l 1
 381 34 l 1
 370 27 l 1
 284 0 l 1
 223 1 l 1
 146 27 l 1
 135 34 l 1
 83 86 l 1
 76 97 l 1
 49 183 l 1
 50 244 l 1
 76 322 l 1
 83 333 l 1
 135 385 l 1
 146 391 l 1
 228 418 l 1
EndSplineSet
Validated: 1
EndChar

StartChar: d
Encoding: 100 100 61
Width: 543
VWidth: 0
Flags: W
HStem: 0 56<239 277 441 502> 363 55<239 277> 544 56<299 360>
VStem: 49 82<166.682 244> 360 81<117 301 381 544>
LayerCount: 2
Back
Fore
SplineSet
228 418 m 1
 284 419 l 1
 296 416 l 1
 348 390 l 1
 360 381 l 1
 360 544 l 1
 299 546 l 1
 290 552 l 1
 284 561 l 1
 282 572 l 1
 284 583 l 1
 290 592 l 1
 299 598 l 1
 310 600 l 1
 413 600 l 1
 424 598 l 1
 433 592 l 1
 439 583 l 1
 441 572 l 1
 441 56 l 1
 491 56 l 1
 502 54 l 1
 511 48 l 1
 517 39 l 1
 519 28 l 1
 517 17 l 1
 511 8 l 1
 502 2 l 1
 491 0 l 1
 388 0 l 1
 377 2 l 1
 368 8 l 1
 362 17 l 1
 360 38 l 1
 348 29 l 1
 296 3 l 1
 284 0 l 1
 230 0 l 1
 146 27 l 1
 135 34 l 1
 83 86 l 1
 76 97 l 1
 49 183 l 1
 50 244 l 1
 76 322 l 1
 83 333 l 1
 135 385 l 1
 146 391 l 1
 228 418 l 1
360 301 m 1
 319 342 l 1
 277 363 l 1
 239 363 l 1
 197 342 l 1
 153 298 l 1
 131 231 l 1
 131 188 l 1
 153 121 l 1
 197 77 l 1
 239 56 l 1
 277 56 l 1
 319 77 l 1
 360 117 l 1
 360 301 l 1
EndSplineSet
Validated: 1
EndChar

StartChar: e
Encoding: 101 101 62
Width: 491
VWidth: 0
Flags: W
HStem: 1 55<239 300.318> 207 56<141 360> 363 55<239 303>
VStem: 49 82<166.682 207> 360 81<263 300>
LayerCount: 2
Back
Fore
SplineSet
231 418 m 1
 310 419 l 1
 322 416 l 1
 374 390 l 1
 413 351 l 1
 438 300 l 1
 441 287 l 1
 439 225 l 1
 433 215 l 1
 424 209 l 1
 413 207 l 1
 131 207 l 1
 131 188 l 1
 153 121 l 1
 197 77 l 1
 239 56 l 1
 279 56 l 1
 346 78 l 1
 403 132 l 1
 413 134 l 1
 424 132 l 1
 433 126 l 1
 439 116 l 1
 441 106 l 1
 439 95 l 1
 381 34 l 1
 370 27 l 1
 284 0 l 1
 223 1 l 1
 146 27 l 1
 135 34 l 1
 83 86 l 1
 76 97 l 1
 49 183 l 1
 50 244 l 1
 76 322 l 1
 83 333 l 1
 135 385 l 1
 146 391 l 1
 231 418 l 1
239 363 m 1
 197 342 l 1
 153 298 l 1
 141 263 l 1
 360 263 l 1
 360 306 l 1
 341 344 l 1
 303 363 l 1
 239 363 l 1
EndSplineSet
Validated: 1
EndChar

StartChar: f
Encoding: 102 102 63
Width: 337
VWidth: 0
Flags: W
HStem: 0 56<41 101 183 244> 363 56<41 101 183 269> 580 20G<196 269>
VStem: 101 82<56 363 419 488>
LayerCount: 2
Back
Fore
SplineSet
101 419 m 1
 101 494 l 1
 104 507 l 1
 135 566 l 1
 196 598 l 1
 259 600 l 1
 269 598 l 1
 279 592 l 1
 304 566 l 1
 310 557 l 1
 313 546 l 1
 310 509 l 1
 279 474 l 1
 269 468 l 1
 259 466 l 1
 248 468 l 1
 213 500 l 1
 207 509 l 1
 205 520 l 1
 210 536 l 1
 204 530 l 1
 183 488 l 1
 183 419 l 1
 269 417 l 1
 279 410 l 1
 285 401 l 1
 287 391 l 1
 285 380 l 1
 279 371 l 1
 269 365 l 1
 183 363 l 1
 183 56 l 1
 233 56 l 1
 244 54 l 1
 253 48 l 1
 259 39 l 1
 261 28 l 1
 259 17 l 1
 253 8 l 1
 244 2 l 1
 233 0 l 1
 51 0 l 1
 41 2 l 1
 32 8 l 1
 26 17 l 1
 23 28 l 1
 26 39 l 1
 32 48 l 1
 41 54 l 1
 101 56 l 1
 101 363 l 1
 41 365 l 1
 32 371 l 1
 26 380 l 1
 23 391 l 1
 26 401 l 1
 32 410 l 1
 41 417 l 1
 101 419 l 1
EndSplineSet
Validated: 1
EndChar

StartChar: g
Encoding: 103 103 64
Width: 491
VWidth: 0
Flags: W
HStem: -181 56<136.95 327.05> -26 82<163.682 326.318> 104 56<213 251> 363 56<213 251>
VStem: 74 82<223 300> 308 82<223 300>
LayerCount: 2
Back
Fore
SplineSet
49 80 m 1
 52 118 l 1
 77 170 l 1
 94 189 l 1
 77 223 l 1
 74 235 l 1
 74 287 l 1
 77 300 l 1
 103 351 l 1
 136 386 l 1
 204 419 l 1
 258 419 l 1
 270 416 l 1
 322 390 l 1
 336 378 l 1
 349 390 l 1
 401 416 l 1
 412 419 l 1
 423 417 l 1
 433 411 l 1
 439 402 l 1
 441 391 l 1
 441 365 l 1
 439 354 l 1
 433 345 l 1
 424 339 l 1
 413 337 l 1
 373 337 l 1
 370 333 l 1
 387 300 l 1
 390 287 l 1
 390 235 l 1
 387 223 l 1
 361 171 l 1
 330 138 l 1
 270 107 l 1
 258 104 l 1
 206 104 l 1
 194 107 l 1
 142 132 l 1
 128 144 l 1
 105 99 l 1
 105 91 l 1
 118 78 l 1
 185 56 l 1
 310 56 l 1
 396 29 l 1
 406 23 l 1
 439 -39 l 1
 441 -76 l 1
 438 -88 l 1
 406 -149 l 1
 396 -154 l 1
 310 -181 l 1
 154 -181 l 1
 68 -154 l 1
 58 -149 l 1
 26 -88 l 1
 23 -76 l 1
 26 -37 l 1
 52 15 l 1
 58 23 l 1
 70 30 l 1
 51 69 l 1
 49 80 l 1
175 344 m 1
 156 306 l 1
 156 216 l 1
 175 178 l 1
 213 160 l 1
 251 160 l 1
 289 178 l 1
 308 216 l 1
 308 306 l 1
 289 344 l 1
 251 363 l 1
 213 363 l 1
 175 344 l 1
385 -61 m 1
 372 -48 l 1
 305 -26 l 1
 180 -26 l 1
 128 -10 l 1
 96 -21 l 1
 79 -56 l 1
 79 -69 l 1
 96 -105 l 1
 159 -125 l 1
 305 -125 l 1
 368 -105 l 1
 385 -69 l 1
 385 -61 l 1
EndSplineSet
Validated: 1
EndChar

StartChar: h
Encoding: 104 104 65
Width: 569
VWidth: 0
Flags: W
HStem: 0 56<40 101 182 243 325 386 467 528> 363 56<289 329> 544 56<40 101>
VStem: 101 81<56 301 381 544> 386 81<56 306>
LayerCount: 2
Back
Fore
SplineSet
101 544 m 1
 40 546 l 1
 31 552 l 1
 25 561 l 1
 23 572 l 1
 25 583 l 1
 31 592 l 1
 40 598 l 1
 51 600 l 1
 154 600 l 1
 165 598 l 1
 174 592 l 1
 180 583 l 1
 182 572 l 1
 182 381 l 1
 197 391 l 1
 284 419 l 1
 345 417 l 1
 432 386 l 1
 464 325 l 1
 467 313 l 1
 467 56 l 1
 517 56 l 1
 528 54 l 1
 537 48 l 1
 543 39 l 1
 545 28 l 1
 543 17 l 1
 537 8 l 1
 528 2 l 1
 517 0 l 1
 336 0 l 1
 325 2 l 1
 316 8 l 1
 310 17 l 1
 308 28 l 1
 310 39 l 1
 316 48 l 1
 325 54 l 1
 336 56 l 1
 386 56 l 1
 386 306 l 1
 367 344 l 1
 329 363 l 1
 289 363 l 1
 221 340 l 1
 182 301 l 1
 182 56 l 1
 232 56 l 1
 243 54 l 1
 252 48 l 1
 258 39 l 1
 260 28 l 1
 258 17 l 1
 252 8 l 1
 243 2 l 1
 232 0 l 1
 51 0 l 1
 40 2 l 1
 31 8 l 1
 25 17 l 1
 23 28 l 1
 25 39 l 1
 31 48 l 1
 40 54 l 1
 51 56 l 1
 101 56 l 1
 101 544 l 1
EndSplineSet
Validated: 1
EndChar

StartChar: i
Encoding: 105 105 66
Width: 286
VWidth: 0
Flags: W
HStem: 0 56<42 102 184 244> 363 56<42 102> 580 20G<119 141>
VStem: 102 82<56 363>
LayerCount: 2
Back
Fore
SplineSet
102 363 m 1
 42 365 l 1
 32 371 l 1
 26 380 l 1
 24 391 l 1
 26 401 l 1
 32 410 l 1
 42 417 l 1
 52 419 l 1
 156 419 l 1
 167 417 l 1
 176 410 l 1
 182 401 l 1
 184 391 l 1
 184 56 l 1
 234 56 l 1
 244 54 l 1
 253 48 l 1
 259 39 l 1
 262 28 l 1
 259 17 l 1
 253 8 l 1
 244 2 l 1
 234 0 l 1
 52 0 l 1
 42 2 l 1
 32 8 l 1
 26 17 l 1
 24 28 l 1
 26 39 l 1
 32 48 l 1
 42 54 l 1
 102 56 l 1
 102 363 l 1
84 566 m 1
 119 598 l 1
 130 600 l 1
 141 598 l 1
 150 592 l 1
 182 557 l 1
 184 546 l 1
 182 535 l 1
 150 500 l 1
 141 494 l 1
 130 492 l 1
 119 494 l 1
 84 526 l 1
 78 535 l 1
 76 546 l 1
 78 557 l 1
 84 566 l 1
EndSplineSet
Validated: 1
EndChar

StartChar: j
Encoding: 106 106 67
Width: 286
VWidth: 0
Flags: W
HStem: -181 21G<42 117> 363 56<67 128> 580 20G<145 167>
VStem: 128 82<-69 363>
LayerCount: 2
Back
Fore
SplineSet
101 -117 m 1
 107 -111 l 1
 128 -69 l 1
 128 363 l 1
 67 365 l 1
 58 371 l 1
 52 380 l 1
 50 391 l 1
 52 401 l 1
 58 410 l 1
 67 417 l 1
 182 419 l 1
 193 417 l 1
 202 410 l 1
 208 401 l 1
 210 391 l 1
 210 -76 l 1
 207 -88 l 1
 176 -147 l 1
 117 -178 l 1
 104 -181 l 1
 52 -181 l 1
 42 -179 l 1
 32 -173 l 1
 1 -138 l 1
 -2 -102 l 1
 1 -91 l 1
 7 -82 l 1
 32 -56 l 1
 42 -50 l 1
 52 -48 l 1
 63 -50 l 1
 72 -56 l 1
 98 -82 l 1
 104 -91 l 1
 106 -102 l 1
 101 -117 l 1
110 566 m 1
 145 598 l 1
 156 600 l 1
 167 598 l 1
 176 592 l 1
 208 557 l 1
 210 546 l 1
 208 535 l 1
 176 500 l 1
 167 494 l 1
 156 492 l 1
 145 494 l 1
 136 500 l 1
 104 535 l 1
 102 546 l 1
 104 557 l 1
 110 566 l 1
EndSplineSet
Validated: 1
EndChar

StartChar: k
Encoding: 107 107 68
Width: 543
VWidth: 0
Flags: W
HStem: 0 56<40 101 182 243 325 358 453 502> 363 56<425 502> 544 56<40 101>
VStem: 101 81<56 120 199 544>
LayerCount: 2
Back
Fore
SplineSet
101 544 m 1
 40 546 l 1
 31 552 l 1
 25 561 l 1
 23 572 l 1
 25 583 l 1
 31 592 l 1
 40 598 l 1
 51 600 l 1
 154 600 l 1
 165 598 l 1
 174 592 l 1
 180 583 l 1
 182 572 l 1
 182 199 l 1
 346 363 l 1
 325 365 l 1
 316 371 l 1
 310 380 l 1
 308 391 l 1
 310 401 l 1
 316 410 l 1
 325 417 l 1
 491 419 l 1
 502 417 l 1
 511 410 l 1
 517 401 l 1
 519 391 l 1
 517 380 l 1
 511 371 l 1
 502 365 l 1
 491 363 l 1
 425 363 l 1
 310 247 l 1
 453 56 l 1
 491 56 l 1
 502 54 l 1
 511 48 l 1
 517 39 l 1
 519 28 l 1
 517 17 l 1
 511 8 l 1
 502 2 l 1
 491 0 l 1
 336 0 l 1
 325 2 l 1
 316 8 l 1
 310 17 l 1
 308 28 l 1
 310 39 l 1
 316 48 l 1
 325 54 l 1
 336 56 l 1
 358 56 l 1
 255 193 l 1
 182 120 l 1
 182 56 l 1
 232 56 l 1
 243 54 l 1
 252 48 l 1
 258 39 l 1
 260 28 l 1
 258 17 l 1
 252 8 l 1
 243 2 l 1
 232 0 l 1
 51 0 l 1
 40 2 l 1
 31 8 l 1
 25 17 l 1
 23 28 l 1
 25 39 l 1
 31 48 l 1
 40 54 l 1
 51 56 l 1
 101 56 l 1
 101 544 l 1
EndSplineSet
Validated: 1
EndChar

StartChar: l
Encoding: 108 108 69
Width: 286
VWidth: 0
Flags: W
HStem: 0 56<42 102 184 244> 544 56<42 102>
VStem: 102 82<56 544>
LayerCount: 2
Back
Fore
SplineSet
102 544 m 1
 42 546 l 1
 32 552 l 1
 26 561 l 1
 24 572 l 1
 26 583 l 1
 32 592 l 1
 42 598 l 1
 52 600 l 1
 156 600 l 1
 167 598 l 1
 176 592 l 1
 182 583 l 1
 184 572 l 1
 184 56 l 1
 234 56 l 1
 244 54 l 1
 253 48 l 1
 259 39 l 1
 262 28 l 1
 259 17 l 1
 253 8 l 1
 244 2 l 1
 234 0 l 1
 52 0 l 1
 42 2 l 1
 32 8 l 1
 26 17 l 1
 24 28 l 1
 26 39 l 1
 32 48 l 1
 42 54 l 1
 102 56 l 1
 102 544 l 1
EndSplineSet
Validated: 1
EndChar

StartChar: m
Encoding: 109 109 70
Width: 855
VWidth: 0
Flags: W
HStem: 0 56<41 101 183 243 326 386 468 528 611 671 753 813> 363 56<41 101 289 330 574 615>
VStem: 101 82<56 301> 386 82<56 301> 671 82<56 306>
CounterMasks: 1 38
LayerCount: 2
Back
Fore
SplineSet
101 363 m 1
 41 365 l 1
 32 371 l 1
 25 380 l 1
 23 391 l 1
 25 401 l 1
 32 410 l 1
 41 417 l 1
 51 419 l 1
 155 419 l 1
 166 417 l 1
 175 410 l 1
 181 401 l 1
 183 381 l 1
 198 391 l 1
 276 417 l 1
 338 419 l 1
 423 391 l 1
 432 386 l 1
 448 360 l 1
 472 385 l 1
 483 391 l 1
 569 419 l 1
 623 419 l 1
 708 391 l 1
 717 386 l 1
 724 377 l 1
 750 325 l 1
 753 313 l 1
 753 56 l 1
 813 54 l 1
 822 48 l 1
 828 39 l 1
 831 28 l 1
 828 17 l 1
 822 8 l 1
 813 2 l 1
 803 0 l 1
 621 0 l 1
 611 2 l 1
 601 8 l 1
 595 17 l 1
 593 28 l 1
 595 39 l 1
 601 48 l 1
 611 54 l 1
 621 56 l 1
 671 56 l 1
 671 306 l 1
 652 344 l 1
 615 363 l 1
 574 363 l 1
 507 340 l 1
 468 301 l 1
 468 56 l 1
 518 56 l 1
 528 54 l 1
 537 48 l 1
 543 39 l 1
 546 28 l 1
 543 17 l 1
 537 8 l 1
 528 2 l 1
 518 0 l 1
 336 0 l 1
 326 2 l 1
 316 8 l 1
 310 17 l 1
 308 28 l 1
 310 39 l 1
 316 48 l 1
 326 54 l 1
 336 56 l 1
 386 56 l 1
 386 306 l 1
 367 344 l 1
 330 363 l 1
 289 363 l 1
 222 340 l 1
 183 301 l 1
 183 56 l 1
 233 56 l 1
 243 54 l 1
 252 48 l 1
 259 39 l 1
 261 28 l 1
 259 17 l 1
 252 8 l 1
 243 2 l 1
 233 0 l 1
 51 0 l 1
 41 2 l 1
 32 8 l 1
 25 17 l 1
 23 28 l 1
 25 39 l 1
 32 48 l 1
 41 54 l 1
 51 56 l 1
 101 56 l 1
 101 363 l 1
EndSplineSet
Validated: 1
EndChar

StartChar: n
Encoding: 110 110 71
Width: 569
VWidth: 0
Flags: W
HStem: 0 56<40 101 182 243 325 386 467 528> 363 56<40 101 289 329>
VStem: 101 81<56 301> 386 81<56 306>
LayerCount: 2
Back
Fore
SplineSet
101 363 m 1
 40 365 l 1
 31 371 l 1
 25 380 l 1
 23 391 l 1
 25 401 l 1
 31 410 l 1
 40 417 l 1
 51 419 l 1
 154 419 l 1
 165 417 l 1
 174 410 l 1
 180 401 l 1
 182 381 l 1
 197 391 l 1
 275 417 l 1
 338 419 l 1
 432 386 l 1
 464 325 l 1
 467 313 l 1
 467 56 l 1
 517 56 l 1
 528 54 l 1
 537 48 l 1
 543 39 l 1
 545 28 l 1
 543 17 l 1
 537 8 l 1
 528 2 l 1
 517 0 l 1
 336 0 l 1
 325 2 l 1
 316 8 l 1
 310 17 l 1
 308 28 l 1
 310 39 l 1
 316 48 l 1
 325 54 l 1
 336 56 l 1
 386 56 l 1
 386 306 l 1
 367 344 l 1
 329 363 l 1
 289 363 l 1
 221 340 l 1
 182 301 l 1
 182 56 l 1
 232 56 l 1
 243 54 l 1
 252 48 l 1
 258 39 l 1
 260 28 l 1
 258 17 l 1
 252 8 l 1
 243 2 l 1
 232 0 l 1
 51 0 l 1
 40 2 l 1
 31 8 l 1
 25 17 l 1
 23 28 l 1
 25 39 l 1
 31 48 l 1
 40 54 l 1
 51 56 l 1
 101 56 l 1
 101 363 l 1
EndSplineSet
Validated: 1
EndChar

StartChar: o
Encoding: 111 111 72
Width: 519
VWidth: 0
Flags: W
HStem: 0 56<240 278> 363 54<240 278>
VStem: 51 81<175 244> 386 81<175 244>
LayerCount: 2
Back
Fore
SplineSet
147 391 m 1
 231 419 l 1
 294 417 l 1
 371 391 l 1
 382 385 l 1
 434 333 l 1
 441 322 l 1
 467 244 l 1
 467 175 l 1
 441 97 l 1
 434 86 l 1
 382 34 l 1
 371 27 l 1
 294 1 l 1
 231 0 l 1
 147 27 l 1
 136 34 l 1
 84 86 l 1
 77 97 l 1
 51 175 l 1
 51 244 l 1
 77 322 l 1
 84 333 l 1
 136 385 l 1
 147 391 l 1
278 56 m 1
 320 77 l 1
 364 121 l 1
 386 188 l 1
 386 231 l 1
 364 298 l 1
 320 342 l 1
 278 363 l 1
 240 363 l 1
 198 342 l 1
 154 298 l 1
 132 231 l 1
 132 188 l 1
 154 121 l 1
 198 77 l 1
 240 56 l 1
 278 56 l 1
EndSplineSet
Validated: 1
EndChar

StartChar: p
Encoding: 112 112 73
Width: 544
VWidth: 0
Flags: W
HStem: -181 56<40 101 182 243> 0 56<265 303> 363 56<40 101 265 303>
VStem: 101 81<-125 38 117 301> 411 81<175 244>
LayerCount: 2
Back
Fore
SplineSet
101 363 m 1
 40 365 l 1
 31 371 l 1
 25 380 l 1
 23 391 l 1
 25 401 l 1
 31 410 l 1
 40 417 l 1
 51 419 l 1
 154 419 l 1
 165 417 l 1
 174 410 l 1
 180 401 l 1
 182 381 l 1
 194 390 l 1
 246 416 l 1
 258 419 l 1
 319 417 l 1
 396 391 l 1
 407 385 l 1
 459 333 l 1
 466 322 l 1
 492 244 l 1
 492 175 l 1
 466 97 l 1
 459 86 l 1
 407 34 l 1
 396 27 l 1
 319 1 l 1
 258 0 l 1
 246 3 l 1
 194 29 l 1
 182 38 l 1
 182 -125 l 1
 232 -125 l 1
 243 -127 l 1
 252 -134 l 1
 258 -143 l 1
 260 -153 l 1
 258 -164 l 1
 252 -173 l 1
 243 -179 l 1
 232 -181 l 1
 51 -181 l 1
 40 -179 l 1
 31 -173 l 1
 25 -164 l 1
 23 -153 l 1
 25 -143 l 1
 31 -134 l 1
 40 -127 l 1
 101 -125 l 1
 101 363 l 1
303 56 m 1
 345 77 l 1
 389 121 l 1
 411 188 l 1
 411 231 l 1
 389 298 l 1
 345 342 l 1
 303 363 l 1
 265 363 l 1
 223 342 l 1
 182 301 l 1
 182 117 l 1
 223 77 l 1
 265 56 l 1
 303 56 l 1
EndSplineSet
Validated: 1
EndChar

StartChar: q
Encoding: 113 113 74
Width: 517
VWidth: 0
Flags: W
HStem: -181 56<299 360 441 502> 1 55<239 277> 363 55<239 277>
VStem: 50 81<175 252.318> 360 81<-125 38 117 301>
LayerCount: 2
Back
Fore
SplineSet
228 418 m 1
 284 419 l 1
 296 416 l 1
 348 390 l 1
 360 381 l 1
 362 401 l 1
 368 410 l 1
 377 417 l 1
 388 419 l 1
 400 415 l 1
 413 419 l 1
 424 417 l 1
 433 410 l 1
 439 401 l 1
 441 391 l 1
 441 -125 l 1
 491 -125 l 1
 502 -127 l 1
 511 -134 l 1
 517 -143 l 1
 519 -153 l 1
 517 -164 l 1
 511 -173 l 1
 502 -179 l 1
 491 -181 l 1
 310 -181 l 1
 299 -179 l 1
 290 -173 l 1
 284 -164 l 1
 282 -153 l 1
 284 -143 l 1
 290 -134 l 1
 299 -127 l 1
 310 -125 l 1
 360 -125 l 1
 360 38 l 1
 348 29 l 1
 296 3 l 1
 284 0 l 1
 223 1 l 1
 146 27 l 1
 135 34 l 1
 83 86 l 1
 76 97 l 1
 50 175 l 1
 49 235 l 1
 76 322 l 1
 83 333 l 1
 135 385 l 1
 146 391 l 1
 228 418 l 1
360 301 m 1
 319 342 l 1
 277 363 l 1
 239 363 l 1
 197 342 l 1
 153 298 l 1
 131 231 l 1
 131 188 l 1
 153 121 l 1
 197 77 l 1
 239 56 l 1
 277 56 l 1
 319 77 l 1
 360 117 l 1
 360 301 l 1
EndSplineSet
Validated: 1
EndChar

StartChar: r
Encoding: 114 114 75
Width: 439
VWidth: 0
Flags: W
HStem: 0 56<40 100 182 243> 363 56<40 100 290 320>
VStem: 100 82<56 231 355 363>
LayerCount: 2
Back
Fore
SplineSet
100 363 m 1
 40 365 l 1
 31 371 l 1
 25 380 l 1
 23 391 l 1
 25 401 l 1
 31 410 l 1
 40 417 l 1
 51 419 l 1
 165 417 l 1
 174 410 l 1
 180 401 l 1
 182 355 l 1
 219 390 l 1
 271 416 l 1
 284 419 l 1
 362 419 l 1
 372 417 l 1
 381 410 l 1
 413 375 l 1
 415 339 l 1
 413 328 l 1
 381 293 l 1
 372 287 l 1
 362 285 l 1
 351 287 l 1
 316 319 l 1
 310 328 l 1
 308 339 l 1
 310 350 l 1
 320 363 l 1
 290 363 l 1
 249 342 l 1
 205 298 l 1
 182 231 l 1
 182 56 l 1
 232 56 l 1
 243 54 l 1
 252 48 l 1
 258 39 l 1
 260 28 l 1
 258 17 l 1
 252 8 l 1
 243 2 l 1
 232 0 l 1
 51 0 l 1
 40 2 l 1
 31 8 l 1
 25 17 l 1
 23 28 l 1
 25 39 l 1
 31 48 l 1
 40 54 l 1
 100 56 l 1
 100 363 l 1
EndSplineSet
Validated: 1
EndChar

StartChar: s
Encoding: 115 115 76
Width: 440
VWidth: 0
Flags: W
HStem: 0 56<188 278> 363 56<162 252>
VStem: 334 56<91 120>
LayerCount: 2
Back
Fore
SplineSet
49 313 m 1
 49 339 l 1
 52 350 l 1
 58 359 l 1
 91 390 l 1
 143 416 l 1
 155 419 l 1
 259 419 l 1
 271 416 l 1
 329 386 l 1
 344 412 l 1
 353 417 l 1
 364 419 l 1
 374 416 l 1
 383 410 l 1
 388 401 l 1
 390 391 l 1
 390 287 l 1
 388 277 l 1
 383 268 l 1
 374 262 l 1
 364 259 l 1
 353 261 l 1
 344 266 l 1
 314 322 l 1
 294 342 l 1
 252 363 l 1
 162 363 l 1
 120 342 l 1
 105 327 l 1
 120 310 l 1
 167 287 l 1
 295 235 l 1
 356 203 l 1
 382 177 l 1
 388 168 l 1
 390 158 l 1
 390 80 l 1
 388 69 l 1
 382 60 l 1
 349 29 l 1
 297 3 l 1
 285 0 l 1
 181 0 l 1
 169 3 l 1
 111 33 l 1
 96 7 l 1
 87 2 l 1
 76 0 l 1
 66 2 l 1
 57 9 l 1
 52 18 l 1
 49 28 l 1
 49 132 l 1
 52 142 l 1
 57 151 l 1
 66 157 l 1
 76 160 l 1
 87 158 l 1
 96 153 l 1
 126 96 l 1
 146 77 l 1
 188 56 l 1
 278 56 l 1
 320 77 l 1
 334 91 l 1
 334 120 l 1
 320 135 l 1
 273 158 l 1
 145 209 l 1
 91 236 l 1
 52 276 l 1
 49 313 l 1
EndSplineSet
Validated: 1
EndChar

StartChar: t
Encoding: 116 116 77
Width: 388
VWidth: 0
Flags: W
HStem: 2 54<219 252> 363 56<41 101 183 269> 580 20G<118 142 142 166>
VStem: 101 82<114.682 363 419 583>
LayerCount: 2
Back
Fore
SplineSet
101 419 m 1
 103 583 l 1
 109 592 l 1
 118 598 l 1
 129 600 l 1
 142 596 l 1
 155 600 l 1
 166 598 l 1
 175 592 l 1
 181 583 l 1
 183 572 l 1
 183 419 l 1
 269 417 l 1
 279 410 l 1
 285 401 l 1
 287 391 l 1
 285 380 l 1
 279 371 l 1
 269 365 l 1
 183 363 l 1
 183 136 l 1
 205 69 l 1
 219 56 l 1
 252 56 l 1
 290 75 l 1
 311 118 l 1
 318 127 l 1
 328 132 l 1
 338 134 l 1
 349 131 l 1
 358 124 l 1
 363 115 l 1
 364 104 l 1
 361 93 l 1
 330 34 l 1
 271 3 l 1
 259 0 l 1
 196 2 l 1
 143 29 l 1
 134 36 l 1
 129 45 l 1
 101 132 l 1
 101 363 l 1
 41 365 l 1
 32 371 l 1
 26 380 l 1
 23 391 l 1
 26 401 l 1
 32 410 l 1
 41 417 l 1
 101 419 l 1
EndSplineSet
Validated: 1
EndChar

StartChar: u
Encoding: 117 117 78
Width: 569
VWidth: 0
Flags: W
HStem: 0 56<239 293 467 528> 363 56<40 101 325 386>
VStem: 101 81<112 363> 386 81<117 363>
LayerCount: 2
Back
Fore
SplineSet
101 363 m 1
 40 365 l 1
 31 371 l 1
 25 380 l 1
 23 391 l 1
 25 401 l 1
 31 410 l 1
 40 417 l 1
 51 419 l 1
 154 419 l 1
 165 417 l 1
 174 410 l 1
 180 401 l 1
 182 391 l 1
 182 112 l 1
 201 75 l 1
 239 56 l 1
 279 56 l 1
 347 78 l 1
 386 117 l 1
 386 363 l 1
 325 365 l 1
 316 371 l 1
 310 380 l 1
 308 391 l 1
 310 401 l 1
 316 410 l 1
 325 417 l 1
 336 419 l 1
 439 419 l 1
 450 417 l 1
 459 410 l 1
 465 401 l 1
 467 391 l 1
 467 56 l 1
 517 56 l 1
 528 54 l 1
 537 48 l 1
 543 39 l 1
 545 28 l 1
 543 17 l 1
 537 8 l 1
 528 2 l 1
 517 0 l 1
 414 0 l 1
 403 2 l 1
 394 8 l 1
 388 17 l 1
 386 38 l 1
 371 27 l 1
 293 1 l 1
 230 0 l 1
 136 33 l 1
 104 93 l 1
 101 106 l 1
 101 363 l 1
EndSplineSet
Validated: 1
EndChar

StartChar: v
Encoding: 118 118 79
Width: 465
VWidth: 0
Flags: W
HStem: 0 21G<221 243> 363 56<14 58 144 191 273 345 406 450>
LayerCount: 2
Back
Fore
SplineSet
58 363 m 1
 25 363 l 1
 14 365 l 1
 5 371 l 1
 -1 380 l 1
 -3 391 l 1
 -1 401 l 1
 5 410 l 1
 14 417 l 1
 25 419 l 1
 180 419 l 1
 191 417 l 1
 200 410 l 1
 206 401 l 1
 208 391 l 1
 206 380 l 1
 200 371 l 1
 191 365 l 1
 180 363 l 1
 144 363 l 1
 243 125 l 1
 345 363 l 1
 273 365 l 1
 264 371 l 1
 258 380 l 1
 256 391 l 1
 258 401 l 1
 264 410 l 1
 273 417 l 1
 284 419 l 1
 439 419 l 1
 450 417 l 1
 459 410 l 1
 465 401 l 1
 467 391 l 1
 465 380 l 1
 459 371 l 1
 450 365 l 1
 406 363 l 1
 258 17 l 1
 252 8 l 1
 243 2 l 1
 232 0 l 1
 221 2 l 1
 212 8 l 1
 206 17 l 1
 58 363 l 1
EndSplineSet
Validated: 1
EndChar

StartChar: w
Encoding: 119 119 80
Width: 623
VWidth: 0
Flags: W
HStem: 0 21G<194 221 401 432> 363 56<15 83 166 218 430 481 539 607>
LayerCount: 2
Back
Fore
SplineSet
83 363 m 1
 15 365 l 1
 6 371 l 1
 0 380 l 1
 -2 391 l 1
 0 401 l 1
 6 410 l 1
 15 417 l 1
 26 419 l 1
 207 419 l 1
 218 417 l 1
 227 410 l 1
 233 401 l 1
 235 391 l 1
 233 380 l 1
 227 371 l 1
 218 365 l 1
 207 363 l 1
 166 363 l 1
 219 170 l 1
 287 404 l 1
 294 413 l 1
 308 418 l 1
 325 415 l 1
 340 418 l 1
 351 415 l 1
 359 408 l 1
 364 398 l 1
 426 170 l 1
 481 363 l 1
 441 363 l 1
 430 365 l 1
 421 371 l 1
 415 380 l 1
 413 391 l 1
 415 401 l 1
 421 410 l 1
 430 417 l 1
 441 419 l 1
 596 419 l 1
 607 417 l 1
 616 410 l 1
 622 401 l 1
 624 391 l 1
 622 380 l 1
 616 371 l 1
 607 365 l 1
 539 363 l 1
 442 20 l 1
 432 6 l 1
 418 0 l 1
 401 4 l 1
 393 11 l 1
 388 20 l 1
 311 289 l 1
 232 14 l 1
 221 4 l 1
 211 0 l 1
 194 4 l 1
 185 11 l 1
 180 20 l 1
 83 363 l 1
EndSplineSet
Validated: 1
EndChar

StartChar: x
Encoding: 120 120 81
Width: 517
VWidth: 0
Flags: W
HStem: 2 54<40 90 163 217 427 476> 363 56<40 89 299 353 426 476>
LayerCount: 2
Back
Fore
SplineSet
90 56 m 1
 215 202 l 1
 89 363 l 1
 51 363 l 1
 40 365 l 1
 31 371 l 1
 25 380 l 1
 23 391 l 1
 25 401 l 1
 31 410 l 1
 40 417 l 1
 51 419 l 1
 217 417 l 1
 226 410 l 1
 232 401 l 1
 234 391 l 1
 232 380 l 1
 226 371 l 1
 217 365 l 1
 186 363 l 1
 266 261 l 1
 353 363 l 1
 310 363 l 1
 299 365 l 1
 290 371 l 1
 284 380 l 1
 282 391 l 1
 284 401 l 1
 290 410 l 1
 299 417 l 1
 310 419 l 1
 465 419 l 1
 476 417 l 1
 485 410 l 1
 491 401 l 1
 493 391 l 1
 491 380 l 1
 485 371 l 1
 476 365 l 1
 465 363 l 1
 426 363 l 1
 301 216 l 1
 427 56 l 1
 465 56 l 1
 476 54 l 1
 485 48 l 1
 491 39 l 1
 493 28 l 1
 491 17 l 1
 485 8 l 1
 476 2 l 1
 465 0 l 1
 299 2 l 1
 290 8 l 1
 284 17 l 1
 282 28 l 1
 284 39 l 1
 290 48 l 1
 299 54 l 1
 330 56 l 1
 250 157 l 1
 163 56 l 1
 206 56 l 1
 217 54 l 1
 226 48 l 1
 232 39 l 1
 234 28 l 1
 232 17 l 1
 226 8 l 1
 217 2 l 1
 51 0 l 1
 40 2 l 1
 31 8 l 1
 25 17 l 1
 23 28 l 1
 25 39 l 1
 31 48 l 1
 40 54 l 1
 51 56 l 1
 90 56 l 1
EndSplineSet
Validated: 1
EndChar

StartChar: y
Encoding: 121 121 82
Width: 491
VWidth: 0
Flags: W
HStem: -181 21G<66 115> 363 56<40 84 170 217 299 371 432 476>
LayerCount: 2
Back
Fore
SplineSet
84 363 m 1
 51 363 l 1
 40 365 l 1
 31 371 l 1
 25 380 l 1
 23 391 l 1
 25 401 l 1
 31 410 l 1
 40 417 l 1
 51 419 l 1
 206 419 l 1
 217 417 l 1
 226 410 l 1
 232 401 l 1
 234 391 l 1
 232 380 l 1
 226 371 l 1
 217 365 l 1
 206 363 l 1
 170 363 l 1
 269 125 l 1
 371 363 l 1
 299 365 l 1
 290 371 l 1
 284 380 l 1
 282 391 l 1
 284 401 l 1
 290 410 l 1
 299 417 l 1
 310 419 l 1
 465 419 l 1
 476 417 l 1
 485 410 l 1
 491 401 l 1
 493 391 l 1
 491 380 l 1
 485 371 l 1
 476 365 l 1
 432 363 l 1
 284 17 l 1
 231 -88 l 1
 174 -147 l 1
 115 -178 l 1
 103 -181 l 1
 77 -181 l 1
 66 -179 l 1
 57 -173 l 1
 25 -138 l 1
 23 -127 l 1
 25 -117 l 1
 57 -82 l 1
 66 -76 l 1
 77 -74 l 1
 87 -76 l 1
 96 -82 l 1
 125 -111 l 1
 138 -104 l 1
 183 -59 l 1
 227 29 l 1
 84 363 l 1
EndSplineSet
Validated: 1
EndChar

StartChar: z
Encoding: 122 122 83
Width: 465
VWidth: 0
Flags: W
HStem: 0 56<160 340> 363 56<124 304>
LayerCount: 2
Back
Fore
SplineSet
49 26 m 1
 55 45 l 1
 304 363 l 1
 124 363 l 1
 104 280 l 1
 99 270 l 1
 90 262 l 1
 79 259 l 1
 68 261 l 1
 58 266 l 1
 51 276 l 1
 49 287 l 1
 49 391 l 1
 51 401 l 1
 57 410 l 1
 66 417 l 1
 77 419 l 1
 387 419 l 1
 398 417 l 1
 407 410 l 1
 413 401 l 1
 415 391 l 1
 409 373 l 1
 160 56 l 1
 340 56 l 1
 360 138 l 1
 365 149 l 1
 374 156 l 1
 385 160 l 1
 396 158 l 1
 406 152 l 1
 413 143 l 1
 415 132 l 1
 415 28 l 1
 413 17 l 1
 407 8 l 1
 398 2 l 1
 387 0 l 1
 77 0 l 1
 66 2 l 1
 57 8 l 1
 49 26 l 1
EndSplineSet
Validated: 1
EndChar

StartChar: braceleft
Encoding: 123 123 84
Width: 363
VWidth: 0
Flags: W
HStem: -181 21G<220 242>
VStem: 101 82<-62 -30 553 585> 179 82<138 170 352 384>
LayerCount: 2
Back
Fore
SplineSet
162 670 m 1xc0
 220 701 l 1
 231 704 l 1
 242 702 l 1
 251 697 l 1
 258 688 l 1
 261 678 l 1xa0
 259 667 l 1
 254 657 l 1
 202 629 l 1
 183 591 l 1
 183 553 l 1xc0
 204 511 l 1
 232 481 l 1
 258 429 l 1
 261 417 l 1
 261 365 l 1
 258 352 l 1
 227 293 l 1
 166 261 l 1
 227 229 l 1
 258 170 l 1
 261 158 l 1
 261 106 l 1xa0
 258 93 l 1
 232 41 l 1
 204 11 l 1
 183 -30 l 1
 183 -69 l 1xc0
 202 -107 l 1
 245 -128 l 1
 254 -135 l 1
 259 -144 l 1
 261 -155 l 1xa0
 258 -166 l 1
 251 -174 l 1
 242 -180 l 1
 231 -181 l 1
 220 -178 l 1
 161 -147 l 1
 130 -114 l 1
 104 -62 l 1
 101 -50 l 1
 101 2 l 1xc0
 104 15 l 1
 130 66 l 1
 158 96 l 1
 179 138 l 1
 179 172 l 1
 139 212 l 1
 83 242 l 1
 75 261 l 1
 83 280 l 1
 139 310 l 1
 179 350 l 1
 179 384 l 1xa0
 158 426 l 1
 130 456 l 1
 104 508 l 1
 101 520 l 1
 101 572 l 1
 104 585 l 1
 130 636 l 1
 162 670 l 1xc0
EndSplineSet
Validated: 1
EndChar

StartChar: bar
Encoding: 124 124 85
Width: 208
VWidth: 0
Flags: W
HStem: -181 21G<93 115>
VStem: 76 56<-164 686>
LayerCount: 2
Back
Fore
SplineSet
76 -153 m 1
 76 676 l 1
 78 686 l 1
 84 695 l 1
 93 701 l 1
 104 704 l 1
 115 701 l 1
 124 695 l 1
 130 686 l 1
 132 676 l 1
 132 -153 l 1
 130 -164 l 1
 124 -173 l 1
 115 -179 l 1
 104 -181 l 1
 93 -179 l 1
 84 -173 l 1
 78 -164 l 1
 76 -153 l 1
EndSplineSet
Validated: 1
EndChar

StartChar: braceright
Encoding: 125 125 86
Width: 363
VWidth: 0
Flags: W
HStem: -181 21G<120 142>
VStem: 101 82<138 170 352 384> 179 82<-62 -30 553 585>
LayerCount: 2
Back
Fore
SplineSet
223 310 m 1xc0
 279 280 l 1
 287 261 l 1
 285 251 l 1
 271 236 l 1
 223 212 l 1
 183 172 l 1
 183 138 l 1xc0
 204 96 l 1
 232 66 l 1
 258 15 l 1
 261 2 l 1
 261 -50 l 1xa0
 258 -62 l 1
 232 -114 l 1
 199 -149 l 1
 142 -178 l 1
 131 -181 l 1
 120 -180 l 1
 111 -174 l 1
 104 -166 l 1
 101 -155 l 1xc0
 103 -144 l 1
 108 -135 l 1
 117 -128 l 1
 160 -107 l 1
 179 -69 l 1
 179 -30 l 1xa0
 158 11 l 1
 130 41 l 1
 104 93 l 1
 101 106 l 1
 101 158 l 1
 104 170 l 1
 135 229 l 1
 196 261 l 1
 135 293 l 1
 104 352 l 1
 101 365 l 1
 101 417 l 1xc0
 104 429 l 1
 130 481 l 1
 158 511 l 1
 179 553 l 1
 179 591 l 1xa0
 160 629 l 1
 117 651 l 1
 108 657 l 1
 103 667 l 1
 101 678 l 1xc0
 104 688 l 1
 111 697 l 1
 120 702 l 1
 131 704 l 1
 142 701 l 1
 199 671 l 1
 232 636 l 1
 258 585 l 1
 261 572 l 1
 261 520 l 1xa0
 258 508 l 1
 232 456 l 1
 204 426 l 1
 183 384 l 1
 183 350 l 1
 223 310 l 1xc0
EndSplineSet
Validated: 1
EndChar

StartChar: asciitilde
Encoding: 126 126 87
Width: 622
VWidth: 0
Flags: W
HStem: 155 82<421 460> 285 82<162 201>
VStem: 52 52<173 229> 516 56<294 350>
LayerCount: 2
Back
Fore
SplineSet
50 236 m 1
 77 322 l 1
 83 331 l 1
 143 364 l 1
 156 367 l 1
 207 367 l 1
 220 364 l 1
 276 335 l 1
 378 259 l 1
 421 237 l 1
 460 237 l 1
 497 256 l 1
 516 294 l 1
 516 339 l 1
 518 350 l 1
 524 359 l 1
 533 365 l 1
 544 367 l 1
 555 365 l 1
 564 359 l 1
 570 350 l 1
 572 285 l 1
 545 200 l 1
 539 191 l 1
 531 184 l 1
 479 158 l 1
 466 155 l 1
 415 155 l 1
 402 158 l 1
 346 187 l 1
 244 263 l 1
 201 285 l 1
 162 285 l 1
 125 266 l 1
 106 229 l 1
 104 173 l 1
 98 164 l 1
 89 158 l 1
 78 155 l 1
 67 158 l 1
 58 164 l 1
 52 173 l 1
 50 236 l 1
EndSplineSet
Validated: 1
EndChar

StartChar: section
Encoding: 167 167 88
Width: 415
VWidth: 0
Flags: W
HStem: -181 56<188 226> 544 56<188 226>
VStem: 49 56<216 255> 75 56<449 488> 283 56<-69 -30> 309 56<164 203>
LayerCount: 2
Back
Fore
SplineSet
80 143 m 1xd8
 52 197 l 1
 49 209 l 1
 49 261 l 1xe8
 52 274 l 1
 78 325 l 1
 116 365 l 1
 104 378 l 1
 78 430 l 1
 75 442 l 1
 75 494 l 1
 78 507 l 1
 104 559 l 1
 117 571 l 1
 169 597 l 1
 181 600 l 1
 233 600 l 1
 245 597 l 1
 297 571 l 1
 310 559 l 1
 336 507 l 1
 339 494 l 1
 339 468 l 1xd8
 336 458 l 1
 330 449 l 1
 295 417 l 1
 285 414 l 1
 274 417 l 1
 265 423 l 1
 239 449 l 1
 233 458 l 1
 231 468 l 1
 233 479 l 1
 239 488 l 1
 268 516 l 1
 264 525 l 1
 226 544 l 1
 188 544 l 1
 150 525 l 1
 131 488 l 1
 131 449 l 1
 151 410 l 1
 279 333 l 1
 333 278 l 1
 362 222 l 1
 365 209 l 1
 365 158 l 1xd4
 362 145 l 1
 336 93 l 1
 298 54 l 1
 310 41 l 1
 336 -11 l 1
 339 -24 l 1
 339 -76 l 1
 336 -88 l 1
 305 -147 l 1
 245 -178 l 1
 233 -181 l 1
 181 -181 l 1
 169 -178 l 1
 109 -147 l 1
 78 -88 l 1
 75 -50 l 1
 78 -39 l 1
 84 -30 l 1
 109 -4 l 1
 119 2 l 1
 129 4 l 1
 140 2 l 1
 149 -4 l 1
 181 -39 l 1
 183 -50 l 1
 181 -60 l 1
 146 -98 l 1
 150 -107 l 1
 188 -125 l 1
 226 -125 l 1
 264 -107 l 1
 283 -69 l 1
 283 -30 l 1
 263 8 l 1
 141 82 l 1
 80 143 l 1xd8
125 177 m 1
 247 104 l 1
 259 94 l 1
 288 122 l 1
 309 164 l 1
 309 203 l 1xe4
 289 241 l 1
 167 315 l 1
 155 325 l 1
 126 296 l 1
 105 255 l 1
 105 216 l 1
 125 177 l 1
EndSplineSet
Validated: 1
EndChar

StartChar: degree
Encoding: 176 176 89
Width: 363
VWidth: 0
Flags: W
HStem: 337 56<162 200> 544 56<162 200>
VStem: 49 56<449 488> 257 56<449 488>
LayerCount: 2
Back
Fore
SplineSet
91 571 m 1
 144 598 l 1
 207 600 l 1
 219 597 l 1
 279 566 l 1
 310 507 l 1
 313 494 l 1
 313 442 l 1
 310 430 l 1
 279 371 l 1
 219 340 l 1
 207 337 l 1
 155 337 l 1
 143 340 l 1
 83 371 l 1
 52 430 l 1
 49 442 l 1
 49 494 l 1
 52 507 l 1
 78 559 l 1
 91 571 l 1
162 544 m 1
 124 525 l 1
 105 488 l 1
 105 449 l 1
 124 412 l 1
 162 393 l 1
 200 393 l 1
 238 412 l 1
 257 449 l 1
 257 488 l 1
 238 525 l 1
 200 544 l 1
 162 544 l 1
EndSplineSet
Validated: 1
EndChar

StartChar: plusminus
Encoding: 177 177 90
Width: 621
VWidth: 0
Flags: W
HStem: 0 56<92 282 338 528> 233 56<92 282 338 528>
VStem: 282 56<56 233 289 479>
LayerCount: 2
Back
Fore
SplineSet
282 289 m 1
 282 468 l 1
 284 479 l 1
 290 488 l 1
 299 494 l 1
 310 496 l 1
 321 494 l 1
 330 488 l 1
 336 479 l 1
 338 468 l 1
 338 289 l 1
 517 289 l 1
 528 287 l 1
 537 281 l 1
 543 272 l 1
 545 261 l 1
 543 250 l 1
 537 241 l 1
 528 235 l 1
 517 233 l 1
 338 233 l 1
 338 56 l 1
 517 56 l 1
 528 54 l 1
 537 48 l 1
 543 39 l 1
 545 28 l 1
 543 17 l 1
 537 8 l 1
 528 2 l 1
 517 0 l 1
 103 0 l 1
 92 2 l 1
 83 8 l 1
 77 17 l 1
 75 28 l 1
 77 39 l 1
 83 48 l 1
 92 54 l 1
 103 56 l 1
 282 56 l 1
 282 233 l 1
 103 233 l 1
 92 235 l 1
 83 241 l 1
 77 250 l 1
 75 261 l 1
 77 272 l 1
 83 281 l 1
 92 287 l 1
 103 289 l 1
 282 289 l 1
EndSplineSet
Validated: 1
EndChar

StartChar: acute
Encoding: 180 180 91
Width: 310
VWidth: 0
Flags: W
HStem: 389 211
VStem: 49 209
LayerCount: 2
Back
Fore
SplineSet
49 417 m 1
 55 434 l 1
 186 592 l 1
 203 600 l 1
 217 598 l 1
 252 566 l 1
 258 556 l 1
 260 545 l 1
 257 534 l 1
 250 525 l 1
 94 395 l 1
 79 389 l 1
 63 392 l 1
 51 404 l 1
 49 417 l 1
EndSplineSet
Validated: 1
EndChar

StartChar: periodcentered
Encoding: 183 183 92
Width: 261
VWidth: 0
Flags: W
HStem: 209 104
VStem: 78 104
LayerCount: 2
Back
Fore
SplineSet
84 281 m 1
 119 313 l 1
 130 315 l 1
 141 313 l 1
 150 307 l 1
 182 272 l 1
 184 261 l 1
 182 250 l 1
 150 215 l 1
 141 209 l 1
 130 207 l 1
 119 209 l 1
 84 241 l 1
 78 250 l 1
 76 261 l 1
 78 272 l 1
 84 281 l 1
EndSplineSet
Validated: 1
EndChar

StartChar: divide
Encoding: 247 247 93
Width: 673
VWidth: 0
Flags: W
HStem: 0 21G<325 347> 233 56<92 580>
LayerCount: 2
Back
Fore
SplineSet
569 233 m 1
 103 233 l 1
 92 235 l 1
 83 241 l 1
 77 250 l 1
 75 261 l 1
 77 272 l 1
 83 281 l 1
 92 287 l 1
 103 289 l 1
 569 289 l 1
 580 287 l 1
 589 281 l 1
 595 272 l 1
 597 261 l 1
 595 250 l 1
 589 241 l 1
 580 235 l 1
 569 233 l 1
290 488 m 1
 325 520 l 1
 336 522 l 1
 347 520 l 1
 356 514 l 1
 388 479 l 1
 390 468 l 1
 388 458 l 1
 356 423 l 1
 347 417 l 1
 336 414 l 1
 325 417 l 1
 316 423 l 1
 284 458 l 1
 282 468 l 1
 284 479 l 1
 290 488 l 1
290 74 m 1
 325 106 l 1
 336 108 l 1
 347 106 l 1
 356 100 l 1
 388 65 l 1
 390 54 l 1
 388 43 l 1
 356 8 l 1
 347 2 l 1
 336 0 l 1
 325 2 l 1
 316 8 l 1
 284 43 l 1
 282 54 l 1
 284 65 l 1
 290 74 l 1
EndSplineSet
Validated: 1
EndChar

StartChar: dotlessi
Encoding: 305 305 94
Width: 286
VWidth: 0
Flags: W
HStem: 0 56<42 102 184 244> 363 56<42 102>
VStem: 102 82<56 363>
LayerCount: 2
Back
Fore
SplineSet
102 363 m 1
 42 365 l 1
 32 371 l 1
 26 380 l 1
 24 391 l 1
 26 401 l 1
 32 410 l 1
 42 417 l 1
 52 419 l 1
 156 419 l 1
 167 417 l 1
 176 410 l 1
 182 401 l 1
 184 391 l 1
 184 56 l 1
 234 56 l 1
 244 54 l 1
 253 48 l 1
 259 39 l 1
 262 28 l 1
 259 17 l 1
 253 8 l 1
 244 2 l 1
 234 0 l 1
 52 0 l 1
 42 2 l 1
 32 8 l 1
 26 17 l 1
 24 28 l 1
 26 39 l 1
 32 48 l 1
 42 54 l 1
 102 56 l 1
 102 363 l 1
EndSplineSet
Validated: 1
EndChar

StartChar: uni02BE
Encoding: 702 702 95
Width: 261
VWidth: 0
Flags: W
HStem: 391 207 580 20G<93 115>
VStem: 78 103
LayerCount: 2
Back
Fore
SplineSet
107 530 m 1xa0
 84 552 l 1
 78 561 l 1
 76 572 l 1
 78 583 l 1
 84 592 l 1
 93 598 l 1xa0
 104 600 l 1x60
 115 598 l 1
 124 592 l 1
 150 566 l 1
 181 507 l 1
 184 494 l 1
 182 432 l 1
 150 397 l 1
 141 391 l 1
 130 389 l 1
 119 391 l 1
 84 423 l 1
 78 432 l 1
 76 442 l 1
 78 453 l 1
 84 462 l 1
 110 488 l 1
 124 495 l 1
 107 530 l 1xa0
EndSplineSet
Validated: 1
EndChar

StartChar: uni02BF
Encoding: 703 703 96
Width: 261
VWidth: 0
Flags: W
HStem: 391 207 580 20G<119 141>
VStem: 79 103
LayerCount: 2
Back
Fore
SplineSet
136 493 m 1xa0
 153 459 l 1
 182 427 l 1
 184 417 l 1
 182 406 l 1
 176 397 l 1
 167 391 l 1
 156 389 l 1
 145 391 l 1
 110 423 l 1
 79 482 l 1
 76 494 l 1
 78 557 l 1
 110 592 l 1
 119 598 l 1xa0
 130 600 l 1x60
 141 598 l 1
 150 592 l 1
 176 566 l 1
 182 557 l 1
 184 546 l 1
 182 535 l 1
 176 526 l 1
 150 500 l 1
 136 493 l 1xa0
EndSplineSet
Validated: 1
EndChar

StartChar: breve
Encoding: 728 728 97
Width: 517
VWidth: 0
Flags: W
HStem: 389 81<237 279> 580 20G<64 89 427 458>
LayerCount: 2
Back
Fore
SplineSet
49 572 m 1
 52 585 l 1
 64 597 l 1
 79 600 l 1
 89 597 l 1
 102 585 l 1
 126 537 l 1
 170 493 l 1
 237 470 l 1
 279 470 l 1
 346 493 l 1
 390 537 l 1
 414 585 l 1
 427 597 l 1
 441 600 l 1
 458 593 l 1
 464 585 l 1
 467 570 l 1
 440 485 l 1
 433 474 l 1
 381 423 l 1
 370 416 l 1
 293 390 l 1
 232 389 l 1
 146 416 l 1
 135 423 l 1
 83 474 l 1
 76 485 l 1
 49 572 l 1
EndSplineSet
Validated: 1
EndChar

StartChar: Alpha
Encoding: 913 913 98
Width: 517
VWidth: 0
Flags: W
HStem: 2 54<14 56 116 191 325 375 460 502> 155 56<167 323> 580 20G<245 267>
LayerCount: 2
Back
Fore
SplineSet
56 56 m 1
 231 581 l 1
 237 590 l 1
 245 597 l 1
 256 600 l 1
 267 599 l 1
 279 590 l 1
 285 581 l 1
 460 56 l 1
 491 56 l 1
 502 54 l 1
 511 48 l 1
 517 39 l 1
 519 28 l 1
 517 17 l 1
 511 8 l 1
 502 2 l 1
 491 0 l 1
 336 0 l 1
 325 2 l 1
 316 8 l 1
 310 17 l 1
 308 28 l 1
 310 39 l 1
 316 48 l 1
 325 54 l 1
 336 56 l 1
 375 56 l 1
 341 155 l 1
 149 155 l 1
 116 56 l 1
 180 56 l 1
 191 54 l 1
 200 48 l 1
 206 39 l 1
 208 28 l 1
 206 17 l 1
 200 8 l 1
 191 2 l 1
 25 0 l 1
 14 2 l 1
 5 8 l 1
 -1 17 l 1
 -3 28 l 1
 -1 39 l 1
 5 48 l 1
 14 54 l 1
 25 56 l 1
 56 56 l 1
245 445 m 1
 167 211 l 1
 323 211 l 1
 245 445 l 1
EndSplineSet
Validated: 1
EndChar

StartChar: Beta
Encoding: 914 914 99
Width: 569
VWidth: 0
Flags: W
HStem: 0 56<40 101 182 355> 285 56<182 355> 544 56<40 101 182 355>
VStem: 101 81<56 285 341 544> 437 82<138 203 423 462>
LayerCount: 2
Back
Fore
SplineSet
101 544 m 1
 40 546 l 1
 31 552 l 1
 25 561 l 1
 23 572 l 1
 25 583 l 1
 31 592 l 1
 40 598 l 1
 51 600 l 1
 364 600 l 1
 448 573 l 1
 459 566 l 1
 490 533 l 1
 516 481 l 1
 519 468 l 1
 519 417 l 1
 516 404 l 1
 490 352 l 1
 459 319 l 1
 449 313 l 1
 459 307 l 1
 485 281 l 1
 516 222 l 1
 519 209 l 1
 519 132 l 1
 516 119 l 1
 490 67 l 1
 459 34 l 1
 448 27 l 1
 364 0 l 1
 51 0 l 1
 40 2 l 1
 31 8 l 1
 25 17 l 1
 23 28 l 1
 25 39 l 1
 31 48 l 1
 40 54 l 1
 51 56 l 1
 101 56 l 1
 101 544 l 1
182 544 m 1
 182 341 l 1
 355 341 l 1
 397 362 l 1
 416 381 l 1
 437 423 l 1
 437 462 l 1
 416 504 l 1
 397 523 l 1
 355 544 l 1
 182 544 l 1
182 56 m 1
 355 56 l 1
 397 77 l 1
 416 96 l 1
 437 138 l 1
 437 203 l 1
 416 245 l 1
 397 264 l 1
 355 285 l 1
 182 285 l 1
 182 56 l 1
EndSplineSet
Validated: 1
EndChar

StartChar: Gamma
Encoding: 915 915 100
Width: 465
VWidth: 0
Flags: W
HStem: 0 56<40 100 182 243> 544 56<40 100 182 390>
VStem: 100 82<56 544> 412 55<417 454>
LayerCount: 2
Back
Fore
SplineSet
100 544 m 1
 40 546 l 1
 31 552 l 1
 25 561 l 1
 23 572 l 1
 25 583 l 1
 31 592 l 1
 40 598 l 1
 51 600 l 1
 439 600 l 1
 450 598 l 1
 459 592 l 1
 465 583 l 1
 467 417 l 1
 460 398 l 1
 442 389 l 1
 422 394 l 1
 412 412 l 1
 390 544 l 1
 182 544 l 1
 182 56 l 1
 232 56 l 1
 243 54 l 1
 252 48 l 1
 258 39 l 1
 260 28 l 1
 258 17 l 1
 252 8 l 1
 243 2 l 1
 232 0 l 1
 51 0 l 1
 40 2 l 1
 31 8 l 1
 25 17 l 1
 23 28 l 1
 25 39 l 1
 31 48 l 1
 40 54 l 1
 100 56 l 1
 100 544 l 1
EndSplineSet
Validated: 1
EndChar

StartChar: uni0394
Encoding: 916 916 101
Width: 517
VWidth: 0
Flags: W
HStem: 0 82<101 388> 580 20G<248 269>
LayerCount: 2
Back
Fore
SplineSet
23 28 m 1
 25 38 l 1
 232 583 l 1
 239 592 l 1
 248 598 l 1
 259 600 l 1
 269 598 l 1
 278 591 l 1
 284 582 l 1
 491 38 l 1
 493 27 l 1
 491 17 l 1
 484 8 l 1
 465 0 l 1
 51 0 l 1
 40 2 l 1
 31 8 l 1
 25 17 l 1
 23 28 l 1
101 82 m 1
 388 82 l 1
 243 455 l 1
 101 82 l 1
EndSplineSet
Validated: 1
EndChar

StartChar: Epsilon
Encoding: 917 917 102
Width: 543
VWidth: 0
Flags: W
HStem: 0 56<40 101 182 416> 285 56<182 282> 544 56<40 101 182 416>
VStem: 101 81<56 285 341 544> 282 56<199 285 341 427> 416 77<56 98 502 544> 438 55<146 183 417 454>
LayerCount: 2
Back
Fore
SplineSet
101 544 m 1xfa
 40 546 l 1
 31 552 l 1
 25 561 l 1
 23 572 l 1
 25 583 l 1
 31 592 l 1
 40 598 l 1
 51 600 l 1
 465 600 l 1
 476 598 l 1
 485 592 l 1
 491 583 l 1
 493 572 l 1
 493 417 l 1
 486 398 l 1
 468 389 l 1
 448 394 l 1
 438 412 l 1xfa
 416 544 l 1
 182 544 l 1
 182 341 l 1
 282 341 l 1
 284 427 l 1
 290 436 l 1
 299 442 l 1
 310 445 l 1
 321 442 l 1
 330 436 l 1
 336 427 l 1
 338 417 l 1
 338 209 l 1
 336 199 l 1
 330 190 l 1
 321 183 l 1
 310 181 l 1
 299 183 l 1
 290 190 l 1
 284 199 l 1
 282 209 l 1
 282 285 l 1
 182 285 l 1
 182 56 l 1
 416 56 l 1xfc
 438 188 l 1
 448 206 l 1
 468 211 l 1
 486 202 l 1
 493 183 l 1
 493 28 l 1
 491 17 l 1
 485 8 l 1
 476 2 l 1
 465 0 l 1
 51 0 l 1
 40 2 l 1
 31 8 l 1
 25 17 l 1
 23 28 l 1
 25 39 l 1
 31 48 l 1
 40 54 l 1
 51 56 l 1
 101 56 l 1
 101 544 l 1xfa
EndSplineSet
Validated: 1
EndChar

StartChar: Zeta
Encoding: 918 918 103
Width: 517
VWidth: 0
Flags: W
HStem: 0 56<153 390> 544 56<126 363>
VStem: 412 55<146 183>
LayerCount: 2
Back
Fore
SplineSet
126 544 m 1
 101 402 l 1
 85 390 l 1
 64 391 l 1
 51 406 l 1
 49 417 l 1
 49 572 l 1
 51 583 l 1
 57 592 l 1
 66 598 l 1
 77 600 l 1
 439 600 l 1
 450 598 l 1
 462 588 l 1
 467 572 l 1
 463 557 l 1
 153 56 l 1
 390 56 l 1
 412 188 l 1
 422 206 l 1
 442 211 l 1
 460 202 l 1
 467 183 l 1
 467 28 l 1
 465 17 l 1
 459 8 l 1
 450 2 l 1
 439 0 l 1
 77 0 l 1
 66 2 l 1
 54 12 l 1
 49 28 l 1
 53 43 l 1
 363 544 l 1
 126 544 l 1
EndSplineSet
Validated: 1
EndChar

StartChar: Eta
Encoding: 919 919 104
Width: 621
VWidth: 0
Flags: W
HStem: 0 56<40 101 183 243 377 437 519 580> 285 56<183 437> 544 56<40 101 183 243 377 437 519 580>
VStem: 101 82<56 285 341 544> 437 82<56 285 341 544>
LayerCount: 2
Back
Fore
SplineSet
101 544 m 1
 40 546 l 1
 31 552 l 1
 25 561 l 1
 23 572 l 1
 25 583 l 1
 31 592 l 1
 40 598 l 1
 51 600 l 1
 232 600 l 1
 243 598 l 1
 252 592 l 1
 258 583 l 1
 260 572 l 1
 258 561 l 1
 252 552 l 1
 243 546 l 1
 183 544 l 1
 183 341 l 1
 437 341 l 1
 437 544 l 1
 377 546 l 1
 368 552 l 1
 362 561 l 1
 360 572 l 1
 362 583 l 1
 368 592 l 1
 377 598 l 1
 388 600 l 1
 569 600 l 1
 580 598 l 1
 589 592 l 1
 595 583 l 1
 597 572 l 1
 595 561 l 1
 589 552 l 1
 580 546 l 1
 569 544 l 1
 519 544 l 1
 519 56 l 1
 569 56 l 1
 580 54 l 1
 589 48 l 1
 595 39 l 1
 597 28 l 1
 595 17 l 1
 589 8 l 1
 580 2 l 1
 569 0 l 1
 388 0 l 1
 377 2 l 1
 368 8 l 1
 362 17 l 1
 360 28 l 1
 362 39 l 1
 368 48 l 1
 377 54 l 1
 437 56 l 1
 437 285 l 1
 183 285 l 1
 183 56 l 1
 243 54 l 1
 252 48 l 1
 258 39 l 1
 260 28 l 1
 258 17 l 1
 252 8 l 1
 243 2 l 1
 232 0 l 1
 51 0 l 1
 40 2 l 1
 31 8 l 1
 25 17 l 1
 23 28 l 1
 25 39 l 1
 31 48 l 1
 40 54 l 1
 51 56 l 1
 101 56 l 1
 101 544 l 1
EndSplineSet
Validated: 1
EndChar

StartChar: Theta
Encoding: 920 920 105
Width: 569
VWidth: 0
Flags: W
HStem: 0 56<265 303> 259 82<234 334> 399 20G<196 217 351 372> 544 56<265 303>
VStem: 50 81<236.417 363.583> 178 54<199 259 341 401> 334 56<199 259 341 401> 437 82<236.417 363.583>
LayerCount: 2
Back
Fore
SplineSet
172 573 m 1
 256 600 l 1
 310 600 l 1
 396 573 l 1
 407 566 l 1
 459 514 l 1
 492 449 l 1
 518 346 l 1
 519 261 l 1
 490 145 l 1
 459 86 l 1
 407 34 l 1
 396 27 l 1
 319 1 l 1
 256 0 l 1
 172 27 l 1
 161 34 l 1
 109 86 l 1
 76 151 l 1
 50 254 l 1
 50 346 l 1
 76 449 l 1
 104 507 l 1
 161 566 l 1
 172 573 l 1
303 56 m 1
 345 77 l 1
 391 122 l 1
 413 167 l 1
 437 265 l 1
 437 335 l 1
 413 433 l 1
 391 478 l 1
 345 523 l 1
 303 544 l 1
 265 544 l 1
 223 523 l 1
 177 478 l 1
 155 433 l 1
 131 335 l 1
 131 265 l 1
 155 167 l 1
 177 122 l 1
 223 77 l 1
 265 56 l 1
 303 56 l 1
178 313 m 1
 178 391 l 1
 180 401 l 1
 186 410 l 1
 196 417 l 1
 206 419 l 1
 217 417 l 1
 226 410 l 1
 232 401 l 1
 234 341 l 1
 334 341 l 1
 336 401 l 1
 342 410 l 1
 351 417 l 1
 362 419 l 1
 372 417 l 1
 382 410 l 1
 388 401 l 1
 390 391 l 1
 390 209 l 1
 388 199 l 1
 382 190 l 1
 372 183 l 1
 362 181 l 1
 351 183 l 1
 342 190 l 1
 336 199 l 1
 334 209 l 1
 334 259 l 1
 234 259 l 1
 232 199 l 1
 226 190 l 1
 217 183 l 1
 206 181 l 1
 196 183 l 1
 186 190 l 1
 180 199 l 1
 178 209 l 1
 178 313 l 1
EndSplineSet
Validated: 1
EndChar

StartChar: Iota
Encoding: 921 921 106
Width: 286
VWidth: 0
Flags: W
HStem: 0 56<42 102 184 244> 544 56<42 102 184 244>
VStem: 102 82<56 544>
LayerCount: 2
Back
Fore
SplineSet
102 544 m 1
 42 546 l 1
 32 552 l 1
 26 561 l 1
 24 572 l 1
 26 583 l 1
 32 592 l 1
 42 598 l 1
 52 600 l 1
 234 600 l 1
 244 598 l 1
 253 592 l 1
 259 583 l 1
 262 572 l 1
 259 561 l 1
 253 552 l 1
 244 546 l 1
 184 544 l 1
 184 56 l 1
 234 56 l 1
 244 54 l 1
 253 48 l 1
 259 39 l 1
 262 28 l 1
 259 17 l 1
 253 8 l 1
 244 2 l 1
 234 0 l 1
 52 0 l 1
 42 2 l 1
 32 8 l 1
 26 17 l 1
 24 28 l 1
 26 39 l 1
 32 48 l 1
 42 54 l 1
 102 56 l 1
 102 544 l 1
EndSplineSet
Validated: 1
EndChar

StartChar: Kappa
Encoding: 922 922 107
Width: 569
VWidth: 0
Flags: W
HStem: 0 56<40 101 183 243 377 413 506 554> 544 56<40 101 183 243 377 424 503 554>
VStem: 101 82<56 224 303 544>
LayerCount: 2
Back
Fore
SplineSet
101 544 m 1
 40 546 l 1
 31 552 l 1
 25 561 l 1
 23 572 l 1
 25 583 l 1
 31 592 l 1
 40 598 l 1
 51 600 l 1
 232 600 l 1
 243 598 l 1
 252 592 l 1
 258 583 l 1
 260 572 l 1
 258 561 l 1
 252 552 l 1
 243 546 l 1
 183 544 l 1
 183 303 l 1
 424 544 l 1
 388 544 l 1
 377 546 l 1
 368 552 l 1
 362 561 l 1
 360 572 l 1
 362 583 l 1
 368 592 l 1
 377 598 l 1
 388 600 l 1
 543 600 l 1
 554 598 l 1
 563 592 l 1
 569 583 l 1
 571 572 l 1
 569 561 l 1
 563 552 l 1
 554 546 l 1
 543 544 l 1
 503 544 l 1
 310 351 l 1
 506 56 l 1
 543 56 l 1
 554 54 l 1
 563 48 l 1
 569 39 l 1
 571 28 l 1
 569 17 l 1
 563 8 l 1
 554 2 l 1
 543 0 l 1
 388 0 l 1
 377 2 l 1
 368 8 l 1
 362 17 l 1
 360 28 l 1
 362 39 l 1
 368 48 l 1
 377 54 l 1
 388 56 l 1
 413 56 l 1
 254 295 l 1
 183 224 l 1
 183 56 l 1
 232 56 l 1
 243 54 l 1
 252 48 l 1
 258 39 l 1
 260 28 l 1
 258 17 l 1
 252 8 l 1
 243 2 l 1
 232 0 l 1
 51 0 l 1
 40 2 l 1
 31 8 l 1
 25 17 l 1
 23 28 l 1
 25 39 l 1
 31 48 l 1
 40 54 l 1
 51 56 l 1
 101 56 l 1
 101 544 l 1
EndSplineSet
Validated: 1
EndChar

StartChar: Lambda
Encoding: 923 923 108
Width: 517
VWidth: 0
Flags: W
HStem: 0 56<14 56 116 191 325 375 460 502> 580 20G<245 267>
LayerCount: 2
Back
Fore
SplineSet
56 56 m 1
 231 581 l 1
 237 590 l 1
 245 597 l 1
 256 600 l 1
 267 599 l 1
 279 590 l 1
 285 581 l 1
 460 56 l 1
 491 56 l 1
 502 54 l 1
 511 48 l 1
 517 39 l 1
 519 28 l 1
 517 17 l 1
 511 8 l 1
 502 2 l 1
 491 0 l 1
 336 0 l 1
 325 2 l 1
 316 8 l 1
 310 17 l 1
 308 28 l 1
 310 39 l 1
 316 48 l 1
 325 54 l 1
 375 56 l 1
 245 445 l 1
 116 56 l 1
 191 54 l 1
 200 48 l 1
 206 39 l 1
 208 28 l 1
 206 17 l 1
 200 8 l 1
 191 2 l 1
 180 0 l 1
 25 0 l 1
 14 2 l 1
 5 8 l 1
 -1 17 l 1
 -3 28 l 1
 -1 39 l 1
 5 48 l 1
 14 54 l 1
 25 56 l 1
 56 56 l 1
EndSplineSet
Validated: 1
EndChar

StartChar: Mu
Encoding: 924 924 109
Width: 648
VWidth: 0
Flags: W
HStem: 0 56<40 101 157 217 403 463 545 606> 544 56<40 101 545 606>
VStem: 101 56<56 399> 463 82<56 399>
LayerCount: 2
Back
Fore
SplineSet
101 544 m 1
 40 546 l 1
 31 552 l 1
 25 561 l 1
 23 572 l 1
 25 583 l 1
 31 592 l 1
 40 598 l 1
 51 600 l 1
 155 600 l 1
 167 597 l 1
 180 583 l 1
 323 155 l 1
 465 581 l 1
 470 590 l 1
 479 597 l 1
 491 600 l 1
 595 600 l 1
 606 598 l 1
 615 592 l 1
 621 583 l 1
 623 572 l 1
 621 561 l 1
 615 552 l 1
 606 546 l 1
 595 544 l 1
 545 544 l 1
 545 56 l 1
 595 56 l 1
 606 54 l 1
 615 48 l 1
 621 39 l 1
 623 28 l 1
 621 17 l 1
 615 8 l 1
 606 2 l 1
 595 0 l 1
 414 0 l 1
 403 2 l 1
 394 8 l 1
 388 17 l 1
 386 28 l 1
 388 39 l 1
 394 48 l 1
 403 54 l 1
 463 56 l 1
 463 399 l 1
 335 15 l 1
 328 7 l 1
 312 0 l 1
 301 1 l 1
 292 7 l 1
 283 19 l 1
 157 399 l 1
 157 56 l 1
 217 54 l 1
 226 48 l 1
 232 39 l 1
 234 28 l 1
 232 17 l 1
 226 8 l 1
 217 2 l 1
 206 0 l 1
 51 0 l 1
 40 2 l 1
 31 8 l 1
 25 17 l 1
 23 28 l 1
 25 39 l 1
 31 48 l 1
 40 54 l 1
 51 56 l 1
 101 56 l 1
 101 544 l 1
EndSplineSet
Validated: 1
EndChar

StartChar: Nu
Encoding: 925 925 110
Width: 595
VWidth: 0
Flags: W
HStem: 0 56<40 101 157 217> 544 56<40 101 377 437 493 554>
VStem: 101 56<56 464> 437 56<177 544>
LayerCount: 2
Back
Fore
SplineSet
101 544 m 1
 40 546 l 1
 31 552 l 1
 25 561 l 1
 23 572 l 1
 25 583 l 1
 31 592 l 1
 40 598 l 1
 51 600 l 1
 154 600 l 1
 165 598 l 1
 174 592 l 1
 437 177 l 1
 437 544 l 1
 377 546 l 1
 368 552 l 1
 362 561 l 1
 360 572 l 1
 362 583 l 1
 368 592 l 1
 377 598 l 1
 388 600 l 1
 543 600 l 1
 554 598 l 1
 563 592 l 1
 569 583 l 1
 571 572 l 1
 569 561 l 1
 563 552 l 1
 554 546 l 1
 543 544 l 1
 493 544 l 1
 493 28 l 1
 488 12 l 1
 480 4 l 1
 470 0 l 1
 459 1 l 1
 449 5 l 1
 442 13 l 1
 157 464 l 1
 157 56 l 1
 217 54 l 1
 226 48 l 1
 232 39 l 1
 234 28 l 1
 232 17 l 1
 226 8 l 1
 217 2 l 1
 206 0 l 1
 51 0 l 1
 40 2 l 1
 31 8 l 1
 25 17 l 1
 23 28 l 1
 25 39 l 1
 31 48 l 1
 40 54 l 1
 51 56 l 1
 101 56 l 1
 101 544 l 1
EndSplineSet
Validated: 1
EndChar

StartChar: Xi
Encoding: 926 926 111
Width: 571
VWidth: 0
Flags: W
HStem: 26 82<127 443> 259 82<231 339> 492 82<127 443>
CounterMasks: 1 e0
LayerCount: 2
Back
Fore
SplineSet
50 474 m 1
 76 603 l 1
 80 613 l 1
 88 621 l 1
 98 625 l 1
 109 625 l 1
 119 621 l 1
 127 613 l 1
 131 603 l 1
 127 574 l 1
 459 574 l 1
 465 603 l 1
 469 613 l 1
 477 621 l 1
 487 625 l 1
 498 625 l 1
 508 621 l 1
 516 613 l 1
 520 603 l 1
 494 463 l 1
 490 453 l 1
 482 445 l 1
 472 441 l 1
 461 441 l 1
 451 445 l 1
 443 453 l 1
 439 463 l 1
 443 492 l 1
 111 492 l 1
 101 453 l 1
 93 445 l 1
 83 441 l 1
 72 441 l 1
 62 445 l 1
 54 453 l 1
 50 463 l 1
 50 474 l 1
50 8 m 1
 76 137 l 1
 80 147 l 1
 88 155 l 1
 98 159 l 1
 109 159 l 1
 119 155 l 1
 127 147 l 1
 131 137 l 1
 127 108 l 1
 459 108 l 1
 465 137 l 1
 469 147 l 1
 477 155 l 1
 487 159 l 1
 498 159 l 1
 508 155 l 1
 516 147 l 1
 520 137 l 1
 494 -3 l 1
 490 -13 l 1
 482 -21 l 1
 472 -25 l 1
 461 -25 l 1
 451 -21 l 1
 443 -13 l 1
 439 -3 l 1
 443 26 l 1
 111 26 l 1
 101 -13 l 1
 93 -21 l 1
 83 -25 l 1
 72 -25 l 1
 62 -21 l 1
 54 -13 l 1
 50 -3 l 1
 50 8 l 1
154 241 m 1
 180 370 l 1
 184 380 l 1
 192 388 l 1
 202 392 l 1
 213 392 l 1
 223 388 l 1
 231 380 l 1
 235 370 l 1
 231 341 l 1
 355 341 l 1
 361 370 l 1
 365 380 l 1
 373 388 l 1
 383 392 l 1
 394 392 l 1
 404 388 l 1
 412 380 l 1
 416 370 l 1
 416 359 l 1
 390 230 l 1
 386 220 l 1
 378 212 l 1
 368 208 l 1
 357 208 l 1
 347 212 l 1
 339 220 l 1
 335 230 l 1
 339 259 l 1
 215 259 l 1
 205 220 l 1
 197 212 l 1
 187 208 l 1
 176 208 l 1
 166 212 l 1
 158 220 l 1
 154 230 l 1
 154 241 l 1
EndSplineSet
Validated: 1
EndChar

StartChar: Omicron
Encoding: 927 927 112
Width: 569
VWidth: 0
Flags: W
HStem: 0 56<265 303> 544 56<265 303>
VStem: 50 81<236.417 363.583> 437 82<236.417 363.583>
LayerCount: 2
Back
Fore
SplineSet
172 573 m 1
 256 600 l 1
 310 600 l 1
 396 573 l 1
 407 566 l 1
 459 514 l 1
 492 449 l 1
 518 346 l 1
 519 261 l 1
 490 145 l 1
 459 86 l 1
 407 34 l 1
 396 27 l 1
 319 1 l 1
 256 0 l 1
 172 27 l 1
 161 34 l 1
 109 86 l 1
 76 151 l 1
 50 254 l 1
 50 346 l 1
 76 449 l 1
 104 507 l 1
 161 566 l 1
 172 573 l 1
303 56 m 1
 345 77 l 1
 391 122 l 1
 413 167 l 1
 437 265 l 1
 437 335 l 1
 413 433 l 1
 391 478 l 1
 345 523 l 1
 303 544 l 1
 265 544 l 1
 223 523 l 1
 177 478 l 1
 155 433 l 1
 131 335 l 1
 131 265 l 1
 155 167 l 1
 177 122 l 1
 223 77 l 1
 265 56 l 1
 303 56 l 1
EndSplineSet
Validated: 1
EndChar

StartChar: Pi
Encoding: 928 928 113
Width: 621
VWidth: 0
Flags: W
HStem: 0 56<40 101 183 243 377 437 519 580> 544 56<40 101 183 437 519 580>
VStem: 101 82<56 544> 437 82<56 544>
LayerCount: 2
Back
Fore
SplineSet
101 544 m 1
 40 546 l 1
 31 552 l 1
 25 561 l 1
 23 572 l 1
 25 583 l 1
 31 592 l 1
 40 598 l 1
 51 600 l 1
 569 600 l 1
 580 598 l 1
 589 592 l 1
 595 583 l 1
 597 572 l 1
 595 561 l 1
 589 552 l 1
 580 546 l 1
 569 544 l 1
 519 544 l 1
 519 56 l 1
 569 56 l 1
 580 54 l 1
 589 48 l 1
 595 39 l 1
 597 28 l 1
 595 17 l 1
 589 8 l 1
 580 2 l 1
 569 0 l 1
 388 0 l 1
 377 2 l 1
 368 8 l 1
 362 17 l 1
 360 28 l 1
 362 39 l 1
 368 48 l 1
 377 54 l 1
 437 56 l 1
 437 544 l 1
 183 544 l 1
 183 56 l 1
 243 54 l 1
 252 48 l 1
 258 39 l 1
 260 28 l 1
 258 17 l 1
 252 8 l 1
 243 2 l 1
 232 0 l 1
 51 0 l 1
 40 2 l 1
 31 8 l 1
 25 17 l 1
 23 28 l 1
 25 39 l 1
 31 48 l 1
 40 54 l 1
 51 56 l 1
 101 56 l 1
 101 544 l 1
EndSplineSet
Validated: 1
EndChar

StartChar: Rho
Encoding: 929 929 114
Width: 569
VWidth: 0
Flags: W
HStem: 0 56<40 101 182 243> 259 56<182 355> 544 56<40 101 182 355>
VStem: 101 81<56 259 315 544> 437 82<397 462>
LayerCount: 2
Back
Fore
SplineSet
101 544 m 1
 40 546 l 1
 31 552 l 1
 25 561 l 1
 23 572 l 1
 25 583 l 1
 31 592 l 1
 40 598 l 1
 51 600 l 1
 364 600 l 1
 448 573 l 1
 459 566 l 1
 490 533 l 1
 516 481 l 1
 519 468 l 1
 519 391 l 1
 516 378 l 1
 490 326 l 1
 459 293 l 1
 448 286 l 1
 364 259 l 1
 182 259 l 1
 182 56 l 1
 232 56 l 1
 243 54 l 1
 252 48 l 1
 258 39 l 1
 260 28 l 1
 258 17 l 1
 252 8 l 1
 243 2 l 1
 232 0 l 1
 51 0 l 1
 40 2 l 1
 31 8 l 1
 25 17 l 1
 23 28 l 1
 25 39 l 1
 31 48 l 1
 40 54 l 1
 101 56 l 1
 101 544 l 1
182 544 m 1
 182 315 l 1
 355 315 l 1
 397 336 l 1
 416 355 l 1
 437 397 l 1
 437 462 l 1
 416 504 l 1
 397 523 l 1
 355 544 l 1
 182 544 l 1
EndSplineSet
Validated: 1
EndChar

StartChar: Sigma
Encoding: 931 931 115
Width: 544
VWidth: 0
Flags: W
HStem: 0 82<125 402> 544 56<130 393>
LayerCount: 2
Back
Fore
SplineSet
23 26 m 1
 28 44 l 1
 211 295 l 1
 28 556 l 1
 23 572 l 1
 27 587 l 1
 40 598 l 1
 51 600 l 1
 439 600 l 1
 457 593 l 1
 467 577 l 1
 493 421 l 1
 489 401 l 1
 472 389 l 1
 452 392 l 1
 439 408 l 1
 393 544 l 1
 130 544 l 1
 281 329 l 1
 285 318 l 1
 285 307 l 1
 281 296 l 1
 125 82 l 1
 402 82 l 1
 439 192 l 1
 452 208 l 1
 472 211 l 1
 489 199 l 1
 493 179 l 1
 464 14 l 1
 449 2 l 1
 439 0 l 1
 51 0 l 1
 40 2 l 1
 31 8 l 1
 23 26 l 1
EndSplineSet
Validated: 1
EndChar

StartChar: Tau
Encoding: 932 932 116
Width: 491
VWidth: 0
Flags: W
HStem: 0 56<144 204 286 346> 544 56<100 204 286 390>
VStem: 204 82<56 544> 412 55<417 454>
LayerCount: 2
Back
Fore
SplineSet
100 544 m 1
 75 402 l 1
 59 390 l 1
 38 391 l 1
 25 406 l 1
 23 417 l 1
 23 572 l 1
 25 583 l 1
 31 592 l 1
 40 598 l 1
 51 600 l 1
 439 600 l 1
 450 598 l 1
 459 592 l 1
 465 583 l 1
 467 417 l 1
 460 398 l 1
 442 389 l 1
 422 394 l 1
 412 412 l 1
 390 544 l 1
 286 544 l 1
 286 56 l 1
 336 56 l 1
 346 54 l 1
 355 48 l 1
 361 39 l 1
 364 28 l 1
 361 17 l 1
 355 8 l 1
 346 2 l 1
 336 0 l 1
 154 0 l 1
 144 2 l 1
 134 8 l 1
 128 17 l 1
 126 28 l 1
 128 39 l 1
 134 48 l 1
 144 54 l 1
 204 56 l 1
 204 544 l 1
 100 544 l 1
EndSplineSet
Validated: 1
EndChar

StartChar: Upsilon
Encoding: 933 933 117
Width: 491
VWidth: 0
Flags: W
HStem: 0 56<144 204 286 346> 518 82<114 143 347 376>
VStem: 25 52<432 483> 204 82<56 415.304> 411 56<432 483>
LayerCount: 2
Back
Fore
SplineSet
23 494 m 1
 26 507 l 1
 57 566 l 1
 83 592 l 1
 92 598 l 1
 102 600 l 1
 165 598 l 1
 200 566 l 1
 232 505 l 1
 245 454 l 1
 258 505 l 1
 285 559 l 1
 325 598 l 1
 387 600 l 1
 398 598 l 1
 438 559 l 1
 465 505 l 1
 467 494 l 1
 467 442 l 1
 465 432 l 1
 459 423 l 1
 450 417 l 1
 439 414 l 1
 429 417 l 1
 419 423 l 1
 413 432 l 1
 411 442 l 1
 411 483 l 1
 376 518 l 1
 347 518 l 1
 309 480 l 1
 286 387 l 1
 286 56 l 1
 336 56 l 1
 346 54 l 1
 355 48 l 1
 361 39 l 1
 364 28 l 1
 361 17 l 1
 355 8 l 1
 346 2 l 1
 336 0 l 1
 154 0 l 1
 144 2 l 1
 134 8 l 1
 128 17 l 1
 126 28 l 1
 128 39 l 1
 134 48 l 1
 144 54 l 1
 154 56 l 1
 204 56 l 1
 204 387 l 1
 181 480 l 1
 143 518 l 1
 114 518 l 1
 79 483 l 1
 77 432 l 1
 70 423 l 1
 61 417 l 1
 51 414 l 1
 40 417 l 1
 31 423 l 1
 25 432 l 1
 23 494 l 1
EndSplineSet
Validated: 1
EndChar

StartChar: Phi
Encoding: 934 934 118
Width: 543
VWidth: 0
Flags: W
HStem: 0 56<170 230 312 372> 131 55<213 230 312 329> 414 55<213 230 312 329> 544 56<170 230 312 372>
VStem: 49 82<268 332> 230 82<56 130 186 414 470 544> 411 82<268 332>
CounterMasks: 1 0e
LayerCount: 2
Back
Fore
SplineSet
120 443 m 1
 197 469 l 1
 230 470 l 1
 230 544 l 1
 180 544 l 1
 170 546 l 1
 160 552 l 1
 154 561 l 1
 152 572 l 1
 154 583 l 1
 160 592 l 1
 170 598 l 1
 180 600 l 1
 362 600 l 1
 372 598 l 1
 381 592 l 1
 387 583 l 1
 390 572 l 1
 387 561 l 1
 381 552 l 1
 372 546 l 1
 312 544 l 1
 312 470 l 1
 345 469 l 1
 422 443 l 1
 433 436 l 1
 459 410 l 1
 490 351 l 1
 493 339 l 1
 493 261 l 1
 490 249 l 1
 464 197 l 1
 433 164 l 1
 422 157 l 1
 345 131 l 1
 312 130 l 1
 312 56 l 1
 362 56 l 1
 372 54 l 1
 381 48 l 1
 387 39 l 1
 390 28 l 1
 387 17 l 1
 381 8 l 1
 372 2 l 1
 362 0 l 1
 180 0 l 1
 170 2 l 1
 160 8 l 1
 154 17 l 1
 152 28 l 1
 154 39 l 1
 160 48 l 1
 170 54 l 1
 230 56 l 1
 230 130 l 1
 197 131 l 1
 120 157 l 1
 109 164 l 1
 78 197 l 1
 52 249 l 1
 49 261 l 1
 49 339 l 1
 52 351 l 1
 83 410 l 1
 109 436 l 1
 120 443 l 1
230 414 m 1
 213 414 l 1
 171 394 l 1
 151 374 l 1
 131 332 l 1
 131 268 l 1
 151 226 l 1
 171 206 l 1
 213 186 l 1
 230 186 l 1
 230 414 l 1
329 186 m 1
 371 206 l 1
 390 226 l 1
 411 268 l 1
 411 332 l 1
 390 374 l 1
 371 394 l 1
 329 414 l 1
 312 414 l 1
 312 186 l 1
 329 186 l 1
EndSplineSet
Validated: 1
EndChar

StartChar: Chi
Encoding: 935 935 119
Width: 517
VWidth: 0
Flags: W
HStem: 0 56<14 62 129 191 325 363 455 502> 544 56<14 61 153 191 325 387 454 502>
LayerCount: 2
Back
Fore
SplineSet
62 56 m 1
 218 290 l 1
 61 544 l 1
 25 544 l 1
 14 546 l 1
 5 552 l 1
 -1 561 l 1
 -3 572 l 1
 -1 583 l 1
 5 592 l 1
 14 598 l 1
 25 600 l 1
 180 600 l 1
 191 598 l 1
 200 592 l 1
 206 583 l 1
 208 572 l 1
 206 561 l 1
 200 552 l 1
 191 546 l 1
 180 544 l 1
 153 544 l 1
 266 362 l 1
 387 544 l 1
 336 544 l 1
 325 546 l 1
 316 552 l 1
 310 561 l 1
 308 572 l 1
 310 583 l 1
 316 592 l 1
 325 598 l 1
 336 600 l 1
 491 600 l 1
 502 598 l 1
 511 592 l 1
 517 583 l 1
 519 572 l 1
 517 561 l 1
 511 552 l 1
 502 546 l 1
 491 544 l 1
 454 544 l 1
 298 310 l 1
 455 56 l 1
 491 56 l 1
 502 54 l 1
 511 48 l 1
 517 39 l 1
 519 28 l 1
 517 17 l 1
 511 8 l 1
 502 2 l 1
 491 0 l 1
 336 0 l 1
 325 2 l 1
 316 8 l 1
 310 17 l 1
 308 28 l 1
 310 39 l 1
 316 48 l 1
 325 54 l 1
 336 56 l 1
 363 56 l 1
 250 238 l 1
 129 56 l 1
 180 56 l 1
 191 54 l 1
 200 48 l 1
 206 39 l 1
 208 28 l 1
 206 17 l 1
 200 8 l 1
 191 2 l 1
 180 0 l 1
 25 0 l 1
 14 2 l 1
 5 8 l 1
 -1 17 l 1
 -3 28 l 1
 -1 39 l 1
 5 48 l 1
 14 54 l 1
 25 56 l 1
 62 56 l 1
EndSplineSet
Validated: 1
EndChar

StartChar: Psi
Encoding: 936 936 120
Width: 595
VWidth: 0
Flags: W
HStem: 0 56<196 256 338 398> 544 56<196 256 338 398>
VStem: 256 82<56 156 216 544>
LayerCount: 2
Back
Fore
SplineSet
57 436 m 1
 67 443 l 1
 77 445 l 1
 87 442 l 1
 141 416 l 1
 150 408 l 1
 156 397 l 1
 181 297 l 1
 203 252 l 1
 223 232 l 1
 256 216 l 1
 256 544 l 1
 206 544 l 1
 196 546 l 1
 186 552 l 1
 180 561 l 1
 178 572 l 1
 180 583 l 1
 186 592 l 1
 196 598 l 1
 206 600 l 1
 388 600 l 1
 398 598 l 1
 407 592 l 1
 413 583 l 1
 416 572 l 1
 413 561 l 1
 407 552 l 1
 398 546 l 1
 338 544 l 1
 338 216 l 1
 371 232 l 1
 391 252 l 1
 413 297 l 1
 438 397 l 1
 443 408 l 1
 453 416 l 1
 505 442 l 1
 517 445 l 1
 528 442 l 1
 537 436 l 1
 563 410 l 1
 569 401 l 1
 571 391 l 1
 569 380 l 1
 563 371 l 1
 554 365 l 1
 543 363 l 1
 532 365 l 1
 517 376 l 1
 492 280 l 1
 459 215 l 1
 433 190 l 1
 422 183 l 1
 338 156 l 1
 338 56 l 1
 388 56 l 1
 398 54 l 1
 407 48 l 1
 413 39 l 1
 416 28 l 1
 413 17 l 1
 407 8 l 1
 398 2 l 1
 388 0 l 1
 206 0 l 1
 196 2 l 1
 186 8 l 1
 180 17 l 1
 178 28 l 1
 180 39 l 1
 186 48 l 1
 196 54 l 1
 206 56 l 1
 256 56 l 1
 256 156 l 1
 172 183 l 1
 161 190 l 1
 129 223 l 1
 101 280 l 1
 77 376 l 1
 62 365 l 1
 51 363 l 1
 40 365 l 1
 31 371 l 1
 25 380 l 1
 23 391 l 1
 25 401 l 1
 57 436 l 1
EndSplineSet
Validated: 1
EndChar

StartChar: uni03A9
Encoding: 937 937 121
Width: 569
VWidth: 0
Flags: W
HStem: 0 82<114 148 420 454> 544 56<239 329>
VStem: 49 82<291.276 425> 437 81<304 433.318>
LayerCount: 2
Back
Fore
SplineSet
76 19 m 1
 50 97 l 1
 49 108 l 1
 52 118 l 1
 58 127 l 1
 68 132 l 1
 79 134 l 1
 89 131 l 1
 98 124 l 1
 103 115 l 1
 114 82 l 1
 148 82 l 1
 78 223 l 1
 49 313 l 1
 50 425 l 1
 76 503 l 1
 83 514 l 1
 135 566 l 1
 146 573 l 1
 230 600 l 1
 338 600 l 1
 422 573 l 1
 433 566 l 1
 485 514 l 1
 492 503 l 1
 519 417 l 1
 518 304 l 1
 490 223 l 1
 420 82 l 1
 454 82 l 1
 465 115 l 1
 470 124 l 1
 479 131 l 1
 489 134 l 1
 500 132 l 1
 510 127 l 1
 516 118 l 1
 519 108 l 1
 518 97 l 1
 492 19 l 1
 486 9 l 1
 477 2 l 1
 465 0 l 1
 362 0 l 1
 351 2 l 1
 341 9 l 1
 335 18 l 1
 334 30 l 1
 337 41 l 1
 388 142 l 1
 413 217 l 1
 437 316 l 1
 437 412 l 1
 415 479 l 1
 371 523 l 1
 329 544 l 1
 239 544 l 1
 197 523 l 1
 153 479 l 1
 131 412 l 1
 131 316 l 1
 155 217 l 1
 180 142 l 1
 231 41 l 1
 234 30 l 1
 233 18 l 1
 227 9 l 1
 217 2 l 1
 206 0 l 1
 103 0 l 1
 91 2 l 1
 82 9 l 1
 76 19 l 1
EndSplineSet
Validated: 1
EndChar

StartChar: alpha
Encoding: 945 945 122
Width: 595
VWidth: 0
Flags: W
HStem: 0 56<187 226> 363 54<265 298> 399 20G<479 500>
VStem: 49 82<112 179>
LayerCount: 2
Back
Fore
SplineSet
172 391 m 1xd0
 256 419 l 1xb0
 321 417 l 1xd0
 382 385 l 1
 413 325 l 1
 422 290 l 1
 439 324 l 1
 470 409 l 1
 479 416 l 1
 489 419 l 1xb0
 500 417 l 1
 510 412 l 1
 516 403 l 1
 519 393 l 1
 518 382 l 1
 490 300 l 1
 443 206 l 1
 466 115 l 1
 488 70 l 1
 503 56 l 1
 528 54 l 1
 537 48 l 1
 543 39 l 1
 545 28 l 1
 543 17 l 1
 537 8 l 1
 528 2 l 1
 517 0 l 1
 491 0 l 1
 481 2 l 1
 427 29 l 1
 414 41 l 1
 388 93 l 1
 383 113 l 1
 304 34 l 1
 245 3 l 1
 232 0 l 1
 178 0 l 1
 84 33 l 1
 52 93 l 1
 49 106 l 1
 50 192 l 1
 76 270 l 1
 104 325 l 1
 161 385 l 1
 172 391 l 1xd0
298 363 m 1xd0
 265 363 l 1
 223 342 l 1
 177 296 l 1
 155 250 l 1
 131 179 l 1
 131 112 l 1
 149 75 l 1
 187 56 l 1
 226 56 l 1
 267 77 l 1
 340 149 l 1
 365 186 l 1
 335 303 l 1
 313 348 l 1
 298 363 l 1xd0
EndSplineSet
Validated: 1
EndChar

StartChar: beta
Encoding: 946 946 123
Width: 544
VWidth: 0
Flags: W
HStem: -181 21G<38 64 64 85> 0 56<240 278> 544 55<343 377>
VStem: 361 82<138 203> 412 82<449 509>
LayerCount: 2
Back
Fore
SplineSet
64 -178 m 1xf0
 48 -181 l 1
 38 -178 l 1
 30 -171 l 1
 25 -161 l 1
 24 -150 l 1
 50 57 l 1
 76 214 l 1
 102 320 l 1
 130 403 l 1
 182 507 l 1
 239 566 l 1
 250 573 l 1
 328 599 l 1
 389 600 l 1
 399 598 l 1
 460 566 l 1
 486 540 l 1
 492 531 l 1
 494 520 l 1
 494 442 l 1xe8
 491 430 l 1
 465 378 l 1
 434 345 l 1
 423 338 l 1
 369 320 l 1
 414 274 l 1
 440 222 l 1
 443 209 l 1
 443 132 l 1
 440 119 l 1
 414 67 l 1
 383 34 l 1
 372 27 l 1
 287 0 l 1
 233 0 l 1
 221 3 l 1
 169 29 l 1
 134 63 l 1
 106 -157 l 1
 102 -167 l 1
 95 -175 l 1
 85 -180 l 1
 74 -181 l 1
 64 -178 l 1xf0
152 174 m 1
 180 95 l 1
 198 77 l 1
 240 56 l 1
 278 56 l 1
 320 77 l 1
 340 96 l 1
 361 138 l 1
 361 203 l 1xf0
 340 245 l 1
 296 288 l 1
 217 316 l 1
 208 326 l 1
 205 339 l 1
 211 356 l 1
 222 365 l 1
 330 367 l 1
 372 388 l 1
 392 407 l 1
 412 449 l 1
 412 509 l 1
 377 544 l 1
 343 544 l 1
 302 523 l 1
 256 478 l 1
 207 380 l 1
 182 305 l 1
 152 174 l 1
EndSplineSet
Validated: 1
EndChar

StartChar: gamma
Encoding: 947 947 124
Width: 517
VWidth: 0
Flags: W
HStem: -181 21G<142 167 167 192> 337 82<116 193>
VStem: 256 56<185 257>
LayerCount: 2
Back
Fore
SplineSet
67 316 m 1
 45 293 l 1
 36 287 l 1
 25 285 l 1
 14 287 l 1
 5 293 l 1
 -1 302 l 1
 -3 313 l 1
 -1 324 l 1
 5 333 l 1
 57 385 l 1
 116 416 l 1
 128 419 l 1
 180 419 l 1
 193 416 l 1
 245 390 l 1
 278 359 l 1
 285 348 l 1
 310 270 l 1
 312 185 l 1
 387 324 l 1
 418 409 l 1
 427 416 l 1
 437 419 l 1
 452 415 l 1
 463 419 l 1
 474 417 l 1
 484 412 l 1
 490 403 l 1
 493 393 l 1
 466 304 l 1
 438 249 l 1
 307 64 l 1
 266 -4 l 1
 207 -163 l 1
 201 -172 l 1
 192 -179 l 1
 181 -181 l 1
 167 -178 l 1
 152 -181 l 1
 142 -178 l 1
 133 -172 l 1
 128 -162 l 1
 126 -151 l 1
 181 -37 l 1
 215 20 l 1
 231 62 l 1
 256 161 l 1
 256 257 l 1
 235 319 l 1
 200 337 l 1
 109 337 l 1
 67 316 l 1
EndSplineSet
Validated: 1
EndChar

StartChar: delta
Encoding: 948 948 125
Width: 492
VWidth: 0
Flags: W
HStem: 0 56<187 225>
VStem: 49 81<119 205> 334 81<214 300>
LayerCount: 2
Back
Fore
SplineSet
109 33 m 1
 77 67 l 1
 52 119 l 1
 49 132 l 1
 50 218 l 1
 76 296 l 1
 137 387 l 1
 223 417 l 1
 262 419 l 1
 233 456 l 1
 207 508 l 1
 204 520 l 1
 206 583 l 1
 212 592 l 1
 247 624 l 1
 310 626 l 1
 322 623 l 1
 381 592 l 1
 433 540 l 1
 441 526 l 1
 441 515 l 1
 437 505 l 1
 424 494 l 1
 413 492 l 1
 398 497 l 1
 327 544 l 1
 295 544 l 1
 286 534 l 1
 286 501 l 1
 308 457 l 1
 332 420 l 1
 383 356 l 1
 412 300 l 1
 415 287 l 1
 415 209 l 1
 388 123 l 1
 327 32 l 1
 241 1 l 1
 180 0 l 1
 168 3 l 1
 109 33 l 1
315 344 m 1
 277 363 l 1
 239 363 l 1
 199 343 l 1
 154 275 l 1
 130 205 l 1
 130 112 l 1
 149 75 l 1
 187 56 l 1
 225 56 l 1
 265 76 l 1
 310 144 l 1
 334 214 l 1
 334 306 l 1
 315 344 l 1
EndSplineSet
Validated: 1
EndChar

StartChar: epsilon
Encoding: 949 949 126
Width: 465
VWidth: 0
Flags: W
HStem: 1 55<187 251> 363 56<192 277>
VStem: 49 81<112 146> 100 82<325 353>
LayerCount: 2
Back
Fore
SplineSet
123 237 m 1xe0
 158 244 l 1
 103 302 l 1
 100 313 l 1
 102 375 l 1
 116 390 l 1
 169 417 l 1
 284 419 l 1
 296 416 l 1
 355 385 l 1
 413 324 l 1
 415 313 l 1
 413 302 l 1
 407 293 l 1
 398 287 l 1
 387 285 l 1
 377 287 l 1
 368 293 l 1
 319 342 l 1
 277 363 l 1
 192 363 l 1
 182 353 l 1
 182 325 l 1xd0
 223 284 l 1
 276 256 l 1
 284 244 l 1
 286 231 l 1
 279 217 l 1
 267 209 l 1
 169 184 l 1
 130 146 l 1
 130 112 l 1
 149 75 l 1
 187 56 l 1
 251 56 l 1
 293 77 l 1
 351 132 l 1
 362 134 l 1
 372 132 l 1
 381 126 l 1
 387 116 l 1
 390 106 l 1
 387 95 l 1
 381 86 l 1
 330 34 l 1
 270 3 l 1
 258 0 l 1
 171 1 l 1
 94 27 l 1
 84 33 l 1
 77 41 l 1
 52 93 l 1
 49 106 l 1
 51 168 l 1
 109 229 l 1
 123 237 l 1xe0
EndSplineSet
Validated: 1
EndChar

StartChar: zeta
Encoding: 950 950 127
Width: 465
VWidth: 0
Flags: W
HStem: -179 54<218 246> 580 20G<271 293>
VStem: 49 81<138 179> 256 54<-116 -82>
LayerCount: 2
Back
Fore
SplineSet
324 393 m 1
 224 318 l 1
 153 246 l 1
 130 179 l 1
 130 138 l 1
 151 96 l 1
 198 50 l 1
 273 -1 l 1
 283 -11 l 1
 309 -63 l 1
 312 -76 l 1
 310 -138 l 1
 278 -173 l 1
 269 -179 l 1
 258 -181 l 1
 195 -179 l 1
 160 -147 l 1
 154 -138 l 1
 152 -127 l 1
 154 -117 l 1
 160 -108 l 1
 169 -102 l 1
 180 -99 l 1
 191 -102 l 1
 200 -108 l 1
 218 -125 l 1
 246 -125 l 1
 256 -116 l 1
 256 -82 l 1
 236 -43 l 1
 87 57 l 1
 77 67 l 1
 52 119 l 1
 49 132 l 1
 50 192 l 1
 76 270 l 1
 83 281 l 1
 165 362 l 1
 242 414 l 1
 268 427 l 1
 223 442 l 1
 212 449 l 1
 186 474 l 1
 180 484 l 1
 178 494 l 1
 178 520 l 1
 180 531 l 1
 186 540 l 1
 212 566 l 1
 271 597 l 1
 282 600 l 1
 293 599 l 1
 302 593 l 1
 309 585 l 1
 312 574 l 1
 310 563 l 1
 305 554 l 1
 296 547 l 1
 249 523 l 1
 234 509 l 1
 247 493 l 1
 314 470 l 1
 357 470 l 1
 441 496 l 1
 451 494 l 1
 465 479 l 1
 467 442 l 1
 465 432 l 1
 459 423 l 1
 450 417 l 1
 368 414 l 1
 324 393 l 1
EndSplineSet
Validated: 1
EndChar

StartChar: eta
Encoding: 951 951 128
Width: 571
VWidth: 0
Flags: W
HStem: -181 21G<329 350 350 377> 0 21G<96 117 117 143> 363 56<115 144 343 377>
VStem: 412 82<228.72 327>
LayerCount: 2
Back
Fore
SplineSet
75 322 m 1
 44 266 l 1
 35 260 l 1
 24 259 l 1
 13 262 l 1
 5 269 l 1
 -1 278 l 1
 -2 289 l 1
 27 351 l 1
 84 410 l 1
 93 417 l 1
 104 419 l 1
 192 417 l 1
 227 385 l 1
 233 375 l 1
 235 355 l 1
 272 390 l 1
 324 416 l 1
 337 419 l 1
 389 419 l 1
 399 417 l 1
 453 390 l 1
 492 350 l 1
 494 256 l 1
 468 126 l 1
 390 -161 l 1
 385 -170 l 1
 377 -178 l 1
 366 -181 l 1
 350 -178 l 1
 340 -181 l 1
 329 -180 l 1
 320 -175 l 1
 312 -167 l 1
 309 -157 l 1
 310 -146 l 1
 387 138 l 1
 412 264 l 1
 412 327 l 1
 377 363 l 1
 343 363 l 1
 302 342 l 1
 256 296 l 1
 208 199 l 1
 156 20 l 1
 152 11 l 1
 143 4 l 1
 133 0 l 1
 117 3 l 1
 107 0 l 1
 96 1 l 1
 86 6 l 1
 79 14 l 1
 76 25 l 1
 153 316 l 1
 153 353 l 1
 144 363 l 1
 115 363 l 1
 75 322 l 1
EndSplineSet
Validated: 1
EndChar

StartChar: theta
Encoding: 952 952 129
Width: 597
VWidth: 0
Flags: W
HStem: 2 54<245 278> 363 56<115 144> 544 56<374 403>
VStem: 128 81<112 216.538> 153 82<280.44 353> 284 55<460 509> 438 82<358 488>
LayerCount: 2
Back
Fore
SplineSet
75 322 m 1xee
 44 266 l 1
 35 260 l 1
 24 259 l 1
 14 262 l 1
 5 269 l 1
 -1 278 l 1
 -2 289 l 1
 27 351 l 1
 84 410 l 1
 93 417 l 1
 181 419 l 1
 192 417 l 1
 227 385 l 1
 233 375 l 1
 235 365 l 1
 235 313 l 1xee
 209 181 l 1
 209 112 l 1
 230 70 l 1
 245 56 l 1
 278 56 l 1
 318 76 l 1
 364 146 l 1
 389 194 l 1
 408 254 l 1
 365 297 l 1
 310 382 l 1
 284 460 l 1
 283 520 l 1
 285 531 l 1
 291 540 l 1
 352 598 l 1
 415 600 l 1
 425 598 l 1
 486 566 l 1
 517 507 l 1
 520 494 l 1
 520 391 l 1
 495 259 l 1
 542 225 l 1
 546 215 l 1
 546 204 l 1
 542 194 l 1
 534 186 l 1
 524 182 l 1
 513 182 l 1
 503 186 l 1
 477 203 l 1
 464 168 l 1
 412 90 l 1
 352 31 l 1
 298 3 l 1
 285 0 l 1
 223 2 l 1
 162 34 l 1
 131 93 l 1
 128 106 l 1
 128 189 l 1xf6
 153 316 l 1
 153 353 l 1
 144 363 l 1
 115 363 l 1
 75 322 l 1xee
423 318 m 1
 438 393 l 1
 438 488 l 1
 418 530 l 1
 403 544 l 1
 374 544 l 1
 339 509 l 1
 339 473 l 1
 362 403 l 1
 410 331 l 1
 423 318 l 1
EndSplineSet
Validated: 1
EndChar

StartChar: iota
Encoding: 953 953 130
Width: 311
VWidth: 0
Flags: W
HStem: 0 56<141 169> 398 20G<141 167 167 198>
VStem: 51 80<66 130>
LayerCount: 2
Back
Fore
SplineSet
76 217 m 1
 128 398 l 1
 133 408 l 1
 141 415 l 1
 152 418 l 1
 167 415 l 1
 178 418 l 1
 189 418 l 1
 198 413 l 1
 205 404 l 1
 209 394 l 1
 208 383 l 1
 156 202 l 1
 131 102 l 1
 131 66 l 1
 141 56 l 1
 169 56 l 1
 210 96 l 1
 234 144 l 1
 240 153 l 1
 250 158 l 1
 261 160 l 1
 271 157 l 1
 280 150 l 1
 285 140 l 1
 287 130 l 1
 284 119 l 1
 253 60 l 1
 192 2 l 1
 103 0 l 1
 92 2 l 1
 83 8 l 1
 51 43 l 1
 50 113 l 1
 76 217 l 1
EndSplineSet
Validated: 1
EndChar

StartChar: kappa
Encoding: 954 954 131
Width: 517
VWidth: 0
Flags: W
HStem: 0 21G<43 64 64 90 273 348> 398 20G<141 167 167 198 375 450>
LayerCount: 2
Back
Fore
SplineSet
24 36 m 1
 127 398 l 1
 132 408 l 1
 141 415 l 1
 151 418 l 1
 167 415 l 1
 177 418 l 1
 188 418 l 1
 198 413 l 1
 205 404 l 1
 208 394 l 1
 173 263 l 1
 216 284 l 1
 316 385 l 1
 375 416 l 1
 388 419 l 1
 450 417 l 1
 485 385 l 1
 491 375 l 1
 493 365 l 1
 491 354 l 1
 485 345 l 1
 476 339 l 1
 465 337 l 1
 429 339 l 1
 402 363 l 1
 394 363 l 1
 352 342 l 1
 243 235 l 1
 253 228 l 1
 259 218 l 1
 308 69 l 1
 321 56 l 1
 329 56 l 1
 368 76 l 1
 424 155 l 1
 434 159 l 1
 445 159 l 1
 455 155 l 1
 463 147 l 1
 467 137 l 1
 467 126 l 1
 463 116 l 1
 411 38 l 1
 400 29 l 1
 348 3 l 1
 336 0 l 1
 284 0 l 1
 273 2 l 1
 264 8 l 1
 238 34 l 1
 231 45 l 1
 182 194 l 1
 169 207 l 1
 157 207 l 1
 104 20 l 1
 99 11 l 1
 90 4 l 1
 80 0 l 1
 64 3 l 1
 54 0 l 1
 43 1 l 1
 33 6 l 1
 26 14 l 1
 23 25 l 1
 24 36 l 1
EndSplineSet
Validated: 1
EndChar

StartChar: lambda
Encoding: 955 955 132
Width: 517
VWidth: 0
Flags: W
HStem: 0 21G<37 63 63 86 427 476> 544 56<66 117>
LayerCount: 2
Back
Fore
SplineSet
26 42 m 1
 216 374 l 1
 157 504 l 1
 117 544 l 1
 66 546 l 1
 57 552 l 1
 51 561 l 1
 49 572 l 1
 51 583 l 1
 57 592 l 1
 66 598 l 1
 128 600 l 1
 139 598 l 1
 193 571 l 1
 231 533 l 1
 258 479 l 1
 413 118 l 1
 436 70 l 1
 451 56 l 1
 476 54 l 1
 485 48 l 1
 491 39 l 1
 493 28 l 1
 491 17 l 1
 485 8 l 1
 476 2 l 1
 439 0 l 1
 427 3 l 1
 368 34 l 1
 336 95 l 1
 246 304 l 1
 102 15 l 1
 95 7 l 1
 86 1 l 1
 75 0 l 1
 63 4 l 1
 47 0 l 1
 37 4 l 1
 29 11 l 1
 24 21 l 1
 23 32 l 1
 26 42 l 1
EndSplineSet
Validated: 1
EndChar

StartChar: uni03BC
Encoding: 956 956 133
Width: 597
VWidth: 0
Flags: W
HStem: -181 21G<18 40 40 66> 0 56<219 253 452 481> 398 20G<168 194 194 225 453 479 479 509>
LayerCount: 2
Back
Fore
SplineSet
-1 -146 m 1
 155 398 l 1
 160 408 l 1
 168 415 l 1
 178 418 l 1
 194 415 l 1
 204 418 l 1
 215 418 l 1
 225 413 l 1
 232 404 l 1
 235 394 l 1
 204 276 l 1
 184 155 l 1
 184 91 l 1
 219 56 l 1
 253 56 l 1
 294 77 l 1
 341 124 l 1
 381 183 l 1
 439 398 l 1
 444 408 l 1
 453 415 l 1
 463 418 l 1
 479 415 l 1
 489 418 l 1
 500 418 l 1
 509 413 l 1
 517 405 l 1
 520 394 l 1
 519 383 l 1
 443 102 l 1
 443 66 l 1
 452 56 l 1
 481 56 l 1
 521 96 l 1
 552 153 l 1
 561 158 l 1
 572 160 l 1
 583 157 l 1
 591 150 l 1
 597 140 l 1
 598 130 l 1
 595 119 l 1
 564 60 l 1
 512 8 l 1
 503 2 l 1
 492 0 l 1
 404 2 l 1
 369 34 l 1
 363 43 l 1
 361 64 l 1
 324 29 l 1
 272 3 l 1
 259 0 l 1
 207 0 l 1
 197 2 l 1
 188 8 l 1
 141 55 l 1
 79 -161 l 1
 74 -171 l 1
 66 -178 l 1
 55 -181 l 1
 40 -178 l 1
 29 -181 l 1
 18 -180 l 1
 9 -175 l 1
 2 -167 l 1
 -2 -157 l 1
 -1 -146 l 1
EndSplineSet
Validated: 1
EndChar

StartChar: nu
Encoding: 957 957 134
Width: 517
VWidth: 0
Flags: W
HStem: 0 21G<84 111> 363 56<66 122>
LayerCount: 2
Back
Fore
SplineSet
75 32 m 1
 122 363 l 1
 77 363 l 1
 66 365 l 1
 57 371 l 1
 51 380 l 1
 49 391 l 1
 51 401 l 1
 57 410 l 1
 66 417 l 1
 77 419 l 1
 185 418 l 1
 200 410 l 1
 208 397 l 1
 182 230 l 1
 156 100 l 1
 147 72 l 1
 170 80 l 1
 218 104 l 1
 292 153 l 1
 339 200 l 1
 387 297 l 1
 417 407 l 1
 425 415 l 1
 435 418 l 1
 452 415 l 1
 463 419 l 1
 474 417 l 1
 484 412 l 1
 490 403 l 1
 493 393 l 1
 492 382 l 1
 466 304 l 1
 438 249 l 1
 385 168 l 1
 330 112 l 1
 245 55 l 1
 189 27 l 1
 111 1 l 1
 99 0 l 1
 84 7 l 1
 76 19 l 1
 75 32 l 1
EndSplineSet
Validated: 1
EndChar

StartChar: xi
Encoding: 958 958 135
Width: 439
VWidth: 0
Flags: W
HStem: -181 56<169 225> 181 56<265 346> 414 56<314 398> 580 20G<271 293>
VStem: 51 79<66 99> 103 79<299 332> 256 56<-110 -87>
LayerCount: 2
Back
Fore
SplineSet
147 211 m 1xfa
 162 214 l 1
 103 276 l 1
 100 339 l 1
 103 351 l 1
 134 410 l 1
 194 442 l 1
 214 447 l 1
 180 484 l 1
 178 520 l 1
 180 531 l 1
 186 540 l 1
 219 571 l 1
 271 597 l 1
 282 600 l 1
 293 599 l 1
 302 593 l 1
 309 585 l 1
 312 574 l 1
 310 563 l 1
 305 554 l 1
 249 523 l 1
 234 506 l 1
 247 493 l 1
 314 470 l 1
 398 468 l 1
 407 462 l 1
 413 453 l 1
 415 442 l 1
 413 432 l 1
 407 423 l 1
 398 417 l 1
 314 414 l 1
 243 391 l 1
 201 370 l 1
 182 332 l 1
 182 299 l 1xf6
 223 258 l 1
 265 237 l 1
 346 235 l 1
 355 229 l 1
 361 220 l 1
 364 209 l 1
 361 199 l 1
 355 190 l 1
 346 183 l 1
 262 181 l 1
 191 157 l 1
 149 137 l 1
 130 99 l 1
 130 66 l 1
 171 25 l 1
 270 -25 l 1
 310 -65 l 1
 312 -127 l 1
 305 -146 l 1
 245 -178 l 1
 232 -181 l 1
 169 -179 l 1
 160 -173 l 1
 154 -164 l 1
 152 -153 l 1
 154 -143 l 1
 160 -134 l 1
 169 -127 l 1
 225 -125 l 1
 256 -110 l 1
 256 -87 l 1
 242 -74 l 1
 118 -24 l 1
 109 -18 l 1
 51 43 l 1
 49 106 l 1
 52 118 l 1
 77 170 l 1
 90 183 l 1
 147 211 l 1xfa
EndSplineSet
Validated: 1
EndChar

StartChar: omicron
Encoding: 959 959 136
Width: 465
VWidth: 0
Flags: W
HStem: 0 56<187 225> 363 56<239 277>
VStem: 49 81<119 205> 334 81<214 300>
LayerCount: 2
Back
Fore
SplineSet
109 33 m 1
 77 67 l 1
 52 119 l 1
 49 132 l 1
 49 209 l 1
 76 296 l 1
 131 380 l 1
 145 391 l 1
 232 419 l 1
 284 419 l 1
 296 416 l 1
 354 386 l 1
 387 351 l 1
 412 300 l 1
 415 287 l 1
 415 209 l 1
 388 123 l 1
 333 38 l 1
 319 27 l 1
 232 0 l 1
 180 0 l 1
 168 3 l 1
 109 33 l 1
149 75 m 1
 187 56 l 1
 225 56 l 1
 265 76 l 1
 310 144 l 1
 334 214 l 1
 334 306 l 1
 315 344 l 1
 277 363 l 1
 239 363 l 1
 199 343 l 1
 154 275 l 1
 130 205 l 1
 130 112 l 1
 149 75 l 1
EndSplineSet
Validated: 1
EndChar

StartChar: pi
Encoding: 960 960 137
Width: 570
VWidth: 0
Flags: W
HStem: 0 21G<121 143 143 170 378 402 402 427> 337 82<186 195 255 361 419 529>
VStem: 195 60<314.098 337> 361 58<243.565 337>
LayerCount: 2
Back
Fore
SplineSet
24 312 m 1
 25 322 l 1
 31 331 l 1
 84 385 l 1
 95 391 l 1
 181 419 l 1
 518 419 l 1
 529 417 l 1
 538 410 l 1
 544 401 l 1
 546 391 l 1
 543 378 l 1
 546 365 l 1
 544 354 l 1
 538 345 l 1
 529 339 l 1
 419 337 l 1
 442 30 l 1
 441 19 l 1
 436 10 l 1
 427 3 l 1
 417 0 l 1
 402 4 l 1
 389 0 l 1
 378 2 l 1
 369 8 l 1
 363 17 l 1
 361 28 l 1
 361 337 l 1
 255 337 l 1
 183 22 l 1
 178 12 l 1
 170 4 l 1
 160 0 l 1
 143 4 l 1
 132 0 l 1
 121 1 l 1
 112 6 l 1
 105 15 l 1
 102 25 l 1
 103 36 l 1
 195 337 l 1
 186 337 l 1
 114 313 l 1
 54 285 l 1
 43 286 l 1
 34 292 l 1
 27 300 l 1
 24 312 l 1
EndSplineSet
Validated: 1
EndChar

StartChar: rho
Encoding: 961 961 138
Width: 492
VWidth: 0
Flags: W
HStem: -181 21G<-8 13 13 39> 0 56<214 252> 363 56<266 304>
VStem: 361 80<214 300>
LayerCount: 2
Back
Fore
SplineSet
13 -178 m 1
 3 -181 l 1
 -8 -180 l 1
 -17 -175 l 1
 -25 -167 l 1
 -28 -157 l 1
 -27 -146 l 1
 77 217 l 1
 106 303 l 1
 164 387 l 1
 250 417 l 1
 311 419 l 1
 323 416 l 1
 375 390 l 1
 414 351 l 1
 439 300 l 1
 442 287 l 1
 441 200 l 1
 412 116 l 1
 354 32 l 1
 268 1 l 1
 207 0 l 1
 195 3 l 1
 143 29 l 1
 115 55 l 1
 53 -161 l 1
 48 -171 l 1
 39 -178 l 1
 29 -181 l 1
 13 -178 l 1
266 363 m 1
 226 343 l 1
 181 275 l 1
 139 140 l 1
 154 95 l 1
 172 77 l 1
 214 56 l 1
 252 56 l 1
 292 76 l 1
 337 144 l 1
 361 214 l 1
 361 306 l 1
 342 344 l 1
 304 363 l 1
 266 363 l 1
EndSplineSet
Validated: 1
EndChar

StartChar: sigma
Encoding: 963 963 139
Width: 543
VWidth: 0
Flags: W
HStem: 0 56<187 225> 339 80<394 502> 363 56<239 277>
VStem: 49 82<119 226.304> 334 80<214 300>
LayerCount: 2
Back
Fore
SplineSet
110 33 m 1xd8
 78 67 l 1
 52 119 l 1
 49 132 l 1
 49 209 l 1
 79 303 l 1
 137 387 l 1
 230 419 l 1xb8
 491 419 l 1
 502 417 l 1
 511 410 l 1
 517 401 l 1
 519 391 l 1
 516 378 l 1
 519 365 l 1
 517 354 l 1
 511 345 l 1
 502 339 l 1
 394 337 l 1
 413 300 l 1
 416 287 l 1
 414 200 l 1
 385 116 l 1
 327 32 l 1
 241 1 l 1
 180 0 l 1
 168 3 l 1
 110 33 l 1xd8
239 363 m 1
 199 343 l 1
 154 275 l 1
 131 205 l 1
 131 112 l 1
 149 75 l 1
 187 56 l 1
 225 56 l 1
 265 76 l 1
 310 144 l 1
 334 214 l 1
 334 306 l 1
 315 344 l 1
 277 363 l 1
 239 363 l 1
EndSplineSet
Validated: 1
EndChar

StartChar: tau
Encoding: 964 964 140
Width: 517
VWidth: 0
Flags: W
HStem: 1 21G<190 219 219 249> 337 80<185 249 308 476>
LayerCount: 2
Back
Fore
SplineSet
23 312 m 1
 24 322 l 1
 30 331 l 1
 83 385 l 1
 94 391 l 1
 171 417 l 1
 465 419 l 1
 476 417 l 1
 485 410 l 1
 491 401 l 1
 493 391 l 1
 490 378 l 1
 493 365 l 1
 491 354 l 1
 485 345 l 1
 476 339 l 1
 308 337 l 1
 260 24 l 1
 256 13 l 1
 249 5 l 1
 239 1 l 1
 219 4 l 1
 200 1 l 1
 190 5 l 1
 182 13 l 1
 179 23 l 1
 179 34 l 1
 249 337 l 1
 185 337 l 1
 113 313 l 1
 53 285 l 1
 42 286 l 1
 32 292 l 1
 26 300 l 1
 23 312 l 1
EndSplineSet
Validated: 1
EndChar

StartChar: upsilon
Encoding: 965 965 141
Width: 517
VWidth: 0
Flags: W
HStem: 0 56<218 241> 363 56<114 143>
VStem: 100 82<91 153> 152 81<317 353>
LayerCount: 2
Back
Fore
SplineSet
74 322 m 1xd0
 43 266 l 1
 34 260 l 1
 23 259 l 1
 12 262 l 1
 4 269 l 1
 -2 278 l 1
 -3 289 l 1
 26 351 l 1
 83 410 l 1
 92 417 l 1
 180 419 l 1
 191 417 l 1
 226 385 l 1
 232 375 l 1
 234 365 l 1
 233 304 l 1xd0
 182 153 l 1
 182 91 l 1
 218 56 l 1
 228 56 l 1
 295 78 l 1
 340 124 l 1
 387 194 l 1
 402 285 l 1
 389 324 l 1
 368 345 l 1
 362 354 l 1
 360 365 l 1
 362 375 l 1
 368 385 l 1
 402 416 l 1
 413 419 l 1
 432 412 l 1
 464 351 l 1
 467 339 l 1
 467 259 l 1
 437 169 l 1
 385 90 l 1
 330 34 l 1
 319 27 l 1
 241 1 l 1
 206 0 l 1
 194 3 l 1
 135 34 l 1
 109 60 l 1
 103 69 l 1
 100 80 l 1xe0
 102 166 l 1
 152 317 l 1
 152 353 l 1
 143 363 l 1
 114 363 l 1
 74 322 l 1xd0
EndSplineSet
Validated: 1
EndChar

StartChar: phi
Encoding: 966 966 142
Width: 569
VWidth: 0
Flags: W
HStem: -181 21G<146 168 168 195> 337 82<399 433>
VStem: 49 56<143 218> 463 56<244.682 322>
LayerCount: 2
Back
Fore
SplineSet
49 132 m 1
 50 218 l 1
 76 296 l 1
 83 307 l 1
 135 359 l 1
 194 390 l 1
 204 393 l 1
 215 391 l 1
 225 386 l 1
 231 377 l 1
 234 367 l 1
 233 356 l 1
 227 346 l 1
 219 340 l 1
 171 316 l 1
 127 272 l 1
 105 205 l 1
 105 143 l 1
 145 103 l 1
 187 82 l 1
 196 82 l 1
 206 116 l 1
 258 246 l 1
 311 351 l 1
 368 410 l 1
 377 417 l 1
 388 419 l 1
 450 417 l 1
 459 410 l 1
 517 350 l 1
 519 261 l 1
 489 168 l 1
 429 82 l 1
 345 27 l 1
 267 1 l 1
 243 0 l 1
 208 -159 l 1
 203 -169 l 1
 195 -177 l 1
 185 -181 l 1
 168 -178 l 1
 157 -181 l 1
 146 -180 l 1
 137 -175 l 1
 130 -167 l 1
 127 -156 l 1
 172 2 l 1
 116 29 l 1
 83 60 l 1
 52 119 l 1
 49 132 l 1
264 85 m 1
 323 105 l 1
 396 153 l 1
 441 199 l 1
 463 266 l 1
 463 322 l 1
 433 337 l 1
 399 337 l 1
 358 295 l 1
 309 223 l 1
 264 85 l 1
EndSplineSet
Validated: 1
EndChar

StartChar: chi
Encoding: 967 967 143
Width: 465
VWidth: 0
Flags: W
HStem: -181 56<373 424> 363 56<40 91>
LayerCount: 2
Back
Fore
SplineSet
91 363 m 1
 51 363 l 1
 40 365 l 1
 31 371 l 1
 25 380 l 1
 23 391 l 1
 25 401 l 1
 31 410 l 1
 40 417 l 1
 51 419 l 1
 102 419 l 1
 115 416 l 1
 174 385 l 1
 207 322 l 1
 253 183 l 1
 339 278 l 1
 389 353 l 1
 421 412 l 1
 430 417 l 1
 441 419 l 1
 452 416 l 1
 460 409 l 1
 466 400 l 1
 467 389 l 1
 464 378 l 1
 437 323 l 1
 382 242 l 1
 273 122 l 1
 336 -65 l 1
 359 -111 l 1
 373 -125 l 1
 424 -127 l 1
 433 -134 l 1
 439 -143 l 1
 441 -153 l 1
 439 -164 l 1
 433 -173 l 1
 424 -179 l 1
 362 -181 l 1
 351 -179 l 1
 290 -147 l 1
 257 -84 l 1
 211 54 l 1
 125 -41 l 1
 75 -116 l 1
 43 -174 l 1
 34 -180 l 1
 23 -181 l 1
 12 -178 l 1
 4 -172 l 1
 -2 -162 l 1
 -3 -151 l 1
 0 -141 l 1
 27 -86 l 1
 82 -5 l 1
 191 115 l 1
 128 302 l 1
 105 348 l 1
 91 363 l 1
EndSplineSet
Validated: 1
EndChar

StartChar: psi
Encoding: 968 968 144
Width: 596
VWidth: 0
Flags: W
HStem: -181 21G<200 221 221 248> 363 56<115 144> 580 20G<374 401 401 422>
VStem: 128 81<117 216.538> 153 82<280.44 353>
LayerCount: 2
Back
Fore
SplineSet
75 322 m 1xe8
 44 266 l 1
 35 260 l 1
 24 259 l 1
 14 262 l 1
 5 269 l 1
 -1 278 l 1
 -2 289 l 1
 27 351 l 1
 84 410 l 1
 93 417 l 1
 181 419 l 1
 192 417 l 1
 227 385 l 1
 233 375 l 1
 235 365 l 1
 235 313 l 1xe8
 209 181 l 1
 209 117 l 1
 245 82 l 1
 284 216 l 1
 361 578 l 1
 366 588 l 1
 374 596 l 1
 384 600 l 1
 401 597 l 1
 411 600 l 1
 422 599 l 1
 432 594 l 1
 439 586 l 1
 442 575 l 1
 442 564 l 1
 338 203 l 1
 313 86 l 1
 346 103 l 1
 419 175 l 1
 467 248 l 1
 523 409 l 1
 532 416 l 1
 542 419 l 1
 553 417 l 1
 562 412 l 1
 569 403 l 1
 572 393 l 1
 571 382 l 1
 519 226 l 1
 491 171 l 1
 438 90 l 1
 383 34 l 1
 324 3 l 1
 295 0 l 1
 261 -159 l 1
 256 -169 l 1
 248 -177 l 1
 238 -181 l 1
 221 -178 l 1
 211 -181 l 1
 200 -180 l 1
 190 -175 l 1
 183 -167 l 1
 180 -157 l 1
 223 2 l 1
 162 34 l 1
 131 93 l 1
 128 106 l 1
 128 189 l 1xf0
 153 316 l 1
 153 353 l 1
 144 363 l 1
 115 363 l 1
 75 322 l 1xe8
EndSplineSet
Validated: 1
EndChar

StartChar: omega
Encoding: 969 969 145
Width: 596
VWidth: 0
Flags: W
HStem: 2 80<141 175 349 382> 399 20G<162.552 217 456 477>
VStem: 50 56<138 218> 490 55<200 280>
LayerCount: 2
Back
Fore
SplineSet
50 131 m 1
 51 218 l 1
 80 303 l 1
 132 380 l 1
 143 390 l 1
 206 419 l 1
 217 417 l 1
 227 410 l 1
 253 385 l 1
 259 375 l 1
 261 364 l 1
 259 353 l 1
 252 344 l 1
 242 338 l 1
 171 314 l 1
 128 272 l 1
 106 205 l 1
 106 138 l 1
 127 96 l 1
 141 82 l 1
 175 82 l 1
 217 103 l 1
 257 143 l 1
 259 220 l 1
 265 229 l 1
 274 235 l 1
 285 237 l 1
 298 234 l 1
 309 237 l 1
 320 236 l 1
 329 230 l 1
 336 222 l 1
 339 211 l 1
 338 200 l 1
 315 134 l 1
 334 96 l 1
 349 82 l 1
 382 82 l 1
 424 103 l 1
 468 147 l 1
 490 214 l 1
 490 280 l 1
 471 318 l 1
 420 346 l 1
 413 366 l 1
 415 376 l 1
 447 410 l 1
 456 417 l 1
 466 419 l 1
 477 417 l 1
 486 410 l 1
 512 385 l 1
 519 374 l 1
 546 289 l 1
 545 200 l 1
 516 116 l 1
 464 38 l 1
 453 29 l 1
 401 3 l 1
 389 0 l 1
 326 2 l 1
 291 34 l 1
 277 68 l 1
 257 38 l 1
 246 29 l 1
 194 3 l 1
 181 0 l 1
 119 2 l 1
 84 34 l 1
 77 45 l 1
 50 131 l 1
EndSplineSet
Validated: 1
EndChar

StartChar: uni0410
Encoding: 1040 1040 146
Width: 517
VWidth: 0
Flags: W
HStem: 2 54<14 56 116 191 325 375 460 502> 155 56<167 323> 580 20G<245 267>
LayerCount: 2
Back
Fore
SplineSet
56 56 m 1
 231 581 l 1
 237 590 l 1
 245 597 l 1
 256 600 l 1
 267 599 l 1
 279 590 l 1
 285 581 l 1
 460 56 l 1
 491 56 l 1
 502 54 l 1
 511 48 l 1
 517 39 l 1
 519 28 l 1
 517 17 l 1
 511 8 l 1
 502 2 l 1
 491 0 l 1
 336 0 l 1
 325 2 l 1
 316 8 l 1
 310 17 l 1
 308 28 l 1
 310 39 l 1
 316 48 l 1
 325 54 l 1
 336 56 l 1
 375 56 l 1
 341 155 l 1
 149 155 l 1
 116 56 l 1
 180 56 l 1
 191 54 l 1
 200 48 l 1
 206 39 l 1
 208 28 l 1
 206 17 l 1
 200 8 l 1
 191 2 l 1
 25 0 l 1
 14 2 l 1
 5 8 l 1
 -1 17 l 1
 -3 28 l 1
 -1 39 l 1
 5 48 l 1
 14 54 l 1
 25 56 l 1
 56 56 l 1
245 445 m 1
 167 211 l 1
 323 211 l 1
 245 445 l 1
EndSplineSet
Validated: 1
EndChar

StartChar: uni0411
Encoding: 1041 1041 147
Width: 569
VWidth: 0
Flags: W
HStem: 0 56<40 101 182 355> 285 56<182 355> 544 56<40 101 182 416>
VStem: 101 81<56 285 341 544> 437 82<138 203> 438 55<417 454>
LayerCount: 2
Back
Fore
SplineSet
101 544 m 1xf8
 40 546 l 1
 31 552 l 1
 25 561 l 1
 23 572 l 1
 25 583 l 1
 31 592 l 1
 40 598 l 1
 51 600 l 1
 465 600 l 1
 476 598 l 1
 485 592 l 1
 491 583 l 1
 493 572 l 1
 493 417 l 1
 486 398 l 1
 468 389 l 1
 448 394 l 1
 438 412 l 1xf4
 416 544 l 1
 182 544 l 1
 182 341 l 1
 371 340 l 1
 448 314 l 1
 459 307 l 1
 490 274 l 1
 516 222 l 1
 519 209 l 1
 519 132 l 1
 516 119 l 1
 490 67 l 1
 459 34 l 1
 448 27 l 1
 364 0 l 1
 51 0 l 1
 40 2 l 1
 31 8 l 1
 25 17 l 1
 23 28 l 1
 25 39 l 1
 31 48 l 1
 40 54 l 1
 51 56 l 1
 101 56 l 1
 101 544 l 1xf8
182 56 m 1
 355 56 l 1
 397 77 l 1
 416 96 l 1
 437 138 l 1
 437 203 l 1xf8
 416 245 l 1
 397 264 l 1
 355 285 l 1
 182 285 l 1
 182 56 l 1
EndSplineSet
Validated: 1
EndChar

StartChar: uni0412
Encoding: 1042 1042 148
Width: 569
VWidth: 0
Flags: W
HStem: 0 56<40 101 182 355> 285 56<182 355> 544 56<40 101 182 355>
VStem: 101 81<56 285 341 544> 437 82<138 203 423 462>
LayerCount: 2
Back
Fore
SplineSet
101 544 m 1
 40 546 l 1
 31 552 l 1
 25 561 l 1
 23 572 l 1
 25 583 l 1
 31 592 l 1
 40 598 l 1
 51 600 l 1
 364 600 l 1
 448 573 l 1
 459 566 l 1
 490 533 l 1
 516 481 l 1
 519 468 l 1
 519 417 l 1
 516 404 l 1
 490 352 l 1
 459 319 l 1
 449 313 l 1
 459 307 l 1
 485 281 l 1
 516 222 l 1
 519 209 l 1
 519 132 l 1
 516 119 l 1
 490 67 l 1
 459 34 l 1
 448 27 l 1
 364 0 l 1
 51 0 l 1
 40 2 l 1
 31 8 l 1
 25 17 l 1
 23 28 l 1
 25 39 l 1
 31 48 l 1
 40 54 l 1
 51 56 l 1
 101 56 l 1
 101 544 l 1
182 544 m 1
 182 341 l 1
 355 341 l 1
 397 362 l 1
 416 381 l 1
 437 423 l 1
 437 462 l 1
 416 504 l 1
 397 523 l 1
 355 544 l 1
 182 544 l 1
182 56 m 1
 355 56 l 1
 397 77 l 1
 416 96 l 1
 437 138 l 1
 437 203 l 1
 416 245 l 1
 397 264 l 1
 355 285 l 1
 182 285 l 1
 182 56 l 1
EndSplineSet
Validated: 1
EndChar

StartChar: uni0413
Encoding: 1043 1043 149
Width: 465
VWidth: 0
Flags: W
HStem: 0 56<40 100 182 243> 544 56<40 100 182 390>
VStem: 100 82<56 544> 412 55<417 454>
LayerCount: 2
Back
Fore
SplineSet
100 544 m 1
 40 546 l 1
 31 552 l 1
 25 561 l 1
 23 572 l 1
 25 583 l 1
 31 592 l 1
 40 598 l 1
 51 600 l 1
 439 600 l 1
 450 598 l 1
 459 592 l 1
 465 583 l 1
 467 417 l 1
 460 398 l 1
 442 389 l 1
 422 394 l 1
 412 412 l 1
 390 544 l 1
 182 544 l 1
 182 56 l 1
 232 56 l 1
 243 54 l 1
 252 48 l 1
 258 39 l 1
 260 28 l 1
 258 17 l 1
 252 8 l 1
 243 2 l 1
 232 0 l 1
 51 0 l 1
 40 2 l 1
 31 8 l 1
 25 17 l 1
 23 28 l 1
 25 39 l 1
 31 48 l 1
 40 54 l 1
 100 56 l 1
 100 544 l 1
EndSplineSet
Validated: 1
EndChar

StartChar: uni0414
Encoding: 1044 1044 150
Width: 622
VWidth: 0
Flags: W
HStem: -181 22G<15 37 553 581> 0 56<76 92 162 438> 544 56<119 179 235 438 520 581>
VStem: 179 56<360.88 544> 438 82<56 544>
LayerCount: 2
Back
Fore
SplineSet
-2 28 m 1
 3 43 l 1
 15 54 l 1
 92 56 l 1
 107 70 l 1
 129 115 l 1
 154 214 l 1
 179 418 l 1
 179 544 l 1
 130 544 l 1
 119 546 l 1
 110 552 l 1
 104 561 l 1
 102 572 l 1
 104 583 l 1
 110 592 l 1
 119 598 l 1
 130 600 l 1
 570 600 l 1
 581 598 l 1
 590 592 l 1
 596 583 l 1
 598 572 l 1
 596 561 l 1
 590 552 l 1
 581 546 l 1
 570 544 l 1
 520 544 l 1
 520 56 l 1
 581 54 l 1
 590 48 l 1
 596 39 l 1
 598 28 l 1
 598 -153 l 1
 596 -164 l 1
 590 -173 l 1
 581 -179 l 1
 563 -180 l 1
 553 -176 l 1
 544 -164 l 1
 520 0 l 1
 76 0 l 1
 52 -164 l 1
 46 -173 l 1
 37 -179 l 1
 26 -181 l 1
 15 -179 l 1
 4 -170 l 1
 -2 -153 l 1
 -2 28 l 1
235 544 m 1
 235 413 l 1
 209 206 l 1
 183 99 l 1
 162 56 l 1
 438 56 l 1
 438 544 l 1
 235 544 l 1
EndSplineSet
Validated: 1
EndChar

StartChar: uni0415
Encoding: 1045 1045 151
Width: 543
VWidth: 0
Flags: W
HStem: 0 56<40 101 182 416> 285 56<182 282> 544 56<40 101 182 416>
VStem: 101 81<56 285 341 544> 282 56<199 285 341 427> 416 77<56 98 502 544> 438 55<146 183 417 454>
LayerCount: 2
Back
Fore
SplineSet
101 544 m 1xfa
 40 546 l 1
 31 552 l 1
 25 561 l 1
 23 572 l 1
 25 583 l 1
 31 592 l 1
 40 598 l 1
 51 600 l 1
 465 600 l 1
 476 598 l 1
 485 592 l 1
 491 583 l 1
 493 572 l 1
 493 417 l 1
 486 398 l 1
 468 389 l 1
 448 394 l 1
 438 412 l 1xfa
 416 544 l 1
 182 544 l 1
 182 341 l 1
 282 341 l 1
 284 427 l 1
 290 436 l 1
 299 442 l 1
 310 445 l 1
 321 442 l 1
 330 436 l 1
 336 427 l 1
 338 417 l 1
 338 209 l 1
 336 199 l 1
 330 190 l 1
 321 183 l 1
 310 181 l 1
 299 183 l 1
 290 190 l 1
 284 199 l 1
 282 209 l 1
 282 285 l 1
 182 285 l 1
 182 56 l 1
 416 56 l 1xfc
 438 188 l 1
 448 206 l 1
 468 211 l 1
 486 202 l 1
 493 183 l 1
 493 28 l 1
 491 17 l 1
 485 8 l 1
 476 2 l 1
 465 0 l 1
 51 0 l 1
 40 2 l 1
 31 8 l 1
 25 17 l 1
 23 28 l 1
 25 39 l 1
 31 48 l 1
 40 54 l 1
 51 56 l 1
 101 56 l 1
 101 544 l 1xfa
EndSplineSet
Validated: 1
EndChar

StartChar: uni0416
Encoding: 1046 1046 152
Width: 804
VWidth: 0
Flags: W
HStem: 0 56<301 361 443 503> 285 56<297 361 443 507> 544 56<301 361 443 503>
VStem: 361 82<56 285 341 544>
LayerCount: 2
Back
Fore
SplineSet
148 499 m 1
 124 474 l 1
 115 468 l 1
 104 466 l 1
 93 468 l 1
 84 474 l 1
 52 509 l 1
 50 546 l 1
 52 557 l 1
 58 566 l 1
 93 598 l 1
 130 600 l 1
 141 598 l 1
 181 559 l 1
 209 501 l 1
 234 400 l 1
 254 360 l 1
 292 341 l 1
 361 341 l 1
 361 544 l 1
 301 546 l 1
 291 552 l 1
 285 561 l 1
 283 572 l 1
 285 583 l 1
 291 592 l 1
 301 598 l 1
 311 600 l 1
 493 600 l 1
 503 598 l 1
 512 592 l 1
 518 583 l 1
 521 572 l 1
 518 561 l 1
 512 552 l 1
 503 546 l 1
 493 544 l 1
 443 544 l 1
 443 341 l 1
 512 341 l 1
 549 360 l 1
 570 400 l 1
 597 507 l 1
 628 566 l 1
 663 598 l 1
 700 600 l 1
 711 598 l 1
 720 592 l 1
 752 557 l 1
 754 520 l 1
 752 509 l 1
 720 474 l 1
 711 468 l 1
 700 466 l 1
 689 468 l 1
 680 474 l 1
 656 499 l 1
 649 485 l 1
 621 378 l 1
 595 326 l 1
 581 313 l 1
 595 300 l 1
 621 248 l 1
 649 115 l 1
 671 70 l 1
 686 56 l 1
 703 70 l 1
 733 127 l 1
 743 132 l 1
 754 134 l 1
 764 131 l 1
 773 124 l 1
 778 115 l 1
 780 104 l 1
 777 93 l 1
 746 34 l 1
 711 2 l 1
 648 0 l 1
 637 2 l 1
 628 8 l 1
 597 41 l 1
 571 93 l 1
 544 226 l 1
 521 270 l 1
 507 285 l 1
 443 285 l 1
 443 56 l 1
 503 54 l 1
 512 48 l 1
 518 39 l 1
 521 28 l 1
 518 17 l 1
 512 8 l 1
 503 2 l 1
 493 0 l 1
 311 0 l 1
 301 2 l 1
 291 8 l 1
 285 17 l 1
 283 28 l 1
 285 39 l 1
 291 48 l 1
 301 54 l 1
 311 56 l 1
 361 56 l 1
 361 285 l 1
 297 285 l 1
 282 270 l 1
 260 226 l 1
 235 100 l 1
 202 34 l 1
 167 2 l 1
 104 0 l 1
 93 2 l 1
 84 8 l 1
 53 41 l 1
 27 93 l 1
 24 104 l 1
 26 115 l 1
 31 124 l 1
 40 131 l 1
 50 134 l 1
 61 132 l 1
 71 127 l 1
 77 118 l 1
 101 70 l 1
 116 56 l 1
 133 70 l 1
 155 115 l 1
 183 248 l 1
 209 300 l 1
 223 313 l 1
 209 326 l 1
 183 378 l 1
 155 485 l 1
 148 499 l 1
EndSplineSet
Validated: 1
EndChar

StartChar: uni0417
Encoding: 1047 1047 153
Width: 517
VWidth: 0
Flags: W
HStem: 0 56<187 303> 311 56<221 303> 544 56<213 303>
VStem: 360 81<423 488> 385 82<138 222>
LayerCount: 2
Back
Fore
SplineSet
115 546 m 1xf0
 142 571 l 1
 194 597 l 1
 206 600 l 1
 319 599 l 1
 396 573 l 1
 406 567 l 1
 413 559 l 1
 438 507 l 1
 441 494 l 1
 441 417 l 1xf0
 438 404 l 1
 413 352 l 1
 406 344 l 1
 381 333 l 1
 433 281 l 1
 464 222 l 1
 467 209 l 1
 467 132 l 1
 464 119 l 1
 438 67 l 1
 407 34 l 1
 396 27 l 1
 312 0 l 1
 180 0 l 1
 168 3 l 1
 116 29 l 1
 78 67 l 1
 52 119 l 1
 49 158 l 1
 51 168 l 1
 57 177 l 1
 92 209 l 1
 103 211 l 1
 113 209 l 1
 122 203 l 1
 154 168 l 1
 156 158 l 1
 154 147 l 1
 119 110 l 1
 126 96 l 1
 145 77 l 1
 187 56 l 1
 303 56 l 1
 345 77 l 1
 365 96 l 1
 385 138 l 1
 385 205 l 1xe8
 363 272 l 1
 345 290 l 1
 303 311 l 1
 221 313 l 1
 212 319 l 1
 206 328 l 1
 204 339 l 1
 206 350 l 1
 212 359 l 1
 221 365 l 1
 303 367 l 1
 341 386 l 1
 360 423 l 1
 360 488 l 1
 341 525 l 1
 303 544 l 1
 213 544 l 1
 171 523 l 1
 127 479 l 1
 98 398 l 1
 89 391 l 1
 78 389 l 1
 67 390 l 1
 57 396 l 1
 51 406 l 1
 49 417 l 1
 49 572 l 1
 51 583 l 1
 57 592 l 1
 67 598 l 1
 78 600 l 1
 89 597 l 1
 98 591 l 1
 103 581 l 1
 115 546 l 1xf0
EndSplineSet
Validated: 1
EndChar

StartChar: uni0418
Encoding: 1048 1048 154
Width: 621
VWidth: 0
Flags: W
HStem: 0 56<40 101 183 243 377 437 519 580> 544 56<40 101 183 243 377 437 519 580>
VStem: 101 82<56 71 168 544> 437 82<56 432 529 544>
LayerCount: 2
Back
Fore
SplineSet
101 544 m 1
 40 546 l 1
 31 552 l 1
 25 561 l 1
 23 572 l 1
 25 583 l 1
 31 592 l 1
 40 598 l 1
 51 600 l 1
 232 600 l 1
 243 598 l 1
 252 592 l 1
 258 583 l 1
 260 572 l 1
 258 561 l 1
 252 552 l 1
 243 546 l 1
 183 544 l 1
 183 168 l 1
 437 529 l 1
 437 544 l 1
 388 544 l 1
 377 546 l 1
 368 552 l 1
 362 561 l 1
 360 572 l 1
 362 583 l 1
 368 592 l 1
 377 598 l 1
 388 600 l 1
 569 600 l 1
 580 598 l 1
 589 592 l 1
 595 583 l 1
 597 572 l 1
 595 561 l 1
 589 552 l 1
 580 546 l 1
 569 544 l 1
 519 544 l 1
 519 56 l 1
 569 56 l 1
 580 54 l 1
 589 48 l 1
 595 39 l 1
 597 28 l 1
 595 17 l 1
 589 8 l 1
 580 2 l 1
 569 0 l 1
 388 0 l 1
 377 2 l 1
 368 8 l 1
 362 17 l 1
 360 28 l 1
 362 39 l 1
 368 48 l 1
 377 54 l 1
 437 56 l 1
 437 432 l 1
 183 71 l 1
 183 56 l 1
 232 56 l 1
 243 54 l 1
 252 48 l 1
 258 39 l 1
 260 28 l 1
 258 17 l 1
 252 8 l 1
 243 2 l 1
 232 0 l 1
 51 0 l 1
 40 2 l 1
 31 8 l 1
 25 17 l 1
 23 28 l 1
 25 39 l 1
 31 48 l 1
 40 54 l 1
 51 56 l 1
 101 56 l 1
 101 544 l 1
EndSplineSet
Validated: 1
EndChar

StartChar: uni0419
Encoding: 1049 1049 155
Width: 621
VWidth: 0
Flags: W
HStem: 0 56<40 101 183 243 377 437 519 580> 544 56<40 101 183 243 377 437 519 580> 622 56<265 355>
VStem: 101 82<56 71 168 544> 152 82<717 764> 437 82<56 432 529 544>
LayerCount: 2
Back
Fore
SplineSet
101 544 m 1xf4
 40 546 l 1
 31 552 l 1
 25 561 l 1
 23 572 l 1
 25 583 l 1
 31 592 l 1
 40 598 l 1
 51 600 l 1
 232 600 l 1
 243 598 l 1
 252 592 l 1
 258 583 l 1
 260 572 l 1
 258 561 l 1
 252 552 l 1
 243 546 l 1
 183 544 l 1
 183 168 l 1
 437 529 l 1
 437 544 l 1
 388 544 l 1
 377 546 l 1
 368 552 l 1
 362 561 l 1
 360 572 l 1
 362 583 l 1
 368 592 l 1
 377 598 l 1
 388 600 l 1
 569 600 l 1
 580 598 l 1
 589 592 l 1
 595 583 l 1
 597 572 l 1
 595 561 l 1
 589 552 l 1
 580 546 l 1
 569 544 l 1
 519 544 l 1
 519 56 l 1
 569 56 l 1
 580 54 l 1
 589 48 l 1
 595 39 l 1
 597 28 l 1
 595 17 l 1
 589 8 l 1
 580 2 l 1
 569 0 l 1
 388 0 l 1
 377 2 l 1
 368 8 l 1
 362 17 l 1
 360 28 l 1
 362 39 l 1
 368 48 l 1
 377 54 l 1
 437 56 l 1
 437 432 l 1
 183 71 l 1
 183 56 l 1
 232 56 l 1
 243 54 l 1
 252 48 l 1
 258 39 l 1
 260 28 l 1
 258 17 l 1
 252 8 l 1
 243 2 l 1
 232 0 l 1
 51 0 l 1
 40 2 l 1
 31 8 l 1
 25 17 l 1
 23 28 l 1
 25 39 l 1
 31 48 l 1
 40 54 l 1
 51 56 l 1
 101 56 l 1
 101 544 l 1xf4
223 705 m 1
 227 696 l 1
 265 678 l 1
 355 678 l 1
 393 696 l 1
 414 740 l 1
 421 749 l 1
 431 754 l 1
 442 755 l 1
 452 752 l 1
 461 746 l 1
 466 736 l 1
 467 725 l 1
 465 715 l 1
 433 656 l 1
 374 625 l 1
 362 622 l 1
 258 622 l 1
 246 625 l 1
 187 656 l 1
 155 715 l 1
 152 727 l 1
 152 753 l 1
 155 764 l 1
 161 773 l 1
 170 779 l 1
 180 781 l 1
 206 781 l 1
 217 779 l 1
 226 773 l 1
 232 764 l 1
 234 753 l 1
 234 727 l 1xec
 232 717 l 1
 223 705 l 1
EndSplineSet
Validated: 1
EndChar

StartChar: uni041A
Encoding: 1050 1050 156
Width: 622
VWidth: 0
Flags: W
HStem: 0 56<40 101 183 243> 285 56<183 324> 544 56<40 101 183 243>
VStem: 101 82<56 285 341 544>
LayerCount: 2
Back
Fore
SplineSet
101 544 m 1
 40 546 l 1
 31 552 l 1
 25 561 l 1
 23 572 l 1
 25 583 l 1
 31 592 l 1
 40 598 l 1
 51 600 l 1
 232 600 l 1
 243 598 l 1
 252 592 l 1
 258 583 l 1
 260 572 l 1
 258 561 l 1
 252 552 l 1
 243 546 l 1
 232 544 l 1
 183 544 l 1
 183 341 l 1
 329 341 l 1
 367 360 l 1
 387 400 l 1
 414 507 l 1
 440 559 l 1
 472 592 l 1
 481 598 l 1
 491 600 l 1
 528 598 l 1
 563 566 l 1
 569 557 l 1
 571 546 l 1
 569 509 l 1
 537 474 l 1
 528 468 l 1
 517 466 l 1
 507 468 l 1
 473 499 l 1
 466 485 l 1
 439 378 l 1
 413 326 l 1
 399 313 l 1
 413 300 l 1
 439 248 l 1
 466 115 l 1
 488 70 l 1
 506 56 l 1
 520 70 l 1
 544 118 l 1
 551 127 l 1
 560 132 l 1
 571 134 l 1
 582 131 l 1
 590 124 l 1
 596 115 l 1
 597 104 l 1
 594 93 l 1
 568 41 l 1
 537 8 l 1
 528 2 l 1
 517 0 l 1
 455 2 l 1
 420 34 l 1
 386 100 l 1
 361 226 l 1
 339 270 l 1
 324 285 l 1
 183 285 l 1
 183 56 l 1
 243 54 l 1
 252 48 l 1
 258 39 l 1
 260 28 l 1
 258 17 l 1
 252 8 l 1
 243 2 l 1
 232 0 l 1
 51 0 l 1
 40 2 l 1
 31 8 l 1
 25 17 l 1
 23 28 l 1
 25 39 l 1
 31 48 l 1
 40 54 l 1
 51 56 l 1
 101 56 l 1
 101 544 l 1
EndSplineSet
Validated: 1
EndChar

StartChar: uni041B
Encoding: 1051 1051 157
Width: 648
VWidth: 0
Flags: W
HStem: 0 56<404 464 546 607> 544 56<119 179 235 464 546 607>
VStem: 179 56<360.88 544> 464 82<56 544>
LayerCount: 2
Back
Fore
SplineSet
122 101 m 1
 129 115 l 1
 154 214 l 1
 179 418 l 1
 179 544 l 1
 130 544 l 1
 119 546 l 1
 110 552 l 1
 104 561 l 1
 102 572 l 1
 104 583 l 1
 110 592 l 1
 119 598 l 1
 130 600 l 1
 596 600 l 1
 607 598 l 1
 616 592 l 1
 622 583 l 1
 624 572 l 1
 622 561 l 1
 616 552 l 1
 607 546 l 1
 596 544 l 1
 546 544 l 1
 546 56 l 1
 596 56 l 1
 607 54 l 1
 616 48 l 1
 622 39 l 1
 624 28 l 1
 622 17 l 1
 616 8 l 1
 607 2 l 1
 596 0 l 1
 415 0 l 1
 404 2 l 1
 395 8 l 1
 389 17 l 1
 387 28 l 1
 389 39 l 1
 395 48 l 1
 404 54 l 1
 464 56 l 1
 464 544 l 1
 235 544 l 1
 235 413 l 1
 209 206 l 1
 183 99 l 1
 155 41 l 1
 124 8 l 1
 115 2 l 1
 104 0 l 1
 67 2 l 1
 58 8 l 1
 26 43 l 1
 24 80 l 1
 26 91 l 1
 58 126 l 1
 67 132 l 1
 78 134 l 1
 89 132 l 1
 98 126 l 1
 122 101 l 1
EndSplineSet
Validated: 1
EndChar

StartChar: uni041C
Encoding: 1052 1052 158
Width: 648
VWidth: 0
Flags: W
HStem: 0 56<40 101 157 217 403 463 545 606> 544 56<40 101 545 606>
VStem: 101 56<56 399> 463 82<56 399>
LayerCount: 2
Back
Fore
SplineSet
101 544 m 1
 40 546 l 1
 31 552 l 1
 25 561 l 1
 23 572 l 1
 25 583 l 1
 31 592 l 1
 40 598 l 1
 51 600 l 1
 155 600 l 1
 167 597 l 1
 180 583 l 1
 323 155 l 1
 465 581 l 1
 470 590 l 1
 479 597 l 1
 491 600 l 1
 595 600 l 1
 606 598 l 1
 615 592 l 1
 621 583 l 1
 623 572 l 1
 621 561 l 1
 615 552 l 1
 606 546 l 1
 595 544 l 1
 545 544 l 1
 545 56 l 1
 595 56 l 1
 606 54 l 1
 615 48 l 1
 621 39 l 1
 623 28 l 1
 621 17 l 1
 615 8 l 1
 606 2 l 1
 595 0 l 1
 414 0 l 1
 403 2 l 1
 394 8 l 1
 388 17 l 1
 386 28 l 1
 388 39 l 1
 394 48 l 1
 403 54 l 1
 463 56 l 1
 463 399 l 1
 335 15 l 1
 328 7 l 1
 312 0 l 1
 301 1 l 1
 292 7 l 1
 283 19 l 1
 157 399 l 1
 157 56 l 1
 217 54 l 1
 226 48 l 1
 232 39 l 1
 234 28 l 1
 232 17 l 1
 226 8 l 1
 217 2 l 1
 206 0 l 1
 51 0 l 1
 40 2 l 1
 31 8 l 1
 25 17 l 1
 23 28 l 1
 25 39 l 1
 31 48 l 1
 40 54 l 1
 51 56 l 1
 101 56 l 1
 101 544 l 1
EndSplineSet
Validated: 1
EndChar

StartChar: uni041D
Encoding: 1053 1053 159
Width: 621
VWidth: 0
Flags: W
HStem: 0 56<40 101 183 243 377 437 519 580> 285 56<183 437> 544 56<40 101 183 243 377 437 519 580>
VStem: 101 82<56 285 341 544> 437 82<56 285 341 544>
LayerCount: 2
Back
Fore
SplineSet
101 544 m 1
 40 546 l 1
 31 552 l 1
 25 561 l 1
 23 572 l 1
 25 583 l 1
 31 592 l 1
 40 598 l 1
 51 600 l 1
 232 600 l 1
 243 598 l 1
 252 592 l 1
 258 583 l 1
 260 572 l 1
 258 561 l 1
 252 552 l 1
 243 546 l 1
 183 544 l 1
 183 341 l 1
 437 341 l 1
 437 544 l 1
 377 546 l 1
 368 552 l 1
 362 561 l 1
 360 572 l 1
 362 583 l 1
 368 592 l 1
 377 598 l 1
 388 600 l 1
 569 600 l 1
 580 598 l 1
 589 592 l 1
 595 583 l 1
 597 572 l 1
 595 561 l 1
 589 552 l 1
 580 546 l 1
 569 544 l 1
 519 544 l 1
 519 56 l 1
 569 56 l 1
 580 54 l 1
 589 48 l 1
 595 39 l 1
 597 28 l 1
 595 17 l 1
 589 8 l 1
 580 2 l 1
 569 0 l 1
 388 0 l 1
 377 2 l 1
 368 8 l 1
 362 17 l 1
 360 28 l 1
 362 39 l 1
 368 48 l 1
 377 54 l 1
 437 56 l 1
 437 285 l 1
 183 285 l 1
 183 56 l 1
 243 54 l 1
 252 48 l 1
 258 39 l 1
 260 28 l 1
 258 17 l 1
 252 8 l 1
 243 2 l 1
 232 0 l 1
 51 0 l 1
 40 2 l 1
 31 8 l 1
 25 17 l 1
 23 28 l 1
 25 39 l 1
 31 48 l 1
 40 54 l 1
 51 56 l 1
 101 56 l 1
 101 544 l 1
EndSplineSet
Validated: 1
EndChar

StartChar: uni041E
Encoding: 1054 1054 160
Width: 569
VWidth: 0
Flags: W
HStem: 0 56<265 303> 544 56<265 303>
VStem: 50 81<236.417 363.583> 437 82<236.417 363.583>
LayerCount: 2
Back
Fore
SplineSet
172 573 m 1
 256 600 l 1
 310 600 l 1
 396 573 l 1
 407 566 l 1
 459 514 l 1
 492 449 l 1
 518 346 l 1
 519 261 l 1
 490 145 l 1
 459 86 l 1
 407 34 l 1
 396 27 l 1
 319 1 l 1
 256 0 l 1
 172 27 l 1
 161 34 l 1
 109 86 l 1
 76 151 l 1
 50 254 l 1
 50 346 l 1
 76 449 l 1
 104 507 l 1
 161 566 l 1
 172 573 l 1
303 56 m 1
 345 77 l 1
 391 122 l 1
 413 167 l 1
 437 265 l 1
 437 335 l 1
 413 433 l 1
 391 478 l 1
 345 523 l 1
 303 544 l 1
 265 544 l 1
 223 523 l 1
 177 478 l 1
 155 433 l 1
 131 335 l 1
 131 265 l 1
 155 167 l 1
 177 122 l 1
 223 77 l 1
 265 56 l 1
 303 56 l 1
EndSplineSet
Validated: 1
EndChar

StartChar: uni041F
Encoding: 1055 1055 161
Width: 621
VWidth: 0
Flags: W
HStem: 0 56<40 101 183 243 377 437 519 580> 544 56<40 101 183 437 519 580>
VStem: 101 82<56 544> 437 82<56 544>
LayerCount: 2
Back
Fore
SplineSet
101 544 m 1
 40 546 l 1
 31 552 l 1
 25 561 l 1
 23 572 l 1
 25 583 l 1
 31 592 l 1
 40 598 l 1
 51 600 l 1
 569 600 l 1
 580 598 l 1
 589 592 l 1
 595 583 l 1
 597 572 l 1
 595 561 l 1
 589 552 l 1
 580 546 l 1
 569 544 l 1
 519 544 l 1
 519 56 l 1
 569 56 l 1
 580 54 l 1
 589 48 l 1
 595 39 l 1
 597 28 l 1
 595 17 l 1
 589 8 l 1
 580 2 l 1
 569 0 l 1
 388 0 l 1
 377 2 l 1
 368 8 l 1
 362 17 l 1
 360 28 l 1
 362 39 l 1
 368 48 l 1
 377 54 l 1
 437 56 l 1
 437 544 l 1
 183 544 l 1
 183 56 l 1
 243 54 l 1
 252 48 l 1
 258 39 l 1
 260 28 l 1
 258 17 l 1
 252 8 l 1
 243 2 l 1
 232 0 l 1
 51 0 l 1
 40 2 l 1
 31 8 l 1
 25 17 l 1
 23 28 l 1
 25 39 l 1
 31 48 l 1
 40 54 l 1
 51 56 l 1
 101 56 l 1
 101 544 l 1
EndSplineSet
Validated: 1
EndChar

StartChar: uni0420
Encoding: 1056 1056 162
Width: 569
VWidth: 0
Flags: W
HStem: 0 56<40 101 182 243> 259 56<182 355> 544 56<40 101 182 355>
VStem: 101 81<56 259 315 544> 437 82<397 462>
LayerCount: 2
Back
Fore
SplineSet
101 544 m 1
 40 546 l 1
 31 552 l 1
 25 561 l 1
 23 572 l 1
 25 583 l 1
 31 592 l 1
 40 598 l 1
 51 600 l 1
 364 600 l 1
 448 573 l 1
 459 566 l 1
 490 533 l 1
 516 481 l 1
 519 468 l 1
 519 391 l 1
 516 378 l 1
 490 326 l 1
 459 293 l 1
 448 286 l 1
 364 259 l 1
 182 259 l 1
 182 56 l 1
 232 56 l 1
 243 54 l 1
 252 48 l 1
 258 39 l 1
 260 28 l 1
 258 17 l 1
 252 8 l 1
 243 2 l 1
 232 0 l 1
 51 0 l 1
 40 2 l 1
 31 8 l 1
 25 17 l 1
 23 28 l 1
 25 39 l 1
 31 48 l 1
 40 54 l 1
 101 56 l 1
 101 544 l 1
182 544 m 1
 182 315 l 1
 355 315 l 1
 397 336 l 1
 416 355 l 1
 437 397 l 1
 437 462 l 1
 416 504 l 1
 397 523 l 1
 355 544 l 1
 182 544 l 1
EndSplineSet
Validated: 1
EndChar

StartChar: uni0421
Encoding: 1057 1057 163
Width: 543
VWidth: 0
Flags: W
HStem: 1 55<265 326.318> 544 55<265 319>
VStem: 49 82<240 360>
LayerCount: 2
Back
Fore
SplineSet
254 599 m 1
 319 599 l 1
 396 573 l 1
 407 566 l 1
 427 546 l 1
 439 581 l 1
 444 591 l 1
 453 597 l 1
 464 600 l 1
 475 598 l 1
 485 592 l 1
 491 583 l 1
 493 572 l 1
 493 417 l 1
 491 406 l 1
 485 396 l 1
 475 390 l 1
 464 389 l 1
 453 391 l 1
 444 398 l 1
 415 479 l 1
 372 522 l 1
 305 544 l 1
 265 544 l 1
 223 523 l 1
 177 478 l 1
 155 432 l 1
 131 360 l 1
 131 240 l 1
 155 168 l 1
 177 122 l 1
 223 77 l 1
 265 56 l 1
 305 56 l 1
 372 78 l 1
 416 122 l 1
 447 179 l 1
 456 184 l 1
 467 185 l 1
 478 183 l 1
 486 176 l 1
 492 166 l 1
 493 156 l 1
 490 145 l 1
 464 93 l 1
 407 34 l 1
 396 27 l 1
 310 0 l 1
 249 1 l 1
 172 27 l 1
 161 34 l 1
 104 93 l 1
 76 149 l 1
 49 235 l 1
 50 374 l 1
 76 451 l 1
 104 507 l 1
 161 566 l 1
 172 573 l 1
 254 599 l 1
EndSplineSet
Validated: 1
EndChar

StartChar: uni0422
Encoding: 1058 1058 164
Width: 491
VWidth: 0
Flags: W
HStem: 0 56<144 204 286 346> 544 56<100 204 286 390>
VStem: 204 82<56 544> 412 55<417 454>
LayerCount: 2
Back
Fore
SplineSet
100 544 m 1
 75 402 l 1
 59 390 l 1
 38 391 l 1
 25 406 l 1
 23 417 l 1
 23 572 l 1
 25 583 l 1
 31 592 l 1
 40 598 l 1
 51 600 l 1
 439 600 l 1
 450 598 l 1
 459 592 l 1
 465 583 l 1
 467 417 l 1
 460 398 l 1
 442 389 l 1
 422 394 l 1
 412 412 l 1
 390 544 l 1
 286 544 l 1
 286 56 l 1
 336 56 l 1
 346 54 l 1
 355 48 l 1
 361 39 l 1
 364 28 l 1
 361 17 l 1
 355 8 l 1
 346 2 l 1
 336 0 l 1
 154 0 l 1
 144 2 l 1
 134 8 l 1
 128 17 l 1
 126 28 l 1
 128 39 l 1
 134 48 l 1
 144 54 l 1
 204 56 l 1
 204 544 l 1
 100 544 l 1
EndSplineSet
Validated: 1
EndChar

StartChar: uni0423
Encoding: 1059 1059 165
Width: 543
VWidth: 0
Flags: W
HStem: 0 21G<118 167> 544 56<14 58 145 191 351 422 484 528>
LayerCount: 2
Back
Fore
SplineSet
58 544 m 1
 25 544 l 1
 14 546 l 1
 5 552 l 1
 -1 561 l 1
 -3 572 l 1
 -1 583 l 1
 5 592 l 1
 14 598 l 1
 25 600 l 1
 180 600 l 1
 191 598 l 1
 200 592 l 1
 206 583 l 1
 208 572 l 1
 206 561 l 1
 200 552 l 1
 191 546 l 1
 180 544 l 1
 145 544 l 1
 284 227 l 1
 422 544 l 1
 351 546 l 1
 342 552 l 1
 336 561 l 1
 334 572 l 1
 336 583 l 1
 342 592 l 1
 351 598 l 1
 362 600 l 1
 517 600 l 1
 528 598 l 1
 537 592 l 1
 543 583 l 1
 545 572 l 1
 543 561 l 1
 537 552 l 1
 528 546 l 1
 484 544 l 1
 310 146 l 1
 255 64 l 1
 219 29 l 1
 167 3 l 1
 154 0 l 1
 118 2 l 1
 83 34 l 1
 77 43 l 1
 75 54 l 1
 77 91 l 1
 109 126 l 1
 118 132 l 1
 128 134 l 1
 139 132 l 1
 148 126 l 1
 174 100 l 1
 180 91 l 1
 181 73 l 1
 190 77 l 1
 210 98 l 1
 238 139 l 1
 58 544 l 1
EndSplineSet
Validated: 1
EndChar

StartChar: uni0424
Encoding: 1060 1060 166
Width: 647
VWidth: 0
Flags: W
HStem: 0 56<222 282 364 424> 79 55<241.682 282 364 404.318> 466 55<241.682 282 364 404.318> 544 56<222 282 364 424>
VStem: 49 82<244.682 348> 282 82<56 78 134 466 522 544> 515 82<244.682 348>
CounterMasks: 1 0e
LayerCount: 2
Back
Fore
SplineSet
148 496 m 1
 251 521 l 1
 282 522 l 1
 282 544 l 1
 232 544 l 1
 222 546 l 1
 212 552 l 1
 206 561 l 1
 204 572 l 1
 206 583 l 1
 212 592 l 1
 222 598 l 1
 232 600 l 1
 414 600 l 1
 424 598 l 1
 433 592 l 1
 439 583 l 1
 442 572 l 1
 439 561 l 1
 433 552 l 1
 424 546 l 1
 364 544 l 1
 364 522 l 1
 395 521 l 1
 498 496 l 1
 511 488 l 1
 563 436 l 1
 570 425 l 1
 596 348 l 1
 597 261 l 1
 570 175 l 1
 563 164 l 1
 511 112 l 1
 498 104 l 1
 395 79 l 1
 364 78 l 1
 364 56 l 1
 414 56 l 1
 424 54 l 1
 433 48 l 1
 439 39 l 1
 442 28 l 1
 439 17 l 1
 433 8 l 1
 424 2 l 1
 414 0 l 1
 232 0 l 1
 222 2 l 1
 212 8 l 1
 206 17 l 1
 204 28 l 1
 206 39 l 1
 212 48 l 1
 222 54 l 1
 232 56 l 1
 282 56 l 1
 282 78 l 1
 251 79 l 1
 148 104 l 1
 135 112 l 1
 83 164 l 1
 76 175 l 1
 49 261 l 1
 50 348 l 1
 76 425 l 1
 83 436 l 1
 135 488 l 1
 148 496 l 1
282 466 m 1
 263 466 l 1
 196 444 l 1
 153 401 l 1
 131 334 l 1
 131 266 l 1
 153 199 l 1
 196 156 l 1
 263 134 l 1
 282 134 l 1
 282 466 l 1
383 134 m 1
 450 156 l 1
 493 199 l 1
 515 266 l 1
 515 334 l 1
 493 401 l 1
 450 444 l 1
 383 466 l 1
 364 466 l 1
 364 134 l 1
 383 134 l 1
EndSplineSet
Validated: 1
EndChar

StartChar: uni0425
Encoding: 1061 1061 167
Width: 517
VWidth: 0
Flags: W
HStem: 0 56<14 62 129 191 325 363 455 502> 544 56<14 61 153 191 325 387 454 502>
LayerCount: 2
Back
Fore
SplineSet
62 56 m 1
 218 290 l 1
 61 544 l 1
 25 544 l 1
 14 546 l 1
 5 552 l 1
 -1 561 l 1
 -3 572 l 1
 -1 583 l 1
 5 592 l 1
 14 598 l 1
 25 600 l 1
 180 600 l 1
 191 598 l 1
 200 592 l 1
 206 583 l 1
 208 572 l 1
 206 561 l 1
 200 552 l 1
 191 546 l 1
 180 544 l 1
 153 544 l 1
 266 362 l 1
 387 544 l 1
 336 544 l 1
 325 546 l 1
 316 552 l 1
 310 561 l 1
 308 572 l 1
 310 583 l 1
 316 592 l 1
 325 598 l 1
 336 600 l 1
 491 600 l 1
 502 598 l 1
 511 592 l 1
 517 583 l 1
 519 572 l 1
 517 561 l 1
 511 552 l 1
 502 546 l 1
 491 544 l 1
 454 544 l 1
 298 310 l 1
 455 56 l 1
 491 56 l 1
 502 54 l 1
 511 48 l 1
 517 39 l 1
 519 28 l 1
 517 17 l 1
 511 8 l 1
 502 2 l 1
 491 0 l 1
 336 0 l 1
 325 2 l 1
 316 8 l 1
 310 17 l 1
 308 28 l 1
 310 39 l 1
 316 48 l 1
 325 54 l 1
 336 56 l 1
 363 56 l 1
 250 238 l 1
 129 56 l 1
 180 56 l 1
 191 54 l 1
 200 48 l 1
 206 39 l 1
 208 28 l 1
 206 17 l 1
 200 8 l 1
 191 2 l 1
 180 0 l 1
 25 0 l 1
 14 2 l 1
 5 8 l 1
 -1 17 l 1
 -3 28 l 1
 -1 39 l 1
 5 48 l 1
 14 54 l 1
 25 56 l 1
 62 56 l 1
EndSplineSet
Validated: 1
EndChar

StartChar: uni0426
Encoding: 1062 1062 168
Width: 621
VWidth: 0
Flags: W
HStem: -181 21G<558 583> 0 56<40 101 183 437> 544 56<40 101 183 243 377 437 519 580>
VStem: 101 82<56 544> 437 82<56 544>
LayerCount: 2
Back
Fore
SplineSet
101 544 m 1
 40 546 l 1
 31 552 l 1
 25 561 l 1
 23 572 l 1
 25 583 l 1
 31 592 l 1
 40 598 l 1
 51 600 l 1
 232 600 l 1
 243 598 l 1
 252 592 l 1
 258 583 l 1
 260 572 l 1
 258 561 l 1
 252 552 l 1
 243 546 l 1
 183 544 l 1
 183 56 l 1
 437 56 l 1
 437 544 l 1
 377 546 l 1
 368 552 l 1
 362 561 l 1
 360 572 l 1
 362 583 l 1
 368 592 l 1
 377 598 l 1
 388 600 l 1
 569 600 l 1
 580 598 l 1
 589 592 l 1
 595 583 l 1
 597 572 l 1
 595 561 l 1
 589 552 l 1
 580 546 l 1
 569 544 l 1
 519 544 l 1
 519 56 l 1
 580 54 l 1
 589 48 l 1
 595 39 l 1
 597 28 l 1
 597 -153 l 1
 595 -164 l 1
 583 -177 l 1
 569 -181 l 1
 558 -179 l 1
 549 -173 l 1
 543 -164 l 1
 519 0 l 1
 51 0 l 1
 40 2 l 1
 31 8 l 1
 25 17 l 1
 23 28 l 1
 25 39 l 1
 31 48 l 1
 40 54 l 1
 51 56 l 1
 101 56 l 1
 101 544 l 1
EndSplineSet
Validated: 1
EndChar

StartChar: uni0427
Encoding: 1063 1063 169
Width: 595
VWidth: 0
Flags: W
HStem: 0 56<351 412 493 554> 181 56<239 305> 544 56<40 101 183 243 351 412 493 554>
VStem: 101 82<294 544> 412 81<56 219 299 544>
LayerCount: 2
Back
Fore
SplineSet
101 544 m 1
 40 546 l 1
 31 552 l 1
 25 561 l 1
 23 572 l 1
 25 583 l 1
 31 592 l 1
 40 598 l 1
 51 600 l 1
 232 600 l 1
 243 598 l 1
 252 592 l 1
 258 583 l 1
 260 572 l 1
 258 561 l 1
 252 552 l 1
 243 546 l 1
 183 544 l 1
 183 294 l 1
 201 256 l 1
 239 237 l 1
 305 237 l 1
 373 260 l 1
 412 299 l 1
 412 544 l 1
 362 544 l 1
 351 546 l 1
 342 552 l 1
 336 561 l 1
 334 572 l 1
 336 583 l 1
 342 592 l 1
 351 598 l 1
 362 600 l 1
 543 600 l 1
 554 598 l 1
 563 592 l 1
 569 583 l 1
 571 572 l 1
 569 561 l 1
 563 552 l 1
 554 546 l 1
 543 544 l 1
 493 544 l 1
 493 56 l 1
 543 56 l 1
 554 54 l 1
 563 48 l 1
 569 39 l 1
 571 28 l 1
 569 17 l 1
 563 8 l 1
 554 2 l 1
 543 0 l 1
 362 0 l 1
 351 2 l 1
 342 8 l 1
 336 17 l 1
 334 28 l 1
 336 39 l 1
 342 48 l 1
 351 54 l 1
 362 56 l 1
 412 56 l 1
 412 219 l 1
 397 209 l 1
 310 181 l 1
 230 181 l 1
 136 214 l 1
 104 275 l 1
 101 287 l 1
 101 544 l 1
EndSplineSet
Validated: 1
EndChar

StartChar: uni0428
Encoding: 1064 1064 170
Width: 855
VWidth: 0
Flags: W
HStem: 0 56<41 101 183 386 468 671 753 813> 544 56<41 101 183 243 326 386 468 528 611 671 753 813>
VStem: 101 82<56 544> 386 82<56 544> 671 82<56 544>
CounterMasks: 1 38
LayerCount: 2
Back
Fore
SplineSet
101 544 m 1
 41 546 l 1
 32 552 l 1
 25 561 l 1
 23 572 l 1
 25 583 l 1
 32 592 l 1
 41 598 l 1
 51 600 l 1
 233 600 l 1
 243 598 l 1
 252 592 l 1
 259 583 l 1
 261 572 l 1
 259 561 l 1
 252 552 l 1
 243 546 l 1
 183 544 l 1
 183 56 l 1
 386 56 l 1
 386 544 l 1
 326 546 l 1
 316 552 l 1
 310 561 l 1
 308 572 l 1
 310 583 l 1
 316 592 l 1
 326 598 l 1
 336 600 l 1
 518 600 l 1
 528 598 l 1
 537 592 l 1
 543 583 l 1
 546 572 l 1
 543 561 l 1
 537 552 l 1
 528 546 l 1
 518 544 l 1
 468 544 l 1
 468 56 l 1
 671 56 l 1
 671 544 l 1
 611 546 l 1
 601 552 l 1
 595 561 l 1
 593 572 l 1
 595 583 l 1
 601 592 l 1
 611 598 l 1
 621 600 l 1
 803 600 l 1
 813 598 l 1
 822 592 l 1
 828 583 l 1
 831 572 l 1
 828 561 l 1
 822 552 l 1
 813 546 l 1
 803 544 l 1
 753 544 l 1
 753 56 l 1
 803 56 l 1
 813 54 l 1
 822 48 l 1
 828 39 l 1
 831 28 l 1
 828 17 l 1
 822 8 l 1
 813 2 l 1
 803 0 l 1
 51 0 l 1
 41 2 l 1
 32 8 l 1
 25 17 l 1
 23 28 l 1
 25 39 l 1
 32 48 l 1
 41 54 l 1
 51 56 l 1
 101 56 l 1
 101 544 l 1
EndSplineSet
Validated: 1
EndChar

StartChar: uni0429
Encoding: 1065 1065 171
Width: 855
VWidth: 0
Flags: W
HStem: -180 21G<783 813> 0 56<41 101 183 386 468 671> 544 56<41 101 183 243 326 386 468 528 611 671 753 813>
VStem: 101 82<56 544> 386 82<56 544> 671 82<56 544>
CounterMasks: 1 1c
LayerCount: 2
Back
Fore
SplineSet
101 544 m 1
 41 546 l 1
 32 552 l 1
 25 561 l 1
 23 572 l 1
 25 583 l 1
 32 592 l 1
 41 598 l 1
 51 600 l 1
 233 600 l 1
 243 598 l 1
 252 592 l 1
 259 583 l 1
 261 572 l 1
 259 561 l 1
 252 552 l 1
 243 546 l 1
 183 544 l 1
 183 56 l 1
 386 56 l 1
 386 544 l 1
 326 546 l 1
 316 552 l 1
 310 561 l 1
 308 572 l 1
 310 583 l 1
 316 592 l 1
 326 598 l 1
 336 600 l 1
 518 600 l 1
 528 598 l 1
 537 592 l 1
 543 583 l 1
 546 572 l 1
 543 561 l 1
 537 552 l 1
 528 546 l 1
 518 544 l 1
 468 544 l 1
 468 56 l 1
 671 56 l 1
 671 544 l 1
 611 546 l 1
 601 552 l 1
 595 561 l 1
 593 572 l 1
 595 583 l 1
 601 592 l 1
 611 598 l 1
 621 600 l 1
 803 600 l 1
 813 598 l 1
 822 592 l 1
 828 583 l 1
 831 572 l 1
 828 561 l 1
 822 552 l 1
 813 546 l 1
 803 544 l 1
 753 544 l 1
 753 56 l 1
 813 54 l 1
 822 48 l 1
 828 39 l 1
 831 28 l 1
 831 -153 l 1
 828 -164 l 1
 822 -173 l 1
 813 -179 l 1
 796 -180 l 1
 783 -173 l 1
 777 -164 l 1
 752 0 l 1
 51 0 l 1
 41 2 l 1
 32 8 l 1
 25 17 l 1
 23 28 l 1
 25 39 l 1
 32 48 l 1
 41 54 l 1
 51 56 l 1
 101 56 l 1
 101 544 l 1
EndSplineSet
Validated: 1
EndChar

StartChar: uni042A
Encoding: 1066 1066 172
Width: 674
VWidth: 0
Flags: W
HStem: 0 56<170 230 312 459> 285 56<312 459> 544 56<101 230 312 373>
VStem: 23 52<417 440.231> 230 82<56 285 341 544> 541 82<138 203>
LayerCount: 2
Back
Fore
SplineSet
101 544 m 1
 75 402 l 1
 59 390 l 1
 39 391 l 1
 30 398 l 1
 23 417 l 1
 23 572 l 1
 25 583 l 1
 31 592 l 1
 40 598 l 1
 51 600 l 1
 362 600 l 1
 373 598 l 1
 382 592 l 1
 388 583 l 1
 390 572 l 1
 388 561 l 1
 382 552 l 1
 373 546 l 1
 362 544 l 1
 312 544 l 1
 312 341 l 1
 474 340 l 1
 552 314 l 1
 563 307 l 1
 589 281 l 1
 620 222 l 1
 623 209 l 1
 623 132 l 1
 620 119 l 1
 594 67 l 1
 563 34 l 1
 552 27 l 1
 467 0 l 1
 180 0 l 1
 170 2 l 1
 161 8 l 1
 155 17 l 1
 152 28 l 1
 155 39 l 1
 161 48 l 1
 170 54 l 1
 180 56 l 1
 230 56 l 1
 230 544 l 1
 101 544 l 1
312 285 m 1
 312 56 l 1
 459 56 l 1
 501 77 l 1
 520 96 l 1
 541 138 l 1
 541 203 l 1
 520 245 l 1
 501 264 l 1
 459 285 l 1
 312 285 l 1
EndSplineSet
Validated: 1
EndChar

StartChar: uni042B
Encoding: 1067 1067 173
Width: 779
VWidth: 0
Flags: W
HStem: 0 56<42 102 184 331 534 594 676 736> 285 56<184 331> 544 56<42 102 184 244 534 594 676 736>
VStem: 102 82<56 285 341 544> 413 82<138 203> 594 82<56 544>
LayerCount: 2
Back
Fore
SplineSet
594 544 m 1
 534 546 l 1
 525 552 l 1
 519 561 l 1
 516 572 l 1
 519 583 l 1
 525 592 l 1
 534 598 l 1
 544 600 l 1
 726 600 l 1
 736 598 l 1
 746 592 l 1
 752 583 l 1
 754 572 l 1
 752 561 l 1
 746 552 l 1
 736 546 l 1
 676 544 l 1
 676 56 l 1
 726 56 l 1
 736 54 l 1
 746 48 l 1
 752 39 l 1
 754 28 l 1
 752 17 l 1
 746 8 l 1
 736 2 l 1
 726 0 l 1
 544 0 l 1
 534 2 l 1
 525 8 l 1
 519 17 l 1
 516 28 l 1
 519 39 l 1
 525 48 l 1
 534 54 l 1
 594 56 l 1
 594 544 l 1
102 544 m 1
 42 546 l 1
 32 552 l 1
 26 561 l 1
 24 572 l 1
 26 583 l 1
 32 592 l 1
 42 598 l 1
 52 600 l 1
 234 600 l 1
 244 598 l 1
 253 592 l 1
 259 583 l 1
 262 572 l 1
 259 561 l 1
 253 552 l 1
 244 546 l 1
 234 544 l 1
 184 544 l 1
 184 341 l 1
 346 340 l 1
 424 314 l 1
 435 307 l 1
 466 274 l 1
 492 222 l 1
 495 209 l 1
 495 132 l 1
 492 119 l 1
 466 67 l 1
 435 34 l 1
 424 27 l 1
 339 0 l 1
 52 0 l 1
 42 2 l 1
 32 8 l 1
 26 17 l 1
 24 28 l 1
 26 39 l 1
 32 48 l 1
 42 54 l 1
 102 56 l 1
 102 544 l 1
184 56 m 1
 331 56 l 1
 372 77 l 1
 392 96 l 1
 413 138 l 1
 413 203 l 1
 392 245 l 1
 372 264 l 1
 331 285 l 1
 184 285 l 1
 184 56 l 1
EndSplineSet
Validated: 1
EndChar

StartChar: uni042C
Encoding: 1068 1068 174
Width: 543
VWidth: 0
Flags: W
HStem: 0 56<40 100 182 329> 285 56<182 329> 544 56<40 100 182 243>
VStem: 100 82<56 285 341 544> 411 82<138 203>
LayerCount: 2
Back
Fore
SplineSet
100 544 m 1
 40 546 l 1
 31 552 l 1
 25 561 l 1
 23 572 l 1
 25 583 l 1
 31 592 l 1
 40 598 l 1
 51 600 l 1
 232 600 l 1
 243 598 l 1
 252 592 l 1
 258 583 l 1
 260 572 l 1
 258 561 l 1
 252 552 l 1
 243 546 l 1
 232 544 l 1
 182 544 l 1
 182 341 l 1
 345 340 l 1
 422 314 l 1
 433 307 l 1
 464 274 l 1
 490 222 l 1
 493 209 l 1
 493 132 l 1
 490 119 l 1
 464 67 l 1
 433 34 l 1
 422 27 l 1
 338 0 l 1
 51 0 l 1
 40 2 l 1
 31 8 l 1
 25 17 l 1
 23 28 l 1
 25 39 l 1
 31 48 l 1
 40 54 l 1
 100 56 l 1
 100 544 l 1
182 56 m 1
 329 56 l 1
 371 77 l 1
 390 96 l 1
 411 138 l 1
 411 203 l 1
 390 245 l 1
 371 264 l 1
 329 285 l 1
 182 285 l 1
 182 56 l 1
EndSplineSet
Validated: 1
EndChar

StartChar: uni042D
Encoding: 1069 1069 175
Width: 543
VWidth: 0
Flags: W
HStem: 1 55<197 277> 285 56<195 411> 544 55<223 277>
VStem: 411 81<240 285 341 360>
LayerCount: 2
Back
Fore
SplineSet
115 546 m 1
 135 566 l 1
 146 573 l 1
 223 599 l 1
 293 599 l 1
 370 573 l 1
 381 566 l 1
 433 514 l 1
 464 455 l 1
 493 365 l 1
 492 226 l 1
 466 149 l 1
 438 93 l 1
 381 34 l 1
 370 27 l 1
 286 0 l 1
 197 1 l 1
 120 27 l 1
 109 34 l 1
 78 67 l 1
 52 119 l 1
 49 158 l 1
 51 168 l 1
 57 177 l 1
 92 209 l 1
 103 211 l 1
 113 209 l 1
 122 203 l 1
 154 168 l 1
 156 158 l 1
 154 147 l 1
 119 110 l 1
 126 96 l 1
 144 78 l 1
 211 56 l 1
 277 56 l 1
 319 77 l 1
 365 122 l 1
 387 168 l 1
 411 240 l 1
 411 285 l 1
 206 285 l 1
 195 287 l 1
 186 293 l 1
 180 302 l 1
 178 313 l 1
 180 324 l 1
 186 333 l 1
 195 339 l 1
 206 341 l 1
 411 341 l 1
 411 360 l 1
 387 432 l 1
 365 478 l 1
 319 523 l 1
 277 544 l 1
 237 544 l 1
 170 522 l 1
 127 479 l 1
 98 398 l 1
 89 391 l 1
 78 389 l 1
 67 390 l 1
 57 396 l 1
 51 406 l 1
 49 417 l 1
 49 572 l 1
 51 583 l 1
 57 592 l 1
 67 598 l 1
 78 600 l 1
 89 597 l 1
 98 591 l 1
 103 581 l 1
 115 546 l 1
EndSplineSet
Validated: 1
EndChar

StartChar: uni042E
Encoding: 1070 1070 176
Width: 804
VWidth: 0
Flags: W
HStem: 0 56<42 102 184 244 499 538> 285 56<184 283> 544 56<42 102 184 244 499 538>
VStem: 102 82<56 285 341 544> 284 81<237.56 285> 672 81<236.417 363.583>
LayerCount: 2
Back
Fore
SplineSet
102 544 m 1
 42 546 l 1
 32 552 l 1
 26 561 l 1
 24 572 l 1
 26 583 l 1
 32 592 l 1
 42 598 l 1
 52 600 l 1
 234 600 l 1
 244 598 l 1
 253 592 l 1
 259 583 l 1
 262 572 l 1
 259 561 l 1
 253 552 l 1
 244 546 l 1
 234 544 l 1
 184 544 l 1
 184 341 l 1
 284 341 l 1
 312 455 l 1
 343 514 l 1
 395 566 l 1
 406 573 l 1
 484 599 l 1
 544 600 l 1
 631 573 l 1
 642 566 l 1
 694 514 l 1
 725 455 l 1
 754 339 l 1
 753 254 l 1
 727 151 l 1
 694 86 l 1
 642 34 l 1
 631 27 l 1
 553 1 l 1
 491 0 l 1
 406 27 l 1
 395 34 l 1
 343 86 l 1
 312 145 l 1
 284 254 l 1
 283 285 l 1
 184 285 l 1
 184 56 l 1
 244 54 l 1
 253 48 l 1
 259 39 l 1
 262 28 l 1
 259 17 l 1
 253 8 l 1
 244 2 l 1
 234 0 l 1
 52 0 l 1
 42 2 l 1
 32 8 l 1
 26 17 l 1
 24 28 l 1
 26 39 l 1
 32 48 l 1
 42 54 l 1
 52 56 l 1
 102 56 l 1
 102 544 l 1
538 56 m 1
 580 77 l 1
 625 122 l 1
 648 167 l 1
 672 265 l 1
 672 335 l 1
 648 433 l 1
 625 478 l 1
 580 523 l 1
 538 544 l 1
 499 544 l 1
 457 523 l 1
 412 478 l 1
 390 433 l 1
 365 335 l 1
 365 265 l 1
 390 167 l 1
 412 122 l 1
 457 77 l 1
 499 56 l 1
 538 56 l 1
EndSplineSet
Validated: 1
EndChar

StartChar: uni042F
Encoding: 1071 1071 177
Width: 569
VWidth: 0
Flags: W
HStem: 0 56<325 386 467 528> 285 56<291 386> 544 56<213 386 467 528>
VStem: 49 82<423 462> 386 81<56 285 341 544>
LayerCount: 2
Back
Fore
SplineSet
23 80 m 1
 25 116 l 1
 31 126 l 1
 40 132 l 1
 51 134 l 1
 62 132 l 1
 71 126 l 1
 77 116 l 1
 79 91 l 1
 88 82 l 1
 105 96 l 1
 181 272 l 1
 193 288 l 1
 120 312 l 1
 109 319 l 1
 78 352 l 1
 52 404 l 1
 49 417 l 1
 49 468 l 1
 52 481 l 1
 78 533 l 1
 109 566 l 1
 120 573 l 1
 204 600 l 1
 517 600 l 1
 528 598 l 1
 537 592 l 1
 543 583 l 1
 545 572 l 1
 543 561 l 1
 537 552 l 1
 528 546 l 1
 517 544 l 1
 467 544 l 1
 467 56 l 1
 517 56 l 1
 528 54 l 1
 537 48 l 1
 543 39 l 1
 545 28 l 1
 543 17 l 1
 537 8 l 1
 528 2 l 1
 517 0 l 1
 336 0 l 1
 325 2 l 1
 316 8 l 1
 310 17 l 1
 308 28 l 1
 310 39 l 1
 316 48 l 1
 325 54 l 1
 386 56 l 1
 386 285 l 1
 291 285 l 1
 253 266 l 1
 232 225 l 1
 181 46 l 1
 174 34 l 1
 139 2 l 1
 77 0 l 1
 58 7 l 1
 26 67 l 1
 23 80 l 1
213 341 m 1
 386 341 l 1
 386 544 l 1
 213 544 l 1
 171 523 l 1
 152 504 l 1
 131 462 l 1
 131 423 l 1
 152 381 l 1
 171 362 l 1
 213 341 l 1
EndSplineSet
Validated: 1
EndChar

StartChar: uni0430
Encoding: 1072 1072 178
Width: 517
VWidth: 0
Flags: W
HStem: 0 56<187 251> 363 56<187 277>
VStem: 49 81<112 151> 334 81<117 232 299 300>
LayerCount: 2
Back
Fore
SplineSet
155 347 m 1
 154 302 l 1
 148 293 l 1
 139 287 l 1
 102 285 l 1
 92 287 l 1
 83 293 l 1
 77 302 l 1
 74 339 l 1
 77 350 l 1
 83 359 l 1
 116 390 l 1
 168 416 l 1
 180 419 l 1
 284 419 l 1
 296 416 l 1
 348 390 l 1
 381 359 l 1
 412 300 l 1
 415 287 l 1
 415 112 l 1
 436 70 l 1
 451 56 l 1
 476 54 l 1
 485 48 l 1
 491 39 l 1
 493 28 l 1
 491 17 l 1
 485 8 l 1
 476 2 l 1
 465 0 l 1
 429 2 l 1
 368 34 l 1
 354 58 l 1
 322 29 l 1
 270 3 l 1
 258 0 l 1
 178 0 l 1
 84 33 l 1
 52 93 l 1
 49 106 l 1
 49 158 l 1
 52 170 l 1
 84 230 l 1
 176 263 l 1
 322 287 l 1
 334 299 l 1
 334 327 l 1
 319 342 l 1
 277 363 l 1
 187 363 l 1
 155 347 l 1
189 208 m 1
 149 188 l 1
 130 151 l 1
 130 112 l 1
 149 75 l 1
 187 56 l 1
 251 56 l 1
 293 77 l 1
 334 117 l 1
 334 232 l 1
 189 208 l 1
EndSplineSet
Validated: 1
EndChar

StartChar: uni0431
Encoding: 1073 1073 179
Width: 517
VWidth: 0
Flags: W
HStem: 0 56<239 277> 363 55<239 277> 580 20G<403 424>
VStem: 49 82<166.682 252.318> 385 81<175 252.318>
LayerCount: 2
Back
Fore
SplineSet
228 418 m 1
 293 417 l 1
 370 391 l 1
 381 385 l 1
 433 333 l 1
 440 322 l 1
 467 235 l 1
 466 175 l 1
 440 97 l 1
 433 86 l 1
 381 34 l 1
 370 27 l 1
 286 0 l 1
 230 0 l 1
 146 27 l 1
 135 34 l 1
 83 86 l 1
 76 97 l 1
 49 183 l 1
 50 296 l 1
 77 375 l 1
 139 466 l 1
 217 518 l 1
 372 571 l 1
 403 598 l 1
 413 600 l 1
 424 598 l 1
 435 590 l 1
 441 572 l 1
 439 561 l 1
 407 500 l 1
 343 467 l 1
 244 442 l 1
 188 406 l 1
 228 418 l 1
277 56 m 1
 319 77 l 1
 363 121 l 1
 385 188 l 1
 385 231 l 1
 363 298 l 1
 319 342 l 1
 277 363 l 1
 239 363 l 1
 197 342 l 1
 153 298 l 1
 131 231 l 1
 131 188 l 1
 153 121 l 1
 197 77 l 1
 239 56 l 1
 277 56 l 1
EndSplineSet
Validated: 1
EndChar

StartChar: uni0432
Encoding: 1074 1074 180
Width: 517
VWidth: 0
Flags: W
HStem: 0 56<40 100 182 329> 181 56<182 329> 363 56<40 100 182 329>
VStem: 100 82<56 181 237 363>
LayerCount: 2
Back
Fore
SplineSet
100 363 m 1
 40 365 l 1
 31 371 l 1
 25 380 l 1
 23 391 l 1
 25 401 l 1
 31 410 l 1
 40 417 l 1
 51 419 l 1
 338 419 l 1
 432 386 l 1
 464 325 l 1
 467 287 l 1
 464 275 l 1
 438 223 l 1
 423 209 l 1
 438 196 l 1
 464 144 l 1
 467 106 l 1
 464 93 l 1
 432 33 l 1
 338 0 l 1
 51 0 l 1
 40 2 l 1
 31 8 l 1
 25 17 l 1
 23 28 l 1
 25 39 l 1
 31 48 l 1
 40 54 l 1
 51 56 l 1
 100 56 l 1
 100 363 l 1
182 363 m 1
 182 237 l 1
 329 237 l 1
 367 256 l 1
 385 294 l 1
 385 306 l 1
 367 344 l 1
 329 363 l 1
 182 363 l 1
182 56 m 1
 329 56 l 1
 367 75 l 1
 385 112 l 1
 385 125 l 1
 367 163 l 1
 329 181 l 1
 182 181 l 1
 182 56 l 1
EndSplineSet
Validated: 1
EndChar

StartChar: uni0433
Encoding: 1075 1075 181
Width: 465
VWidth: 0
Flags: W
HStem: 0 56<40 100 182 243> 363 56<40 100 182 365>
VStem: 100 82<56 363>
LayerCount: 2
Back
Fore
SplineSet
100 363 m 1
 40 365 l 1
 31 371 l 1
 25 380 l 1
 23 391 l 1
 25 401 l 1
 31 410 l 1
 40 417 l 1
 51 419 l 1
 413 419 l 1
 424 417 l 1
 433 410 l 1
 439 401 l 1
 441 261 l 1
 439 250 l 1
 432 240 l 1
 422 234 l 1
 410 233 l 1
 399 237 l 1
 391 245 l 1
 386 256 l 1
 365 363 l 1
 182 363 l 1
 182 56 l 1
 232 56 l 1
 243 54 l 1
 252 48 l 1
 258 39 l 1
 260 28 l 1
 258 17 l 1
 252 8 l 1
 243 2 l 1
 232 0 l 1
 51 0 l 1
 40 2 l 1
 31 8 l 1
 25 17 l 1
 23 28 l 1
 25 39 l 1
 31 48 l 1
 40 54 l 1
 100 56 l 1
 100 363 l 1
EndSplineSet
Validated: 1
EndChar

StartChar: uni0434
Encoding: 1076 1076 182
Width: 595
VWidth: 0
Flags: W
HStem: 0 56<100 117 185 412 493 494> 363 56<118 178 234 412 493 554>
VStem: 178 56<246.72 363> 412 81<56 363>
LayerCount: 2
Back
Fore
SplineSet
117 56 m 1
 130 69 l 1
 153 138 l 1
 178 289 l 1
 178 363 l 1
 129 363 l 1
 118 365 l 1
 109 371 l 1
 103 380 l 1
 101 391 l 1
 103 401 l 1
 109 410 l 1
 118 417 l 1
 129 419 l 1
 543 419 l 1
 554 417 l 1
 563 410 l 1
 569 401 l 1
 571 391 l 1
 569 380 l 1
 563 371 l 1
 554 365 l 1
 543 363 l 1
 493 363 l 1
 493 56 l 1
 554 54 l 1
 563 48 l 1
 569 39 l 1
 571 -102 l 1
 569 -113 l 1
 562 -122 l 1
 552 -128 l 1
 540 -129 l 1
 529 -126 l 1
 520 -118 l 1
 516 -107 l 1
 494 0 l 1
 100 0 l 1
 78 -107 l 1
 74 -118 l 1
 65 -126 l 1
 54 -129 l 1
 42 -128 l 1
 32 -122 l 1
 25 -113 l 1
 23 -102 l 1
 25 39 l 1
 31 48 l 1
 40 54 l 1
 51 56 l 1
 117 56 l 1
234 363 m 1
 234 282 l 1
 208 127 l 1
 185 56 l 1
 412 56 l 1
 412 363 l 1
 234 363 l 1
EndSplineSet
Validated: 1
EndChar

StartChar: uni0435
Encoding: 1077 1077 183
Width: 491
VWidth: 0
Flags: W
HStem: 1 55<239 300.318> 207 56<141 360> 363 55<239 303>
VStem: 49 82<166.682 207> 360 81<263 300>
LayerCount: 2
Back
Fore
SplineSet
231 418 m 1
 310 419 l 1
 322 416 l 1
 374 390 l 1
 413 351 l 1
 438 300 l 1
 441 287 l 1
 439 225 l 1
 433 215 l 1
 424 209 l 1
 413 207 l 1
 131 207 l 1
 131 188 l 1
 153 121 l 1
 197 77 l 1
 239 56 l 1
 279 56 l 1
 346 78 l 1
 403 132 l 1
 413 134 l 1
 424 132 l 1
 433 126 l 1
 439 116 l 1
 441 106 l 1
 439 95 l 1
 381 34 l 1
 370 27 l 1
 284 0 l 1
 223 1 l 1
 146 27 l 1
 135 34 l 1
 83 86 l 1
 76 97 l 1
 49 183 l 1
 50 244 l 1
 76 322 l 1
 83 333 l 1
 135 385 l 1
 146 391 l 1
 231 418 l 1
239 363 m 1
 197 342 l 1
 153 298 l 1
 141 263 l 1
 360 263 l 1
 360 306 l 1
 341 344 l 1
 303 363 l 1
 239 363 l 1
EndSplineSet
Validated: 1
EndChar

StartChar: uni0436
Encoding: 1078 1078 184
Width: 701
VWidth: 0
Flags: W
HStem: 0 56<249 309 391 451> 181 56<297 309 391 403> 363 56<249 309 391 451>
VStem: 309 82<56 181 237 363>
LayerCount: 2
Back
Fore
SplineSet
139 335 m 1
 115 313 l 1
 104 311 l 1
 93 313 l 1
 84 319 l 1
 52 354 l 1
 50 365 l 1
 52 375 l 1
 58 385 l 1
 93 417 l 1
 130 419 l 1
 140 417 l 1
 181 377 l 1
 230 278 l 1
 250 258 l 1
 292 237 l 1
 309 237 l 1
 309 363 l 1
 259 363 l 1
 249 365 l 1
 239 371 l 1
 233 380 l 1
 231 391 l 1
 233 401 l 1
 239 410 l 1
 249 417 l 1
 259 419 l 1
 441 419 l 1
 451 417 l 1
 460 410 l 1
 466 401 l 1
 469 391 l 1
 466 380 l 1
 460 371 l 1
 451 365 l 1
 441 363 l 1
 391 363 l 1
 391 237 l 1
 408 237 l 1
 450 258 l 1
 469 278 l 1
 519 377 l 1
 550 410 l 1
 559 417 l 1
 570 419 l 1
 607 417 l 1
 616 410 l 1
 648 375 l 1
 650 365 l 1
 648 354 l 1
 642 345 l 1
 607 313 l 1
 596 311 l 1
 585 313 l 1
 561 335 l 1
 517 249 l 1
 477 209 l 1
 517 170 l 1
 567 70 l 1
 582 56 l 1
 599 70 l 1
 630 127 l 1
 639 132 l 1
 650 134 l 1
 660 131 l 1
 669 124 l 1
 674 115 l 1
 676 104 l 1
 647 41 l 1
 607 2 l 1
 544 0 l 1
 534 2 l 1
 493 41 l 1
 444 141 l 1
 403 181 l 1
 391 181 l 1
 391 56 l 1
 441 56 l 1
 451 54 l 1
 460 48 l 1
 466 39 l 1
 469 28 l 1
 466 17 l 1
 460 8 l 1
 451 2 l 1
 441 0 l 1
 259 0 l 1
 249 2 l 1
 239 8 l 1
 233 17 l 1
 231 28 l 1
 233 39 l 1
 239 48 l 1
 249 54 l 1
 259 56 l 1
 309 56 l 1
 309 181 l 1
 297 181 l 1
 256 141 l 1
 207 41 l 1
 175 8 l 1
 166 2 l 1
 156 0 l 1
 93 2 l 1
 53 41 l 1
 24 104 l 1
 25 115 l 1
 31 124 l 1
 40 131 l 1
 50 134 l 1
 61 132 l 1
 70 127 l 1
 101 70 l 1
 118 56 l 1
 133 70 l 1
 182 170 l 1
 223 209 l 1
 182 249 l 1
 139 335 l 1
EndSplineSet
Validated: 1
EndChar

StartChar: uni0437
Encoding: 1079 1079 185
Width: 465
VWidth: 0
Flags: W
HStem: 0 56<185 277> 181 56<195 277> 363 56<187 277>
LayerCount: 2
Back
Fore
SplineSet
110 386 m 1
 168 416 l 1
 180 419 l 1
 284 419 l 1
 370 391 l 1
 380 386 l 1
 387 377 l 1
 412 325 l 1
 415 287 l 1
 412 275 l 1
 387 223 l 1
 372 209 l 1
 387 196 l 1
 412 144 l 1
 415 106 l 1
 412 93 l 1
 380 33 l 1
 286 0 l 1
 180 0 l 1
 94 27 l 1
 84 33 l 1
 77 41 l 1
 52 93 l 1
 49 132 l 1
 51 142 l 1
 57 151 l 1
 92 183 l 1
 102 186 l 1
 113 183 l 1
 148 151 l 1
 154 142 l 1
 156 132 l 1
 154 121 l 1
 119 84 l 1
 122 77 l 1
 185 56 l 1
 277 56 l 1
 315 75 l 1
 334 112 l 1
 334 125 l 1
 315 163 l 1
 277 181 l 1
 195 183 l 1
 186 190 l 1
 180 199 l 1
 178 209 l 1
 180 220 l 1
 186 229 l 1
 195 235 l 1
 277 237 l 1
 315 256 l 1
 334 294 l 1
 334 306 l 1
 315 344 l 1
 277 363 l 1
 187 363 l 1
 145 342 l 1
 125 322 l 1
 95 266 l 1
 86 261 l 1
 75 259 l 1
 65 262 l 1
 56 268 l 1
 51 277 l 1
 49 287 l 1
 51 401 l 1
 56 410 l 1
 65 416 l 1
 75 419 l 1
 86 417 l 1
 95 412 l 1
 110 386 l 1
EndSplineSet
Validated: 1
EndChar

StartChar: uni0438
Encoding: 1080 1080 186
Width: 569
VWidth: 0
Flags: W
HStem: 0 56<40 101 193 243 325 386 467 528> 363 56<40 101 182 243 325 375 467 528>
VStem: 101 81<131 363> 386 81<56 287>
LayerCount: 2
Back
Fore
SplineSet
101 363 m 1
 40 365 l 1
 31 371 l 1
 25 380 l 1
 23 391 l 1
 25 401 l 1
 31 410 l 1
 40 417 l 1
 51 419 l 1
 232 419 l 1
 243 417 l 1
 252 410 l 1
 258 401 l 1
 260 391 l 1
 258 380 l 1
 252 371 l 1
 243 365 l 1
 182 363 l 1
 182 131 l 1
 375 363 l 1
 336 363 l 1
 325 365 l 1
 316 371 l 1
 310 380 l 1
 308 391 l 1
 310 401 l 1
 316 410 l 1
 325 417 l 1
 336 419 l 1
 517 419 l 1
 528 417 l 1
 537 410 l 1
 543 401 l 1
 545 391 l 1
 543 380 l 1
 537 371 l 1
 528 365 l 1
 517 363 l 1
 467 363 l 1
 467 56 l 1
 517 56 l 1
 528 54 l 1
 537 48 l 1
 543 39 l 1
 545 28 l 1
 543 17 l 1
 537 8 l 1
 528 2 l 1
 517 0 l 1
 336 0 l 1
 325 2 l 1
 316 8 l 1
 310 17 l 1
 308 28 l 1
 310 39 l 1
 316 48 l 1
 325 54 l 1
 386 56 l 1
 386 287 l 1
 193 56 l 1
 232 56 l 1
 243 54 l 1
 252 48 l 1
 258 39 l 1
 260 28 l 1
 258 17 l 1
 252 8 l 1
 243 2 l 1
 232 0 l 1
 51 0 l 1
 40 2 l 1
 31 8 l 1
 25 17 l 1
 23 28 l 1
 25 39 l 1
 31 48 l 1
 40 54 l 1
 51 56 l 1
 101 56 l 1
 101 363 l 1
EndSplineSet
Validated: 1
EndChar

StartChar: uni0439
Encoding: 1081 1081 187
Width: 569
VWidth: 0
Flags: W
HStem: 0 56<40 101 193 243 325 386 467 528> 363 56<40 101 182 243 325 375 467 528> 440 56<265 303> 580 20G<170 217>
VStem: 101 81<131 363> 152 82<535 583> 386 81<56 287>
LayerCount: 2
Back
Fore
SplineSet
101 363 m 1xfa
 40 365 l 1
 31 371 l 1
 25 380 l 1
 23 391 l 1
 25 401 l 1
 31 410 l 1
 40 417 l 1
 51 419 l 1
 232 419 l 1
 243 417 l 1
 252 410 l 1
 258 401 l 1
 260 391 l 1
 258 380 l 1
 252 371 l 1
 243 365 l 1
 182 363 l 1
 182 131 l 1
 375 363 l 1
 336 363 l 1
 325 365 l 1
 316 371 l 1
 310 380 l 1
 308 391 l 1
 310 401 l 1
 316 410 l 1
 325 417 l 1
 336 419 l 1
 517 419 l 1
 528 417 l 1
 537 410 l 1
 543 401 l 1
 545 391 l 1
 543 380 l 1
 537 371 l 1
 528 365 l 1
 517 363 l 1
 467 363 l 1
 467 56 l 1
 517 56 l 1
 528 54 l 1
 537 48 l 1
 543 39 l 1
 545 28 l 1
 543 17 l 1
 537 8 l 1
 528 2 l 1
 517 0 l 1
 336 0 l 1
 325 2 l 1
 316 8 l 1
 310 17 l 1
 308 28 l 1
 310 39 l 1
 316 48 l 1
 325 54 l 1
 386 56 l 1
 386 287 l 1
 193 56 l 1
 232 56 l 1
 243 54 l 1
 252 48 l 1
 258 39 l 1
 260 28 l 1
 258 17 l 1
 252 8 l 1
 243 2 l 1
 232 0 l 1
 51 0 l 1
 40 2 l 1
 31 8 l 1
 25 17 l 1
 23 28 l 1
 25 39 l 1
 31 48 l 1
 40 54 l 1
 51 56 l 1
 101 56 l 1
 101 363 l 1xfa
223 524 m 1
 227 515 l 1
 265 496 l 1
 303 496 l 1
 341 515 l 1
 363 559 l 1
 369 567 l 1
 379 573 l 1
 390 574 l 1
 400 571 l 1
 409 564 l 1
 414 555 l 1
 416 544 l 1
 413 534 l 1
 382 474 l 1
 322 443 l 1
 310 440 l 1
 258 440 l 1
 246 443 l 1
 186 474 l 1
 155 534 l 1
 152 546 l 1
 152 572 l 1
 155 583 l 1
 161 592 l 1
 170 598 l 1
 180 600 l 1
 206 600 l 1
 217 598 l 1
 226 592 l 1
 232 583 l 1
 234 572 l 1
 234 546 l 1xf6
 232 535 l 1
 223 524 l 1
EndSplineSet
Validated: 1
EndChar

StartChar: uni043A
Encoding: 1082 1082 188
Width: 517
VWidth: 0
Flags: W
HStem: 0 56<40 100 182 243> 181 56<182 200> 363 56<40 100 182 243>
VStem: 100 82<56 181 237 363>
LayerCount: 2
Back
Fore
SplineSet
100 363 m 1
 40 365 l 1
 31 371 l 1
 25 380 l 1
 23 391 l 1
 25 401 l 1
 31 410 l 1
 40 417 l 1
 51 419 l 1
 232 419 l 1
 243 417 l 1
 252 410 l 1
 258 401 l 1
 260 391 l 1
 258 380 l 1
 252 371 l 1
 243 365 l 1
 232 363 l 1
 182 363 l 1
 182 237 l 1
 202 237 l 1
 269 260 l 1
 287 278 l 1
 337 377 l 1
 368 410 l 1
 377 417 l 1
 388 419 l 1
 413 419 l 1
 424 417 l 1
 433 410 l 1
 465 375 l 1
 467 365 l 1
 465 354 l 1
 459 345 l 1
 433 319 l 1
 424 313 l 1
 413 311 l 1
 403 313 l 1
 394 319 l 1
 378 335 l 1
 335 249 l 1
 304 215 l 1
 294 209 l 1
 304 203 l 1
 335 170 l 1
 385 70 l 1
 399 56 l 1
 416 70 l 1
 447 127 l 1
 456 132 l 1
 467 134 l 1
 478 131 l 1
 486 124 l 1
 492 115 l 1
 493 104 l 1
 490 93 l 1
 459 34 l 1
 424 2 l 1
 362 0 l 1
 351 2 l 1
 311 41 l 1
 261 141 l 1
 241 160 l 1
 200 181 l 1
 182 181 l 1
 182 56 l 1
 232 56 l 1
 243 54 l 1
 252 48 l 1
 258 39 l 1
 260 28 l 1
 258 17 l 1
 252 8 l 1
 243 2 l 1
 232 0 l 1
 51 0 l 1
 40 2 l 1
 31 8 l 1
 25 17 l 1
 23 28 l 1
 25 39 l 1
 31 48 l 1
 40 54 l 1
 51 56 l 1
 100 56 l 1
 100 363 l 1
EndSplineSet
Validated: 1
EndChar

StartChar: uni043B
Encoding: 1083 1083 189
Width: 569
VWidth: 0
Flags: W
HStem: 0 56<325 386 467 528> 363 56<92 152 208 386 467 528>
VStem: 152 56<246.72 363> 386 81<56 363>
LayerCount: 2
Back
Fore
SplineSet
110 86 m 1
 127 138 l 1
 152 289 l 1
 152 363 l 1
 103 363 l 1
 92 365 l 1
 83 371 l 1
 77 380 l 1
 75 391 l 1
 77 401 l 1
 83 410 l 1
 92 417 l 1
 103 419 l 1
 517 419 l 1
 528 417 l 1
 537 410 l 1
 543 401 l 1
 545 391 l 1
 543 380 l 1
 537 371 l 1
 528 365 l 1
 517 363 l 1
 467 363 l 1
 467 56 l 1
 517 56 l 1
 528 54 l 1
 537 48 l 1
 543 39 l 1
 545 28 l 1
 543 17 l 1
 537 8 l 1
 528 2 l 1
 517 0 l 1
 336 0 l 1
 325 2 l 1
 316 8 l 1
 310 17 l 1
 308 28 l 1
 310 39 l 1
 316 48 l 1
 325 54 l 1
 386 56 l 1
 386 363 l 1
 208 363 l 1
 208 282 l 1
 182 127 l 1
 155 45 l 1
 148 34 l 1
 122 8 l 1
 113 2 l 1
 103 0 l 1
 66 2 l 1
 57 8 l 1
 25 43 l 1
 23 54 l 1
 25 65 l 1
 31 74 l 1
 66 106 l 1
 77 108 l 1
 87 106 l 1
 110 86 l 1
EndSplineSet
Validated: 1
EndChar

StartChar: uni043C
Encoding: 1084 1084 190
Width: 595
VWidth: 0
Flags: W
HStem: 0 56<40 101 157 217 351 411 493 554> 363 56<40 101 493 554>
VStem: 101 56<56 254> 411 82<56 254>
LayerCount: 2
Back
Fore
SplineSet
101 363 m 1
 40 365 l 1
 31 371 l 1
 25 380 l 1
 23 391 l 1
 25 401 l 1
 31 410 l 1
 40 417 l 1
 51 419 l 1
 154 419 l 1
 165 417 l 1
 174 410 l 1
 180 401 l 1
 295 125 l 1
 420 410 l 1
 429 417 l 1
 439 419 l 1
 543 419 l 1
 554 417 l 1
 563 410 l 1
 569 401 l 1
 571 391 l 1
 569 380 l 1
 563 371 l 1
 554 365 l 1
 543 363 l 1
 493 363 l 1
 493 56 l 1
 543 56 l 1
 554 54 l 1
 563 48 l 1
 569 39 l 1
 571 28 l 1
 569 17 l 1
 563 8 l 1
 554 2 l 1
 543 0 l 1
 362 0 l 1
 351 2 l 1
 342 8 l 1
 336 17 l 1
 334 28 l 1
 336 39 l 1
 342 48 l 1
 351 54 l 1
 411 56 l 1
 411 254 l 1
 310 17 l 1
 304 8 l 1
 294 2 l 1
 284 0 l 1
 273 2 l 1
 264 8 l 1
 258 17 l 1
 157 254 l 1
 157 56 l 1
 217 54 l 1
 226 48 l 1
 232 39 l 1
 234 28 l 1
 232 17 l 1
 226 8 l 1
 217 2 l 1
 206 0 l 1
 51 0 l 1
 40 2 l 1
 31 8 l 1
 25 17 l 1
 23 28 l 1
 25 39 l 1
 31 48 l 1
 40 54 l 1
 51 56 l 1
 101 56 l 1
 101 363 l 1
EndSplineSet
Validated: 1
EndChar

StartChar: uni043D
Encoding: 1085 1085 191
Width: 569
VWidth: 0
Flags: W
HStem: 0 56<40 101 182 243 325 386 467 528> 181 56<182 386> 363 56<40 101 182 243 325 386 467 528>
VStem: 101 81<56 181 237 363> 386 81<56 181 237 363>
LayerCount: 2
Back
Fore
SplineSet
101 363 m 1
 40 365 l 1
 31 371 l 1
 25 380 l 1
 23 391 l 1
 25 401 l 1
 31 410 l 1
 40 417 l 1
 51 419 l 1
 232 419 l 1
 243 417 l 1
 252 410 l 1
 258 401 l 1
 260 391 l 1
 258 380 l 1
 252 371 l 1
 243 365 l 1
 232 363 l 1
 182 363 l 1
 182 237 l 1
 386 237 l 1
 386 363 l 1
 336 363 l 1
 325 365 l 1
 316 371 l 1
 310 380 l 1
 308 391 l 1
 310 401 l 1
 316 410 l 1
 325 417 l 1
 336 419 l 1
 517 419 l 1
 528 417 l 1
 537 410 l 1
 543 401 l 1
 545 391 l 1
 543 380 l 1
 537 371 l 1
 528 365 l 1
 517 363 l 1
 467 363 l 1
 467 56 l 1
 517 56 l 1
 528 54 l 1
 537 48 l 1
 543 39 l 1
 545 28 l 1
 543 17 l 1
 537 8 l 1
 528 2 l 1
 517 0 l 1
 336 0 l 1
 325 2 l 1
 316 8 l 1
 310 17 l 1
 308 28 l 1
 310 39 l 1
 316 48 l 1
 325 54 l 1
 336 56 l 1
 386 56 l 1
 386 181 l 1
 182 181 l 1
 182 56 l 1
 232 56 l 1
 243 54 l 1
 252 48 l 1
 258 39 l 1
 260 28 l 1
 258 17 l 1
 252 8 l 1
 243 2 l 1
 232 0 l 1
 51 0 l 1
 40 2 l 1
 31 8 l 1
 25 17 l 1
 23 28 l 1
 25 39 l 1
 31 48 l 1
 40 54 l 1
 51 56 l 1
 101 56 l 1
 101 363 l 1
EndSplineSet
Validated: 1
EndChar

StartChar: uni043E
Encoding: 1086 1086 192
Width: 519
VWidth: 0
Flags: W
HStem: 0 56<240 278> 363 54<240 278>
VStem: 51 81<175 244> 386 81<175 244>
LayerCount: 2
Back
Fore
SplineSet
147 391 m 1
 231 419 l 1
 294 417 l 1
 371 391 l 1
 382 385 l 1
 434 333 l 1
 441 322 l 1
 467 244 l 1
 467 175 l 1
 441 97 l 1
 434 86 l 1
 382 34 l 1
 371 27 l 1
 294 1 l 1
 231 0 l 1
 147 27 l 1
 136 34 l 1
 84 86 l 1
 77 97 l 1
 51 175 l 1
 51 244 l 1
 77 322 l 1
 84 333 l 1
 136 385 l 1
 147 391 l 1
278 56 m 1
 320 77 l 1
 364 121 l 1
 386 188 l 1
 386 231 l 1
 364 298 l 1
 320 342 l 1
 278 363 l 1
 240 363 l 1
 198 342 l 1
 154 298 l 1
 132 231 l 1
 132 188 l 1
 154 121 l 1
 198 77 l 1
 240 56 l 1
 278 56 l 1
EndSplineSet
Validated: 1
EndChar

StartChar: uni043F
Encoding: 1087 1087 193
Width: 569
VWidth: 0
Flags: W
HStem: 0 56<40 101 182 243 325 386 467 528> 363 56<40 101 182 386 467 528>
VStem: 101 81<56 363> 386 81<56 363>
LayerCount: 2
Back
Fore
SplineSet
101 363 m 1
 40 365 l 1
 31 371 l 1
 25 380 l 1
 23 391 l 1
 25 401 l 1
 31 410 l 1
 40 417 l 1
 51 419 l 1
 517 419 l 1
 528 417 l 1
 537 410 l 1
 543 401 l 1
 545 391 l 1
 543 380 l 1
 537 371 l 1
 528 365 l 1
 517 363 l 1
 467 363 l 1
 467 56 l 1
 517 56 l 1
 528 54 l 1
 537 48 l 1
 543 39 l 1
 545 28 l 1
 543 17 l 1
 537 8 l 1
 528 2 l 1
 517 0 l 1
 336 0 l 1
 325 2 l 1
 316 8 l 1
 310 17 l 1
 308 28 l 1
 310 39 l 1
 316 48 l 1
 325 54 l 1
 336 56 l 1
 386 56 l 1
 386 363 l 1
 182 363 l 1
 182 56 l 1
 243 54 l 1
 252 48 l 1
 258 39 l 1
 260 28 l 1
 258 17 l 1
 252 8 l 1
 243 2 l 1
 232 0 l 1
 51 0 l 1
 40 2 l 1
 31 8 l 1
 25 17 l 1
 23 28 l 1
 25 39 l 1
 31 48 l 1
 40 54 l 1
 51 56 l 1
 101 56 l 1
 101 363 l 1
EndSplineSet
Validated: 1
EndChar

StartChar: uni0440
Encoding: 1088 1088 194
Width: 544
VWidth: 0
Flags: W
HStem: -181 56<40 101 182 243> 0 56<265 303> 363 56<40 101 265 303>
VStem: 101 81<-125 38 117 301> 411 81<175 244>
LayerCount: 2
Back
Fore
SplineSet
101 363 m 1
 40 365 l 1
 31 371 l 1
 25 380 l 1
 23 391 l 1
 25 401 l 1
 31 410 l 1
 40 417 l 1
 51 419 l 1
 154 419 l 1
 165 417 l 1
 174 410 l 1
 180 401 l 1
 182 381 l 1
 194 390 l 1
 246 416 l 1
 258 419 l 1
 319 417 l 1
 396 391 l 1
 407 385 l 1
 459 333 l 1
 466 322 l 1
 492 244 l 1
 492 175 l 1
 466 97 l 1
 459 86 l 1
 407 34 l 1
 396 27 l 1
 319 1 l 1
 258 0 l 1
 246 3 l 1
 194 29 l 1
 182 38 l 1
 182 -125 l 1
 232 -125 l 1
 243 -127 l 1
 252 -134 l 1
 258 -143 l 1
 260 -153 l 1
 258 -164 l 1
 252 -173 l 1
 243 -179 l 1
 232 -181 l 1
 51 -181 l 1
 40 -179 l 1
 31 -173 l 1
 25 -164 l 1
 23 -153 l 1
 25 -143 l 1
 31 -134 l 1
 40 -127 l 1
 101 -125 l 1
 101 363 l 1
303 56 m 1
 345 77 l 1
 389 121 l 1
 411 188 l 1
 411 231 l 1
 389 298 l 1
 345 342 l 1
 303 363 l 1
 265 363 l 1
 223 342 l 1
 182 301 l 1
 182 117 l 1
 223 77 l 1
 265 56 l 1
 303 56 l 1
EndSplineSet
Validated: 1
EndChar

StartChar: uni0441
Encoding: 1089 1089 195
Width: 491
VWidth: 0
Flags: W
HStem: 1 55<239 300.318> 363 55<239 303>
VStem: 49 82<166.682 244>
LayerCount: 2
Back
Fore
SplineSet
228 418 m 1
 310 419 l 1
 322 416 l 1
 381 385 l 1
 433 333 l 1
 439 324 l 1
 441 313 l 1
 441 287 l 1
 439 276 l 1
 433 267 l 1
 407 241 l 1
 398 235 l 1
 388 233 l 1
 377 235 l 1
 368 241 l 1
 336 276 l 1
 334 287 l 1
 336 298 l 1
 361 326 l 1
 345 342 l 1
 303 363 l 1
 239 363 l 1
 197 342 l 1
 153 298 l 1
 131 231 l 1
 131 188 l 1
 153 121 l 1
 197 77 l 1
 239 56 l 1
 279 56 l 1
 346 78 l 1
 403 132 l 1
 413 134 l 1
 424 132 l 1
 433 126 l 1
 439 116 l 1
 441 106 l 1
 439 95 l 1
 433 86 l 1
 381 34 l 1
 370 27 l 1
 284 0 l 1
 223 1 l 1
 146 27 l 1
 135 34 l 1
 83 86 l 1
 76 97 l 1
 49 183 l 1
 50 244 l 1
 76 322 l 1
 83 333 l 1
 135 385 l 1
 146 391 l 1
 228 418 l 1
EndSplineSet
Validated: 1
EndChar

StartChar: uni0442
Encoding: 1090 1090 196
Width: 491
VWidth: 0
Flags: W
HStem: 0 56<144 204 286 346> 363 56<125 204 286 364>
VStem: 204 82<56 363>
LayerCount: 2
Back
Fore
SplineSet
125 363 m 1
 104 256 l 1
 99 245 l 1
 91 237 l 1
 80 233 l 1
 68 234 l 1
 58 240 l 1
 51 250 l 1
 49 261 l 1
 49 391 l 1
 51 401 l 1
 57 410 l 1
 66 417 l 1
 77 419 l 1
 413 419 l 1
 424 417 l 1
 433 410 l 1
 439 401 l 1
 441 261 l 1
 439 250 l 1
 432 240 l 1
 422 234 l 1
 410 233 l 1
 399 237 l 1
 391 245 l 1
 386 256 l 1
 364 363 l 1
 286 363 l 1
 286 56 l 1
 336 56 l 1
 346 54 l 1
 355 48 l 1
 361 39 l 1
 364 28 l 1
 361 17 l 1
 355 8 l 1
 346 2 l 1
 336 0 l 1
 154 0 l 1
 144 2 l 1
 134 8 l 1
 128 17 l 1
 126 28 l 1
 128 39 l 1
 134 48 l 1
 144 54 l 1
 204 56 l 1
 204 363 l 1
 125 363 l 1
EndSplineSet
Validated: 1
EndChar

StartChar: uni0443
Encoding: 1091 1091 197
Width: 465
VWidth: 0
Flags: W
HStem: -181 21G<40 89> 363 56<14 58 144 191 273 345 406 450>
LayerCount: 2
Back
Fore
SplineSet
58 363 m 1
 25 363 l 1
 14 365 l 1
 5 371 l 1
 -1 380 l 1
 -3 391 l 1
 -1 401 l 1
 5 410 l 1
 14 417 l 1
 25 419 l 1
 180 419 l 1
 191 417 l 1
 200 410 l 1
 206 401 l 1
 208 391 l 1
 206 380 l 1
 200 371 l 1
 191 365 l 1
 180 363 l 1
 144 363 l 1
 243 125 l 1
 345 363 l 1
 273 365 l 1
 264 371 l 1
 258 380 l 1
 256 391 l 1
 258 401 l 1
 264 410 l 1
 273 417 l 1
 284 419 l 1
 439 419 l 1
 450 417 l 1
 459 410 l 1
 465 401 l 1
 467 391 l 1
 465 380 l 1
 459 371 l 1
 450 365 l 1
 406 363 l 1
 258 17 l 1
 205 -88 l 1
 148 -147 l 1
 89 -178 l 1
 77 -181 l 1
 51 -181 l 1
 40 -179 l 1
 31 -173 l 1
 -1 -138 l 1
 -3 -127 l 1
 -1 -117 l 1
 31 -82 l 1
 40 -76 l 1
 51 -74 l 1
 61 -76 l 1
 70 -82 l 1
 99 -111 l 1
 112 -104 l 1
 157 -59 l 1
 201 29 l 1
 58 363 l 1
EndSplineSet
Validated: 1
EndChar

StartChar: uni0444
Encoding: 1092 1092 198
Width: 543
VWidth: 0
Flags: W
HStem: -181 56<170 230 312 372> 0 56<166 195 347 376> 363 56<166 195 347 376> 544 56<170 230>
VStem: 49 82<114.682 296> 230 82<-125 12 112 306 406 544> 411 82<114.682 304.318>
CounterMasks: 1 0e
LayerCount: 2
Back
Fore
SplineSet
143 416 m 1
 154 419 l 1
 206 419 l 1
 217 417 l 1
 230 406 l 1
 230 544 l 1
 180 544 l 1
 170 546 l 1
 160 552 l 1
 154 561 l 1
 152 572 l 1
 154 583 l 1
 160 592 l 1
 170 598 l 1
 180 600 l 1
 284 600 l 1
 295 598 l 1
 304 592 l 1
 310 583 l 1
 312 572 l 1
 312 406 l 1
 325 417 l 1
 336 419 l 1
 398 417 l 1
 452 390 l 1
 460 383 l 1
 466 374 l 1
 493 287 l 1
 493 132 l 1
 466 45 l 1
 460 36 l 1
 452 29 l 1
 398 2 l 1
 336 0 l 1
 325 2 l 1
 312 12 l 1
 312 -125 l 1
 362 -125 l 1
 372 -127 l 1
 381 -134 l 1
 387 -143 l 1
 390 -153 l 1
 387 -164 l 1
 381 -173 l 1
 372 -179 l 1
 362 -181 l 1
 180 -181 l 1
 170 -179 l 1
 160 -173 l 1
 154 -164 l 1
 152 -153 l 1
 154 -143 l 1
 160 -134 l 1
 170 -127 l 1
 230 -125 l 1
 230 12 l 1
 217 2 l 1
 206 0 l 1
 154 0 l 1
 144 2 l 1
 90 29 l 1
 81 36 l 1
 76 45 l 1
 49 132 l 1
 50 296 l 1
 81 383 l 1
 143 416 l 1
166 363 m 1
 153 350 l 1
 131 283 l 1
 131 136 l 1
 153 69 l 1
 166 56 l 1
 195 56 l 1
 209 70 l 1
 230 112 l 1
 230 306 l 1
 209 348 l 1
 195 363 l 1
 166 363 l 1
312 306 m 1
 312 112 l 1
 333 70 l 1
 347 56 l 1
 376 56 l 1
 389 69 l 1
 411 136 l 1
 411 283 l 1
 389 350 l 1
 376 363 l 1
 347 363 l 1
 333 348 l 1
 312 306 l 1
EndSplineSet
Validated: 1
EndChar

StartChar: uni0445
Encoding: 1093 1093 199
Width: 517
VWidth: 0
Flags: W
HStem: 2 54<40 90 163 217 427 476> 363 56<40 89 299 353 426 476>
LayerCount: 2
Back
Fore
SplineSet
90 56 m 1
 215 202 l 1
 89 363 l 1
 51 363 l 1
 40 365 l 1
 31 371 l 1
 25 380 l 1
 23 391 l 1
 25 401 l 1
 31 410 l 1
 40 417 l 1
 51 419 l 1
 217 417 l 1
 226 410 l 1
 232 401 l 1
 234 391 l 1
 232 380 l 1
 226 371 l 1
 217 365 l 1
 186 363 l 1
 266 261 l 1
 353 363 l 1
 310 363 l 1
 299 365 l 1
 290 371 l 1
 284 380 l 1
 282 391 l 1
 284 401 l 1
 290 410 l 1
 299 417 l 1
 310 419 l 1
 465 419 l 1
 476 417 l 1
 485 410 l 1
 491 401 l 1
 493 391 l 1
 491 380 l 1
 485 371 l 1
 476 365 l 1
 465 363 l 1
 426 363 l 1
 301 216 l 1
 427 56 l 1
 465 56 l 1
 476 54 l 1
 485 48 l 1
 491 39 l 1
 493 28 l 1
 491 17 l 1
 485 8 l 1
 476 2 l 1
 465 0 l 1
 299 2 l 1
 290 8 l 1
 284 17 l 1
 282 28 l 1
 284 39 l 1
 290 48 l 1
 299 54 l 1
 330 56 l 1
 250 157 l 1
 163 56 l 1
 206 56 l 1
 217 54 l 1
 226 48 l 1
 232 39 l 1
 234 28 l 1
 232 17 l 1
 226 8 l 1
 217 2 l 1
 51 0 l 1
 40 2 l 1
 31 8 l 1
 25 17 l 1
 23 28 l 1
 25 39 l 1
 31 48 l 1
 40 54 l 1
 51 56 l 1
 90 56 l 1
EndSplineSet
Validated: 1
EndChar

StartChar: uni0446
Encoding: 1094 1094 200
Width: 569
VWidth: 0
Flags: W
HStem: 0 56<40 101 182 386 467 468> 363 56<40 101 182 243 325 386 467 528>
VStem: 101 81<56 363> 386 81<56 363>
LayerCount: 2
Back
Fore
SplineSet
101 363 m 1
 40 365 l 1
 31 371 l 1
 25 380 l 1
 23 391 l 1
 25 401 l 1
 31 410 l 1
 40 417 l 1
 51 419 l 1
 232 419 l 1
 243 417 l 1
 252 410 l 1
 258 401 l 1
 260 391 l 1
 258 380 l 1
 252 371 l 1
 243 365 l 1
 182 363 l 1
 182 56 l 1
 386 56 l 1
 386 363 l 1
 325 365 l 1
 316 371 l 1
 310 380 l 1
 308 391 l 1
 310 401 l 1
 316 410 l 1
 325 417 l 1
 336 419 l 1
 517 419 l 1
 528 417 l 1
 537 410 l 1
 543 401 l 1
 545 391 l 1
 543 380 l 1
 537 371 l 1
 528 365 l 1
 517 363 l 1
 467 363 l 1
 467 56 l 1
 528 54 l 1
 537 48 l 1
 543 39 l 1
 545 -102 l 1
 543 -113 l 1
 536 -122 l 1
 526 -128 l 1
 514 -129 l 1
 503 -126 l 1
 494 -118 l 1
 490 -107 l 1
 468 0 l 1
 51 0 l 1
 40 2 l 1
 31 8 l 1
 25 17 l 1
 23 28 l 1
 25 39 l 1
 31 48 l 1
 40 54 l 1
 51 56 l 1
 101 56 l 1
 101 363 l 1
EndSplineSet
Validated: 1
EndChar

StartChar: uni0447
Encoding: 1095 1095 201
Width: 569
VWidth: 0
Flags: W
HStem: 0 56<325 386 467 528> 105 55<239 300.636> 363 56<40 101 182 243 325 386 467 528>
VStem: 101 81<216 363> 386 81<56 142 221 363>
LayerCount: 2
Back
Fore
SplineSet
101 363 m 1
 40 365 l 1
 31 371 l 1
 25 380 l 1
 23 391 l 1
 25 401 l 1
 31 410 l 1
 40 417 l 1
 51 419 l 1
 232 419 l 1
 243 417 l 1
 252 410 l 1
 258 401 l 1
 260 391 l 1
 258 380 l 1
 252 371 l 1
 243 365 l 1
 232 363 l 1
 182 363 l 1
 182 216 l 1
 201 178 l 1
 239 160 l 1
 279 160 l 1
 347 182 l 1
 386 221 l 1
 386 363 l 1
 336 363 l 1
 325 365 l 1
 316 371 l 1
 310 380 l 1
 308 391 l 1
 310 401 l 1
 316 410 l 1
 325 417 l 1
 336 419 l 1
 517 419 l 1
 528 417 l 1
 537 410 l 1
 543 401 l 1
 545 391 l 1
 543 380 l 1
 537 371 l 1
 528 365 l 1
 517 363 l 1
 467 363 l 1
 467 56 l 1
 517 56 l 1
 528 54 l 1
 537 48 l 1
 543 39 l 1
 545 28 l 1
 543 17 l 1
 537 8 l 1
 528 2 l 1
 517 0 l 1
 336 0 l 1
 325 2 l 1
 316 8 l 1
 310 17 l 1
 308 28 l 1
 310 39 l 1
 316 48 l 1
 325 54 l 1
 336 56 l 1
 386 56 l 1
 386 142 l 1
 371 131 l 1
 284 104 l 1
 223 105 l 1
 136 136 l 1
 104 197 l 1
 101 209 l 1
 101 363 l 1
EndSplineSet
Validated: 1
EndChar

